<?xml version="1.0" standalone="no"?>
<!DOCTYPE svg PUBLIC "-//W3C//DTD SVG 1.1//EN" "http://www.w3.org/Graphics/SVG/1.1/DTD/svg11.dtd" >
<svg xmlns="http://www.w3.org/2000/svg" xmlns:xlink="http://www.w3.org/1999/xlink" version="1.1">
<metadata>
Created by FontForge 20170731 at Fri Dec  4 07:31:32 2020
 By Aleksey,,,
Briasantika (c) (Brithos Type). 2020. All Rights Reserved
</metadata>
<defs>
<font id="Briasantika" horiz-adv-x="1735" >
  <font-face 
    font-family="Briasantika"
    font-weight="400"
    font-stretch="normal"
    units-per-em="2048"
    panose-1="2 0 6 0 0 0 0 0 0 0"
    ascent="1638"
    descent="-410"
    x-height="843"
    cap-height="1680"
    bbox="-339.85 -979.448 3718.68 2192.63"
    underline-thickness="150"
    underline-position="-442"
    unicode-range="U+001D-E008"
  />
<missing-glyph horiz-adv-x="824" 
d="M0 0v1434h824v-1434h-824zM50 50h724v1334h-724v-1334zM225 1148q31 28 58 43q53 30 112 30q92 0 148 -47.5t56 -127.5q0 -49 -23 -98.5t-87 -129.5q-63 -80 -99 -132t-36 -99q0 -38 24 -133h-32q-35 97 -35 148q0 76 81.5 218t81.5 217q0 57 -33 90t-91 33
q-38 0 -69 -17q-26 -15 -56 -40v45zM289 334l57 58q11 10 20 10q10 0 22 -11l56 -60q9 -11 9 -20q0 -11 -10 -22l-56 -62q-14 -14 -21 -14q-11 0 -20 10l-61 71q-7 9 -7 18q0 10 11 22z" />
    <glyph glyph-name="lj" unicode="lj" horiz-adv-x="1239" 
d="M600 -230l5 46l-34 -37q-70 -76 -79 -165q-2 -24 1 -53t9 -49.5t12 -21.5q3 0 12 14t18 35q18 40 34 104.5t22 126.5zM318 1152q-13 -60 -28 -142t-25.5 -149.5t-10.5 -87.5q-1 -12 1 -12t11 14q6 8 16 27.5t20 41.5q29 67 60.5 166.5t43.5 160.5q7 41 12 96.5t5.5 103.5
t-3.5 66l-6 23l-11 -22q-16 -32 -40 -113t-45 -173zM847 966q-20 -1 -31.5 5t-28.5 26q-14 15 -20 24t-6.5 20t0.5 32q4 44 26 89q19 40 46 56t75 15q95 0 102 -50q1 -23 -15 -66t-38 -77q-50 -70 -110 -74zM622 551q1 44 3 58q28 157 124 205q32 13 84.5 14t83.5 -10
q26 -9 35.5 -29t3 -69t-28.5 -147q-27 -121 -35.5 -183t-11.5 -150l-1 -69q107 88 188.5 205t160.5 264l20 35q11 19 17 28.5t11.5 13t13.5 4.5q15 -4 17 -33.5t-10 -63.5q-51 -129 -161 -295.5t-256 -287.5l-5 -84q-14 -292 -81 -433q-47 -93 -147 -144q-27 -14 -51 -19
t-75 -6q-47 -2 -70 0.5t-41 11.5q-74 36 -86.5 123t41.5 195q21 39 67 90.5t103 100.5q31 26 53 45.5t25 24.5q2 7 3.5 96t1.5 218v68q-46 -128 -95 -216q-60 -108 -94 -175q-35 -73 -71 -93t-93 1q-33 12 -76 44.5t-68 64.5q-125 171 -141 456q-22 469 110 863
q62 182 129 289q86 138 220 56q73 -41 99 -106.5t20 -193.5q-3 -85 -17.5 -160t-47.5 -180q-105 -318 -247 -380q-7 -1 -12 -19.5t-8.5 -67t-7.5 -142.5q3 -90 3 -112t3.5 -58.5t9.5 -66.5t17 -78l17 -71l27 27q57 59 320 520q3 11 7 21z" />
    <glyph glyph-name="gg" unicode="gg" horiz-adv-x="1723" 
d="M185 264q26 51 61.5 137.5t63 163t29.5 96.5q1 8 -4.5 21.5t-13.5 26.5q-9 14 -14 20t-8.5 4.5t-8.5 -8.5q-30 -39 -67 -124.5t-56 -159.5q-5 -22 -9 -58t-6 -72.5t-1 -62t5 -26.5q3 0 11.5 12t17.5 30zM1206 -254l7 104l-53 -41q-165 -124 -215 -233q-32 -65 -25.5 -124
t48.5 -89q13 -9 21.5 -11.5t18.5 1.5t29 15q27 16 57.5 49t49.5 68q47 89 62 261zM1069 258q23 46 55.5 124.5t57.5 147.5t26 87q1 8 -4 20t-12 24q-8 13 -12.5 18t-8 4t-7.5 -8q-27 -35 -60.5 -112.5t-51.5 -144.5q-4 -20 -7.5 -52.5t-5.5 -65.5t-1 -56.5t4 -24.5
q3 0 11 11t16 28zM336 -300l8 114l-58 -45q-182 -137 -238 -257q-35 -72 -28 -137t54 -98q14 -10 23.5 -13t20.5 1.5t32 16.5q30 18 63.5 54.5t54.5 74.5q52 99 68 289zM801 270q-82 -145 -181 -268l-9 -101q-24 -312 -107 -472q-83 -147 -216 -211.5t-273 -25.5
q-99 32 -135 112.5t2 183.5q43 136 321 320l135 91l-2 80q0 35 -1.5 69t-3.5 51l-3 40l-25 -31q-11 -13 -29 -27t-35 -21q-16 -9 -30.5 -12.5t-36 -4t-59.5 0.5t-59.5 3t-34.5 6t-26 12q-102 60 -106 262q-8 175 99 362q105 190 290 193q27 0 55 -2.5t44 -7.5q21 -6 29.5 -6
t9.5 6q6 11 26.5 32t44 39.5t36.5 22.5q42 11 80.5 7t58.5 -21l20 -19l-17 -117q-17 -113 -30 -400l-14 -282l20 22q65 78 154 249q7 15 15 29q19 102 80 209q96 172 263 175q25 0 50 -2.5t40 -6.5q19 -6 26.5 -6t8.5 6q6 10 24.5 29t39.5 35.5t33 20.5q38 10 73 6t53 -19
l18 -17l-15 -106q-15 -103 -27 -363l-13 -255l18 20q59 70 139.5 225t117.5 249q27 51 45 31h1q4 -4 7 -10.5t1.5 -20.5t-10.5 -40q-125 -333 -318 -574l-8 -91q-22 -283 -97 -428q-75 -133 -195.5 -191.5t-247.5 -23.5q-90 29 -122.5 102t1.5 166q39 124 291 290l122 83
l-1 72q0 32 -1.5 63t-3.5 46l-3 36l-22 -28q-10 -12 -26.5 -24.5t-31.5 -18.5q-15 -8 -28 -11.5t-32.5 -4t-53.5 0.5q-35 1 -54.5 3t-31 5.5t-23.5 10.5q-81 48 -94 193z" />
    <glyph glyph-name="Fi" unicode="Fi" horiz-adv-x="2109" 
d="M488 168q-3 29 -5 89.5t-3 115t0 65.5q1 8 -1 14t-7 7q-4 0 -32.5 -7.5t-66.5 -19.5q-156 -51 -171 -100q-1 -8 2.5 -15t17 -17t41 -26t74.5 -43q38 -21 70.5 -40t44.5 -27q25 -17 31.5 -16t4.5 20zM1629 949q-13 3 -27 8t-22 11q-24 21 -24 73.5t18.5 107t50.5 82.5
q26 20 71.5 29t81.5 2q45 -8 54.5 -40.5t-9.5 -111.5q-14 -65 -27 -91.5t-39 -45.5q-51 -40 -128 -24zM1434 530q-18 -4 -54 -1q-82 4 -240 2.5t-249 -7.5l-101 -8l-5 -80q-6 -97 -11 -220.5t-6 -211.5q-1 -58 2 -85.5t12 -44.5q2 -5 6 -11q7 -15 17.5 -35.5t19.5 -40.5
q56 -115 72.5 -218t-12.5 -149q-22 -28 -75.5 -31t-106.5 21q-62 34 -106 169q-20 67 -42 166.5t-32 169.5q-3 32 -10 47.5t-25 31.5q-34 33 -88.5 69t-150.5 90q-107 59 -161 95.5t-71 64t-11 59.5q4 44 56.5 83t170.5 85q61 24 129 45t96 24l22 1l5 89q3 39 12.5 125
t21.5 178l30 216l-26 -8q-43 -15 -108 -41t-120 -50q-30 -13 -58.5 -22.5t-41.5 -10.5q-29 -1 -64 16.5t-58 44.5q-15 17 -19 29.5t0 33.5q13 90 141 169t344 132q24 6 42 11t23 8q4 2 9.5 15.5t10.5 31.5q17 74 49 98t98 13q98 -13 109 -85q7 -32 17 -32q16 3 83 7t143 7
t119 3q91 -2 213 -21t178 -40q139 -56 209 -140q20 -24 33.5 -43t13.5 -24q-6 -25 -73 1q-39 16 -160 31q-73 10 -125.5 11.5t-140.5 -4.5q-249 -14 -422 -44l-97 -15l-10 -80q-5 -40 -14.5 -128.5t-18.5 -187t-15.5 -169.5t-5.5 -76q2 -1 26.5 -2t59.5 -1q80 2 289 -30
q155 -22 213 -37q28 -8 43 -16q4 35 10 70q23 132 74 189q26 26 56.5 39.5t79.5 20.5q30 4 50 3t40 -8q24 -7 31.5 -14.5t11.5 -28.5q7 -31 -11 -148q-19 -126 -37 -261.5t-24 -193.5q-9 -129 31 -190q9 -13 17.5 -21t11.5 -8q33 8 88 78.5t101 166.5q12 25 24 49
q25 47 51.5 110t55.5 168q12 45 25.5 80t25.5 43q6 3 13 2.5t13 -3.5q34 -29 -13 -223q-44 -173 -117 -311.5t-151 -193.5q-25 -18 -47.5 -26t-70.5 -15q-76 -13 -100 -6q-49 16 -103 69.5t-90 123.5q-43 91 -51 234q-5 83 1 162z" />
    <glyph glyph-name="ll" unicode="ll" horiz-adv-x="1257" 
d="M318 1152q-13 -60 -28 -142t-25.5 -149.5t-10.5 -87.5q-1 -12 1 -12t11 14q6 8 16 27.5t20 41.5q29 67 60.5 166.5t43.5 160.5q7 41 12 96.5t5.5 103.5t-3.5 66l-6 23l-11 -22q-16 -32 -40 -113t-45 -173zM953 1120q-12 -55 -26 -131t-23.5 -138t-9.5 -81q-1 -11 0.5 -11
t10.5 13q5 8 14.5 26t18.5 38q27 62 56 153.5t40 148.5q6 37 11 88.5t5 95.5t-3 61l-6 21l-10 -20q-15 -30 -37 -104.5t-41 -159.5zM645 359q-18 -69 -36 -136q-30 -108 -51 -171q-23 -69 -57 -150t-68 -148q-35 -73 -71 -93t-93 1q-33 12 -76 44.5t-68 64.5
q-125 171 -145 639q-22 469 110 863q62 182 129 289q86 138 220 56q73 -41 99 -106.5t20 -193.5q-3 -85 -17.5 -160t-47.5 -180q-105 -318 -247 -380q-7 -1 -12 -19.5t-8.5 -67t-7.5 -142.5q-7 -131 2 -252q5 -65 8.5 -101.5t9.5 -66.5t17 -78l17 -71l27 27q57 59 136 249.5
t186 478.5q8 23 17 47q6 337 104 630q57 168 119 266q80 128 203 52q68 -38 92 -98.5t18 -178.5q-3 -78 -16 -147.5t-44 -165.5q-97 -294 -228 -351q-6 -1 -10.5 -18t-8 -62t-7.5 -131q-6 -121 2 -233q5 -60 8 -93.5t8.5 -61.5t16.5 -72l15 -65l25 24q53 55 126 230.5
t171 441.5q15 41 31 82q42 106 68 75q3 -8 -13.5 -82t-43 -178t-54 -203.5t-46.5 -157.5q-21 -64 -52.5 -138.5t-62.5 -136.5q-33 -67 -66 -85.5t-86 0.5q-30 11 -69.5 41t-62.5 60q-106 144 -130 513z" />
    <glyph glyph-name="Ti" unicode="Ti" horiz-adv-x="2152" 
d="M1211 -567q-57 58 -120.5 183.5t-106.5 262.5q-46 155 -71.5 352t-21.5 364q13 320 97 649q9 33 14.5 57.5t5.5 28.5q1 6 -13 6t-49 -7t-98 -23q-114 -26 -211.5 -68t-237.5 -125q-137 -82 -197.5 -89.5t-105.5 51.5q-96 110 -50 205q19 35 84.5 90.5t136.5 97.5
q342 189 852 186q122 -1 222.5 -14t221.5 -42q251 -58 380 -143q119 -74 56 -124q-48 -52 -103 -42q-78 18 -160 33t-130 21q-54 6 -124.5 10.5t-124.5 6.5t-61 -1q-1 -2 -0.5 -26.5t3.5 -60.5q3 -43 -0.5 -102t-17.5 -169t-43 -307q-32 -215 -42.5 -315.5t-12.5 -211.5
q-10 -342 81 -618q18 -55 26 -86t7.5 -45t-8.5 -19q-23 -19 -78 34v0v0zM2219 716q34 -29 -13 -223q-44 -173 -117 -311.5t-151 -193.5q-25 -18 -47.5 -26t-70.5 -15q-76 -13 -100 -6q-49 16 -103 69.5t-90 123.5q-43 91 -51 234t15 275t74 189q26 26 56.5 39.5t79.5 20.5
q30 4 50 3t40 -8q24 -7 31.5 -14.5t11.5 -28.5q7 -31 -11 -148q-19 -126 -37 -261.5t-24 -193.5q-9 -129 31 -190q9 -13 17.5 -21t11.5 -8q33 8 88 78.5t101 166.5q12 25 24 49q25 47 51.5 110t55.5 168q12 45 25.5 80t25.5 43q6 3 13 2.5t13 -3.5zM1681 967q-13 3 -27 8
t-22 11q-24 21 -24 73.5t11 82.5t43 58q26 20 71.5 29t81.5 2q45 -8 54.5 -40.5t5.5 -62.5q-14 -65 -27 -91.5t-39 -45.5q-51 -40 -128 -24z" />
    <glyph glyph-name="oo" unicode="oo" horiz-adv-x="1794" 
d="M1008 719v0q30 8 15.5 -46t-81.5 -144.5t-195 -189.5q-16 -13 -24 -23t-12 -24t-8 -41q-28 -154 -98.5 -275t-153.5 -159q-25 -10 -60.5 -9t-65.5 13q-36 15 -85.5 55t-79.5 79q-88 121 -88 281q0 32 -1 46.5t-7 23t-18 19.5q-26 24 -49 63.5t-32 74.5q-31 120 39 234
q68 108 173.5 146t219.5 -4q51 -21 109.5 -64.5t96.5 -89.5q44 -55 75.5 -131t31.5 -126v-32q148 112 207.5 188t74.5 110q10 21 16 25zM518 100v0q11 18 23.5 46t21 51.5t5.5 26.5q-3 1 -20 -2.5t-41 -10.5q-24 -8 -53.5 -14t-48.5 -8q-21 -2 -31 -4t-14.5 -6.5t-7.5 -13.5
q-4 -12 -7.5 -45t-5 -72t-1 -67.5t4.5 -28.5q3 0 16 5.5t29 13.5q30 16 67 52.5t63 76.5zM597 366v0q13 86 -20.5 185t-95.5 156q-95 81 -215 38q-90 -37 -144.5 -125.5t-44.5 -180.5q5 -24 12.5 -29.5t7.5 15.5q0 6 8.5 30t20.5 53q49 118 97 168t112 50q63 -4 128 -53
t65 -93q0 -6 -12 -29t-30 -52q-28 -47 -59 -113t-44 -108q-3 -9 -2.5 -12.5t7 -3.5t22.5 2q13 2 33.5 7t39.5 10q17 6 38 13.5t36 13.5q15 7 22.5 12.5t11 15.5t6.5 30zM1394 120q10 16 21.5 41.5t19 46.5t4.5 24q-3 1 -18 -2t-37 -10t-48.5 -12.5t-43.5 -7.5q-19 -1 -28 -3
t-13 -6t-7 -12q-4 -11 -7 -41t-4.5 -65t-1 -61t4.5 -26q3 0 14.5 5t25.5 12q28 15 61 48t57 69zM1465 360q12 78 -18 167.5t-86 141.5q-86 73 -195 34q-81 -33 -130.5 -113t-40.5 -164q5 -21 11.5 -26t6.5 14q0 5 8 27t19 48q44 106 87.5 151.5t101.5 45.5q57 -4 115.5 -48
t58.5 -84q0 -6 -11 -26.5t-27 -46.5q-25 -43 -53 -102.5t-40 -97.5q-3 -8 -2.5 -11.5t6.5 -3.5t20 2q12 2 30.5 6.5t35.5 9.5q16 5 35 12t32 12q14 6 20.5 11t10 14t5.5 27zM1837 680q27 7 14 -42t-73.5 -130.5t-176.5 -171.5q-14 -12 -21.5 -21t-11 -21.5t-7.5 -37.5
q-25 -139 -89 -248.5t-139 -143.5q-22 -9 -54 -8t-59 12q-33 13 -78 49.5t-72 71.5q-79 109 -79 254q0 29 -1 42t-6.5 20.5t-16.5 17.5q-23 22 -44 57.5t-29 67.5q-28 109 35 212q62 97 157.5 131.5t198.5 -3.5q46 -19 98.5 -58.5t87.5 -80.5q40 -50 68.5 -118.5
t28.5 -114.5v-28q133 101 187 169.5t68 99.5q9 19 14 23z" />
    <glyph glyph-name="ss" unicode="ss" horiz-adv-x="1724" 
d="M989 720v0q36 6 7.5 -46t-101 -136.5t-170 -178.5t-201.5 -173l16 -34q40 -86 23 -170q-23 -90 -111.5 -176t-197.5 -125q-37 -12 -73 -10.5t-52 15.5q-21 21 -32.5 52.5t-8.5 61.5q14 111 258 313q25 20 35 29.5t9 13.5t-9 7q-9 3 -49.5 11t-93.5 16q-53 9 -83 15
t-46.5 12.5t-31.5 15.5q-78 52 -122 165q-63 163 61 354q23 38 50.5 66t89.5 77q78 63 127.5 87.5t108.5 28.5q48 5 80.5 -11t67.5 -62q79 -103 78 -210q-4 -69 -31.5 -131.5t-64.5 -85.5q-14 -8 -22.5 -8.5t-19.5 6.5q-44 25 -27 135l10 65l-32 -14q-35 -16 -95 -63.5
t-107 -96.5q-23 -24 -46.5 -56t-38.5 -58t-12 -32q3 -2 39 -15t88 -30q125 -43 179 -76l42 -26q180 144 284 247.5t154 162.5q53 62 71 68zM433 95v0l7 22l-24 -20q-33 -29 -87.5 -82.5t-82.5 -85.5q-34 -40 -64 -86.5t-33 -64.5t7.5 -18t42.5 17q154 86 234 318zM1274 146
l6 19l-21 -18q-29 -25 -77 -72t-73 -75q-30 -35 -56 -76t-29 -57t6.5 -16t37.5 15q135 76 206 280zM1762 695q32 5 7 -40.5t-89 -120t-149.5 -157t-176.5 -151.5l14 -30q35 -76 20 -150q-20 -79 -98 -154.5t-174 -109.5q-32 -11 -64 -9.5t-46 13.5q-18 19 -28 46.5t-8 53.5
q13 98 227 275q22 18 31 26.5t8 12t-8 5.5q-8 3 -43.5 10t-82.5 14q-46 8 -72.5 13.5t-41 11t-27.5 13.5q-69 46 -108 145q-55 143 54 311q20 34 44.5 58.5t78.5 67.5q69 55 112.5 76.5t95.5 25.5q42 4 70.5 -10t59.5 -54q69 -91 68 -185q-3 -61 -27.5 -115.5t-56.5 -75.5
q-12 -7 -19.5 -7.5t-17.5 6.5q-39 22 -24 118l9 57l-28 -12q-31 -14 -83.5 -55.5t-94.5 -85.5q-20 -21 -40.5 -49t-34 -51t-10.5 -28q3 -2 34.5 -13.5t77.5 -25.5q110 -38 157 -67l37 -23q158 126 249.5 217t135.5 143q47 55 62 60z" />
    <glyph glyph-name="cc" unicode="cc" horiz-adv-x="1128" 
d="M1179 680q19 0 17 -15q0 -8 -18 -65t-43 -129t-47.5 -133.5t-32.5 -83.5q-26 -54 -59.5 -102.5t-63.5 -74.5q-84 -75 -207 -43q-92 27 -147.5 118t-55.5 215q0 141 66.5 278t156.5 181q55 22 117 18t105 -34q41 -30 52.5 -76t-8.5 -93q-26 -56 -78 -56q-25 0 -37 13
t-21 51q-20 79 -33 74q-11 -6 -33 -49.5t-38 -93.5q-41 -134 -41 -236q0 -62 22 -135.5t48 -97.5q5 -4 10.5 -2.5t16.5 10.5t31 28q21 21 45 50t41 54q38 57 90.5 154t80.5 169q19 38 28 61q9 19 14.5 29t9.5 13t12 3zM685 721q21 0 19 -17q0 -10 -20.5 -75t-49 -147.5
t-54 -152.5t-37.5 -95q-30 -62 -68 -117.5t-72 -85.5q-97 -85 -237 -49q-105 31 -168.5 135t-63.5 246q0 161 76 317.5t179 206.5q63 26 133.5 21t119.5 -39q47 -34 60.5 -86.5t-9.5 -106.5q-30 -64 -89 -64q-29 0 -42.5 15t-24.5 58q-23 91 -37 85q-13 -7 -38 -57t-44 -107
q-46 -153 -46 -269q0 -71 25 -155t55 -112q5 -4 11.5 -2.5t19 12t35.5 32.5q24 24 51.5 57t46.5 61q44 66 104 176.5t92 192.5q21 44 32 70q10 22 16 33.5t11 15t14 3.5z" />
    <glyph glyph-name=".notdef" horiz-adv-x="824" 
d="M0 0v1434h824v-1434h-824zM50 50h724v1334h-724v-1334zM225 1148q31 28 58 43q53 30 112 30q92 0 148 -47.5t56 -127.5q0 -49 -23 -98.5t-87 -129.5q-63 -80 -99 -132t-36 -99q0 -38 24 -133h-32q-35 97 -35 148q0 76 81.5 218t81.5 217q0 57 -33 90t-91 33
q-38 0 -69 -17q-26 -15 -56 -40v45zM289 334l57 58q11 10 20 10q10 0 22 -11l56 -60q9 -11 9 -20q0 -11 -10 -22l-56 -62q-14 -14 -21 -14q-11 0 -20 10l-61 71q-7 9 -7 18q0 10 11 22z" />
    <glyph glyph-name=".notdef" horiz-adv-x="824" 
d="M0 0v1434h824v-1434h-824zM50 50h724v1334h-724v-1334zM225 1148q31 28 58 43q53 30 112 30q92 0 148 -47.5t56 -127.5q0 -49 -23 -98.5t-87 -129.5q-63 -80 -99 -132t-36 -99q0 -38 24 -133h-32q-35 97 -35 148q0 76 81.5 218t81.5 217q0 57 -33 90t-91 33
q-38 0 -69 -17q-26 -15 -56 -40v45zM289 334l57 58q11 10 20 10q10 0 22 -11l56 -60q9 -11 9 -20q0 -11 -10 -22l-56 -62q-14 -14 -21 -14q-11 0 -20 10l-61 71q-7 9 -7 18q0 10 11 22z" />
    <glyph glyph-name=".null" horiz-adv-x="0" 
 />
    <glyph glyph-name="nonmarkingreturn" horiz-adv-x="682" 
 />
    <glyph glyph-name="space" unicode=" " horiz-adv-x="508" 
 />
    <glyph glyph-name="space" unicode="&#xa0;" horiz-adv-x="508" 
 />
    <glyph glyph-name="exclam" unicode="!" horiz-adv-x="727" 
d="M335 -252v0q74 -56 53 -147q-9 -46 -24 -84t-29 -53q-41 -36 -108 16q-16 13 -31.5 32.5t-23.5 36.5q-26 62 -12.5 139.5t55.5 103.5q43 16 120 -44zM351 1628v0q90 169 247 16q45 -42 59.5 -80t6.5 -96q-3 -28 -11.5 -66t-18.5 -68q-120 -346 -165.5 -494t-58.5 -231
q-5 -30 -14.5 -111.5t-18.5 -176.5q-10 -99 -14 -153.5t-3 -90t6 -79.5q4 -43 5 -74t-1 -35q-23 -26 -83 32q-57 52 -84.5 174t-41.5 384q-16 325 36.5 641t153.5 508z" />
    <glyph glyph-name="quotedbl" unicode="&#x22;" horiz-adv-x="709" 
d="M458 1689v0q30 -134 -52 -236q-18 -23 -45.5 -63t-51.5 -79q-25 -40 -37 -62.5t-16 -38.5t-4 -35q0 -27 -4 -38t-16 -17q-12 -8 -18.5 -5.5t-15.5 19.5q-14 27 -29.5 97t-20.5 133q-3 68 24.5 164.5t66.5 154.5q79 109 136.5 110.5t82.5 -104.5zM576 1638v0
q87 102 145 98.5t73 -111.5q19 -136 -72 -230q-20 -22 -51 -59.5t-59 -74.5q-27 -37 -41 -58.5t-19.5 -37t-6.5 -34.5q-3 -27 -8 -38t-17 -16q-13 -6 -19 -3t-14 21q-12 28 -21 99t-9 134q3 68 38.5 161.5t80.5 148.5z" />
    <glyph glyph-name="numbersign" unicode="#" horiz-adv-x="1549" 
d="M1470 618v0q24 -18 23.5 -26t-38.5 -7.5t-127 5.5l-169 10l-11 -34q-5 -15 -14.5 -56t-20 -88.5t-17 -83t-6.5 -40.5q2 -2 16.5 -9t35.5 -14q98 -35 115 -71q3 -7 0.5 -10.5t-16.5 -5.5t-46 -2.5t-87 -0.5h-31l-3 -54q-4 -54 -4 -136t3 -137q3 -47 -4 -82t-20 -38
q-5 -1 -18 6t-27 18q-53 43 -96.5 141t-58.5 210q-4 33 -8 55t-5 24q-3 1 -31.5 0.5t-69.5 -2.5t-72 -3.5t-37 -1.5q-9 -1 -18.5 -39t-16 -93t-6.5 -109q-1 -32 -3 -61t-6 -40q-3 -11 -4.5 -21t-0.5 -16q2 -10 -19 -9q-46 5 -100 91q-18 26 -26 47.5t-15 62.5q-5 28 -8 61.5
t-2 56.5l2 52l-62 -1q-29 -1 -44.5 0.5t-28 7.5t-33.5 19q-33 21 -54 45.5t-20 39.5q5 29 180 42l70 5l7 69q3 29 9 69t12 70q6 31 8.5 52t1.5 24q-3 1 -35 1.5t-79 -0.5q-56 -1 -85.5 0.5t-45 7.5t-31.5 20q-21 17 -24.5 31t11.5 20q25 8 97.5 15t139.5 8h82l14 58
q36 140 83 249t79 131q9 5 16 6t16 -1.5t25 -10.5q40 -19 70 -48.5t39 -59.5q17 -87 -43 -264q-7 -19 -11 -33.5t-3 -17.5t19.5 -5t44.5 -3l63 -1l8 30q69 270 148 373q20 26 32 33t33 5q46 -5 94.5 -42.5t61.5 -76.5q1 -10 -9.5 -60t-29.5 -118q-19 -67 -30 -113t-11 -49
q3 -1 25 -5.5t54 -10.5q160 -28 203 -61zM860 551v0q4 26 5 44t-1 20q-3 2 -23 3t-47 0q-32 -1 -46.5 -2.5t-19.5 -7.5t-10 -20q-5 -13 -16 -53.5t-23 -89.5l-29 -116l93 -3l94 -3l6 84q3 37 7.5 77.5t9.5 66.5z" />
    <glyph glyph-name="dollar" unicode="$" horiz-adv-x="1234" 
d="M839 1113v0q1 6 10.5 27.5t22.5 49.5q50 100 31 151q-4 13 -12 17.5t-28.5 1.5t-59.5 -13l-50 -13l-2 -64q-1 -28 -4 -94t-7 -139q-3 -72 -4 -125t0 -63q5 -17 35 -27q46 -14 112 -52t103 -71q109 -97 94 -221q-11 -93 -84 -197t-184 -187l-63 -47l8 -90q4 -39 5 -74
t0 -50q-1 -14 0 -32.5t4 -31.5q4 -14 4.5 -24t-1.5 -12q-8 -6 -25.5 -1.5t-31.5 16.5q-10 10 -26 46t-30.5 81.5t-22.5 83.5l-8 46l-70 5q-84 7 -166.5 37t-136.5 70t-52 76q6 38 38.5 39t70.5 -35q32 -35 50 -29q36 8 98.5 35.5t96.5 50.5l41 30l-5 158q-2 68 -3.5 129.5
t-0.5 88.5l1 59l-96 36q-331 126 -345 318q-1 35 16.5 85.5t47.5 98.5q48 72 150.5 145.5t198.5 103.5l50 15l5 105q4 88 8 140t9.5 76t15.5 30t27 4q23 -4 51.5 -24.5t36.5 -40.5q3 -11 4.5 -48.5t0.5 -83.5q0 -6 -1 -12q-1 -49 -1.5 -77t2 -40t9 -15.5t17.5 -3.5h3
q65 -9 142.5 -49.5t120.5 -89.5q120 -147 -30 -281q-64 -59 -114 -50q-16 2 -34 11t-30.5 20.5t-11.5 20.5zM591 1049v0q0 17 1 32q3 80 3 113t-6.5 33.5t-23.5 -17.5q-2 -3 -5 -5q-54 -56 -86.5 -124t-27.5 -114q2 -12 6 -19.5t15.5 -14.5t34.5 -18q39 -18 64 -24.5t22 3.5
q-2 4 -1 48t4 107zM769 672v0q-16 5 -23.5 6t-10 -4t-3.5 -17q-1 -20 -2 -66.5t-0.5 -89.5t2.5 -53q8 -25 52 60q22 45 30.5 84.5t-0.5 55.5q-5 7 -17.5 13.5t-27.5 10.5z" />
    <glyph glyph-name="percent" unicode="%" horiz-adv-x="1214" 
d="M1123 1655v0q23 -21 29.5 -33.5t6.5 -34.5q0 -102 -200 -408q-440 -693 -543 -1193q-11 -50 -20.5 -88t-14.5 -47q-22 -36 -74 15q-122 115 -57 435q18 81 65.5 217t90.5 228q83 172 200.5 367t226.5 341q31 40 52.5 69.5t24.5 34.5q1 3 -32 -4.5t-85 -21.5
q-52 -15 -110 -29t-93 -19q-34 -6 -57.5 -10t-26.5 -6q-1 -1 1 -6.5t6 -13.5t5.5 -17t-0.5 -15q-1 -7 2.5 -29t9.5 -49q22 -89 6.5 -166t-62.5 -120q-81 -73 -168 -32q-39 18 -78.5 57t-60.5 79q-14 28 -18 51t-4 68q0 48 4 69t19 48q50 96 118 132q26 14 43 18t43 1
q44 -4 69 -22l24 -18l103 22q96 20 214 58t197 74q29 14 55 23.5t33 9.5q9 0 24 -9.5t32 -25.5zM448 1343v0v29l-21 -25q-20 -25 -43 -71.5t-30 -76.5q-4 -19 -2 -22t14 4q7 5 17.5 15t19.5 21q20 26 32.5 61.5t12.5 64.5zM901 490v0q50 -45 69.5 -89t18.5 -108
q0 -118 -57 -224q-111 -208 -224 -169q-33 13 -64.5 46t-52.5 73q-12 25 -17.5 41.5t-7 39t-0.5 66.5q0 56 4.5 87.5t17.5 70.5q38 111 103 172.5t131 50.5q26 -7 79 -57zM916 305v0q3 24 1.5 51.5t-5.5 47.5t-10 20t-27 -33t-44 -75t-36 -74q-12 -32 -27 -79t-26 -88.5
t-11 -52.5q0 -25 50 21q51 47 87.5 118t47.5 144z" />
    <glyph glyph-name="ampersand" unicode="&#x26;" horiz-adv-x="1377" 
d="M1204 133v0q23 3 52 -1t47.5 -20.5t10.5 -49.5q-7 -20 -49.5 -32t-90.5 -18t-75 -5q-65 1 -155 26t-154 59l-42 23l-28 -25q-84 -74 -177.5 -108.5t-179.5 -19.5q-35 6 -57 15.5t-50 30.5q-78 59 -96 149q-15 78 18.5 173.5t104.5 187.5l36 46l-21 42q-107 212 -99 411
q5 117 59 222q84 164 228 239.5t303 36.5q52 -13 92 -34.5t87 -60.5q83 -67 107 -139.5t-5 -171.5q-25 -100 -76 -171t-186 -199q-60 -58 -115.5 -112.5t-79.5 -80.5l-42 -44l27 -39q22 -30 51 -64.5t54 -61.5l23 -23l3 3q35 33 106 113q88 103 150 161.5t96 50.5
q17 -3 27.5 -15.5t6.5 -35.5q-5 -27 -35 -82q-20 -41 -51.5 -84t-88.5 -110q-45 -51 -71 -84l-9 -13l6 -3q24 -11 59 -26q52 -22 85 -31.5t82 -16.5q37 -5 68.5 -7t43.5 -1zM593 1221v0q-185 -185 -133 -454l7 -30l10 10q33 33 80 82q84 88 130.5 139.5t75 89.5t58.5 83
t50 69q16 19 24 33.5t5 30.5q-6 19 -24.5 26.5t-38.5 9.5q-60 7 -126 -17t-118 -72zM610 209v0l3 2l-28 25q-21 18 -48 45t-48 51l-30 34l-5 -7q-22 -33 -48 -79t-40 -76q-12 -26 -17 -43.5t-6 -34.5l-1 -23h-2q2 -2 20 -4.5t50 3.5q17 3 41.5 12.5t45.5 19.5
q26 14 58.5 35.5t54.5 39.5z" />
    <glyph glyph-name="quotesingle" unicode="'" horiz-adv-x="491" 
d="M264 1638v0q87 102 145 98.5t73 -111.5q19 -136 -72 -230q-20 -22 -51 -59.5t-59 -74.5q-27 -37 -41 -58.5t-19.5 -37t-6.5 -34.5q-3 -27 -8 -38t-17 -16q-13 -6 -19 -3t-14 21q-12 28 -21 99t-9 134q3 68 38.5 161.5t80.5 148.5z" />
    <glyph glyph-name="parenleft" unicode="(" horiz-adv-x="823" 
d="M768 1802v0q-6 -69 -108 -401q-255 -818 -219 -1364q10 -144 36 -305.5t61 -291.5q10 -36 35 -104.5t50.5 -131t36.5 -80.5q6 -10 6 -16.5t-6 -14.5q-16 -30 -85 5q-37 18 -68 48t-69 87q-136 194 -228 599q-65 264 -49 655q12 325 64 645t125 512q67 172 128 245.5
t126 61.5q62 -12 111.5 -57.5t52.5 -91.5z" />
    <glyph glyph-name="parenright" unicode=")" horiz-adv-x="787" 
d="M604 1473v0q14 -43 38 -140t46 -198t30 -155q14 -110 6 -317t-31 -377q-21 -140 -61 -326.5t-73 -302.5q-15 -47 -45 -125t-61 -149.5t-48 -98.5q-2 -3 -5 -9q-14 -24 -43.5 -68t-64.5 -76t-65 -21q-14 3 -15.5 33.5t4 72t11.5 74.5q4 25 5 37q6 27 12 69q10 70 31 174
q40 182 57 286.5t33 260.5q36 335 51 648q9 157 2 257.5t-36 231.5q-70 336 -166 478q-71 113 32 114q29 -2 75.5 -23t85.5 -50q55 -42 108.5 -124.5t86.5 -175.5z" />
    <glyph glyph-name="asterisk" unicode="*" horiz-adv-x="888" 
d="M781 1593v0q52 -29 51.5 -54t-55.5 -65q-23 -18 -37.5 -30.5t-13.5 -13.5t11 -4.5t23 -8.5q37 -14 28 -20t-66 -6q-33 0 -48.5 -1t-24 -5t-19.5 -13l-24 -20l32 -39q14 -17 39 -45.5t49 -54.5q88 -96 78 -117q-17 -32 -147 73l-63 50l-5 -23q-2 -10 -4.5 -28.5
t-4.5 -36.5q-6 -39 -21 -67t-32 -28q-6 0 -15 4.5t-17 10.5q-26 25 -42.5 67.5t-17.5 86.5q0 13 -1.5 22.5t-3.5 9.5t-13.5 -5.5t-27.5 -14.5q-21 -11 -54.5 -25t-64 -24.5t-39.5 -10.5q-8 0 -22.5 9t-26.5 19.5t-12 17.5q0 25 26.5 67t69.5 84q12 11 18 20t5 12
q-2 2 -17.5 3.5t-35.5 1.5q-22 0 -33.5 1.5t-19 6t-16.5 13.5q-20 18 -21 25.5t15 17.5q7 6 17.5 8.5t32 3t60.5 0.5l92 -2l-17 15q-18 16 -41.5 45.5t-43 58.5t-25.5 45q-7 20 -6.5 28t9.5 15q8 7 16.5 7.5t27.5 -5.5q33 -10 71 -35.5t58 -51.5l18 -24l6 83q3 73 15 100.5
t41 27.5q19 0 52 -17.5t55 -39.5q13 -15 24 -46.5t11 -57.5v-20l29 11q64 22 118 -11z" />
    <glyph glyph-name="plus" unicode="+" horiz-adv-x="996" 
d="M867 620v0q34 -24 54 -54.5t18 -56.5q-1 -16 -5.5 -19.5t-19.5 -0.5q-37 4 -113 6t-169 2q-2 -33 -5 -67q-7 -69 -11.5 -102.5t-10.5 -48.5t-16 -29q-24 -34 -55 -54t-56 -18q-16 1 -19.5 5.5t-0.5 19.5q4 38 6 116.5t1 173.5q-103 -3 -172 -9q-38 -4 -58.5 -4t-31 4.5
t-20.5 14.5q-16 17 -27 40.5t-10 39.5q8 49 126 69q93 16 190 19q-4 93 -9 155q-4 38 -4.5 58.5t4.5 31.5t15 20q17 16 40.5 27t39.5 10q49 -7 69 -125q16 -90 19 -182q24 -2 50 -4q70 -7 103.5 -11.5t48.5 -10.5t29 -16z" />
    <glyph glyph-name="comma" unicode="," horiz-adv-x="496" 
d="M284 197v0q24 -2 58 -18t57 -36q32 -31 37 -73t-18 -78q-18 -24 -54 -57t-66 -53q-92 -61 -138 -24q-15 10 -12.5 22t24.5 32q56 52 82 118t12 121q-2 9 -4 19t-2 15q0 8 4.5 10.5t19.5 1.5z" />
    <glyph glyph-name="hyphen" unicode="-" horiz-adv-x="995" 
d="M866 620v0q35 -24 54.5 -54.5t17.5 -56.5q-1 -16 -5.5 -19.5t-19.5 -0.5q-52 6 -168.5 7.5t-243 -2t-208.5 -10.5q-38 -4 -58.5 -4t-31.5 4.5t-21 14.5q-16 17 -26.5 40.5t-9.5 39.5q7 49 125 69q190 34 414 10q70 -7 103.5 -11.5t48.5 -10.5t29 -16z" />
    <glyph glyph-name="hyphen" unicode="&#xad;" horiz-adv-x="995" 
d="M866 620v0q35 -24 54.5 -54.5t17.5 -56.5q-1 -16 -5.5 -19.5t-19.5 -0.5q-52 6 -168.5 7.5t-243 -2t-208.5 -10.5q-38 -4 -58.5 -4t-31.5 4.5t-21 14.5q-16 17 -26.5 40.5t-9.5 39.5q7 49 125 69q190 34 414 10q70 -7 103.5 -11.5t48.5 -10.5t29 -16z" />
    <glyph glyph-name="period" unicode="." horiz-adv-x="417" 
d="M221 218v0q28 -1 61 -16.5t58 -40.5q14 -13 18 -22.5t1 -23.5q-5 -26 -27 -59.5t-44 -48.5q-23 -15 -42.5 -13t-43.5 21q-35 24 -46 45.5t-7 52.5q3 17 9.5 37t14.5 35q8 16 13.5 23t13 8.5t21.5 1.5z" />
    <glyph glyph-name="slash" unicode="/" horiz-adv-x="1282" 
d="M1125 1889v0q38 -20 70 -53.5t32 -68.5q-4 -28 -51 -127q-47 -98 -116 -265q-62 -152 -113 -275q-80 -190 -136 -340q-27 -73 -69 -184.5t-80 -211.5q-207 -538 -307 -862q-23 -75 -41 -129t-24 -63q-8 -20 -28.5 -29.5t-45 9.5t-46.5 85q-25 107 12 263
q69 282 250 797.5t353 920.5q120 279 185 406t94 139q12 6 25.5 3.5t35.5 -15.5z" />
    <glyph glyph-name="zero" unicode="0" horiz-adv-x="1176" 
d="M1093 744v0q28 -248 -27 -542q-50 -284 -234 -441q-104 -90 -237 -60q-99 23 -196.5 98.5t-153.5 172.5q-29 48 -44.5 87.5t-24 93.5t-17.5 148q-14 133 -12.5 201t19.5 169q39 215 160 445q116 215 225.5 284.5t233.5 6.5q20 -11 37.5 -21.5t23.5 -16.5q5 -6 18 -16
t27 -20t26.5 -21t17.5 -18q10 -15 28 -51.5t35 -75.5t26 -63q21 -68 40.5 -168t28.5 -192zM873 121v0q124 319 97 612q-10 168 -55 336q-10 39 -29.5 88.5t-38 87t-25.5 39.5q-13 -4 -49 -55t-80.5 -126t-81.5 -150q-143 -294 -173 -567q-4 -40 -5.5 -69.5t1 -68t9.5 -106.5
q6 -64 10 -100t9 -55t12 -34q29 -67 69 -108q13 -14 22 -16t30 4q14 3 35 12t39 20q63 38 119.5 108.5t84.5 147.5z" />
    <glyph glyph-name="one" unicode="1" horiz-adv-x="743" 
d="M620 1399v0q44 -33 56 -97.5t3 -213.5q-4 -63 -8 -122.5t-8 -88.5q-2 -19 -6 -63q-10 -92 -22 -215q-10 -92 -21 -183t-17 -139q-40 -277 10 -498q7 -28 8 -42.5t-4 -23.5q-6 -15 -16.5 -16t-37.5 12q-142 68 -198 315q-19 84 -23.5 175.5t3.5 251.5q7 164 18.5 260
t36.5 205q10 45 16.5 76.5t6.5 32.5q-2 1 -15 -15t-32 -41q-45 -60 -78.5 -76t-73.5 4q-13 6 -30 20.5t-29.5 29t-13.5 22.5q1 3 14.5 20t33.5 39q69 73 145 165t124 159q25 36 39.5 54t22.5 23.5t16 4.5q40 2 80 -35z" />
    <glyph glyph-name="two" unicode="2" horiz-adv-x="1367" 
d="M1245 20v0q67 -63 44 -88q-6 -8 -14 -9t-25 4.5t-48 19.5q-26 12 -41.5 17t-32.5 5.5t-49 -1.5q-213 -13 -425 -128q-82 -44 -168 -85.5t-138 -62.5q-36 -14 -61 -15.5t-48 8.5q-10 5 -26.5 17t-32.5 26q-20 19 -27.5 31t-7.5 24q0 8 3.5 15t13.5 15.5t31 22.5
q49 35 159 137.5t204 201.5q269 275 381 562q59 141 74.5 267.5t-14.5 205.5q-5 13 -9.5 19t-13.5 8.5t-27 4.5q-86 10 -200.5 -23.5t-217.5 -98.5q-55 -35 -115 -91t-93 -101q-25 -39 -42 -42.5t-48 21.5q-82 62 -12 199q15 28 35 53.5t59 62.5q210 200 464 203
q64 1 108.5 -8.5t98.5 -36.5q156 -75 230 -220q24 -48 35.5 -94t13.5 -110q13 -259 -187 -552q-43 -63 -89 -116t-117 -122q-42 -41 -54.5 -57t-2.5 -13q182 39 278 13q82 -21 154 -89z" />
    <glyph glyph-name="three" unicode="3" horiz-adv-x="1416" 
d="M1197 715v0q83 -75 123.5 -195.5t21.5 -236.5q-41 -225 -288 -438q-93 -76 -180 -123q-137 -73 -325 -60q-77 3 -122.5 14t-95.5 38q-94 52 -140 131t-25 151q12 33 41 39l29 -1q15 -5 29 -17q20 -19 36 -57.5t19 -73.5q1 -13 4.5 -25t8.5 -16q9 -9 94 -13q50 -3 79 -1.5
t59 9.5q163 39 306 165q154 150 216 302t41 305l-11 41l-63 3q-162 10 -357 -104q-39 -22 -70 -36.5t-40 -15.5q-43 4 -89 57q-22 24 -25.5 41t17 41t70.5 69q126 116 201 204t131 188q31 55 50 106.5t13 61.5q-4 4 -30.5 0.5t-62 -11.5t-65.5 -17q-96 -30 -206 -106
q-45 -32 -111 -91.5t-102 -100.5q-30 -39 -79 0q-84 62 -25 166q74 130 206 220t286 115q51 7 108.5 1t99.5 -23q40 -19 85 -57t67 -72q50 -84 38 -184q-3 -24 -10 -51t-14 -45q-16 -38 -53 -94.5t-70 -96.5l-30 -35l49 -2q47 -2 84 -18t77 -51z" />
    <glyph glyph-name="four" unicode="4" horiz-adv-x="1408" 
d="M1195 396v0q64 -7 110 -27.5t48 -42.5q0 -2 -7.5 -7.5t-19.5 -11.5q-25 -14 -108 -22q-34 -3 -58 -6.5t-27 -5.5q-8 -12 -17 -107.5t-12 -210.5q-7 -194 21 -380q3 -22 -8 -38t-29 -16q-8 0 -21 6.5t-26 16.5q-75 55 -109.5 188.5t-38.5 381.5q0 45 -2.5 74.5t-4.5 31.5
q-6 -1 -57 -18t-122.5 -41.5t-139 -48.5t-105.5 -38q-91 -36 -133.5 -47.5t-65.5 -6.5q-25 5 -56 26t-47 45q-9 14 -12 26.5t5.5 36t31.5 70t66 127.5q45 85 143.5 261t194 341t128.5 218q146 221 202 227q46 -4 96 -53l28 -30l13 36q12 34 24.5 45.5t33.5 5.5
q42 -10 76 -46.5t43 -80.5q20 -129 -32 -506q-22 -158 -34 -238t-18 -110l-5 -21zM992 1039v0q12 65 19.5 108.5t6.5 45.5l-7 -11.5t-16 -30.5q-10 -21 -49.5 -93.5t-88.5 -162.5q-84 -153 -158 -269t-196 -287q-39 -56 -67 -96t-31 -45q1 -8 207 62q90 31 161 54.5t90 29.5
l39 12l12 126q28 287 78 557z" />
    <glyph glyph-name="five" unicode="5" horiz-adv-x="1271" 
d="M1100 1430v0q116 -59 82 -115q-6 -11 -14 -14t-24 -3q-49 1 -159 -18.5t-224 -48.5q-32 -9 -54 -15.5t-24 -7.5q-1 -2 -10 -42.5t-21 -100.5q-38 -180 -91 -352q-2 -5 -0.5 -7.5t9.5 -2.5t24 2q17 2 48.5 7t62.5 11q42 8 75 10t78 0q51 -2 75 -7.5t56 -21.5
q90 -41 128.5 -108.5t37.5 -185.5q0 -67 -9 -123.5t-31 -123.5q-27 -84 -66 -145t-103 -119q-215 -193 -398 -233q-39 -7 -85.5 -8t-77.5 4q-48 9 -105.5 36t-93.5 57q-23 20 -32 40t0 32q10 11 38 9.5t62 -14.5q21 -9 39 -11t47 0q142 4 320 182q186 181 273 431
q16 46 20.5 70t1.5 58q-2 56 -16 78q-5 10 -10.5 14.5t-14.5 6t-27 1.5q-37 -1 -81.5 -10t-64.5 -21q-11 -6 -47.5 -22t-80.5 -34t-77 -29q-35 -13 -66.5 -9.5t-71.5 23.5q-83 40 -107 117.5t1 227.5q7 43 15.5 87.5t13.5 69.5q7 26 10 40.5t3.5 20.5t-2 7.5t-7.5 1.5
q-15 1 -40 15.5t-43 31.5q-30 31 -4.5 63t116.5 75q25 12 38.5 20t20.5 17.5t15 25.5q19 39 36 53.5t45 13.5q14 0 33 -4t34 -10l34 -15l68 17q69 17 113.5 25t99.5 13q66 6 114.5 -1.5t94.5 -31.5z" />
    <glyph glyph-name="six" unicode="6" horiz-adv-x="1432" 
d="M1295 1399v0q58 -29 70 -53.5t-28 -29.5q-62 -7 -119 -27.5t-134 -65.5q-247 -146 -434 -460l-47 -81l86 -6q251 -17 418 -182q171 -165 75 -408q-98 -241 -213 -348q-125 -111 -289 -64q-234 73 -364 274q-171 275 -78 568q40 125 117 274t163 265q210 279 487 361
q165 50 290 -17zM656 518v0q-54 -17 -107 -56.5t-66 -73.5q-50 -164 -22 -326q33 -164 113.5 -235.5t184.5 -30.5q40 17 91.5 64t84.5 95q111 169 105 341q0 116 -63 173q-29 29 -54.5 41.5t-70.5 19.5q-43 7 -96.5 3.5t-99.5 -15.5z" />
    <glyph glyph-name="seven" unicode="7" horiz-adv-x="1385" 
d="M1174 1426v0q49 -22 96 -67.5t57 -80.5q2 -8 2.5 -26t-1.5 -38q0 -49 -60 -159t-221 -360q-97 -150 -137 -218t-65 -126q-97 -217 -138 -417q-8 -40 -14.5 -100.5t-9.5 -114t0 -72.5q3 -33 -42 3q-23 20 -53 61t-47 76q-68 154 -40 351q18 111 63.5 260t105.5 292
q77 181 244 411q45 62 74.5 104t29.5 44q-4 1 -80 -11.5t-190 -31.5q-152 -27 -234.5 -39.5t-124 -14t-72.5 3.5q-30 4 -46.5 10.5t-35.5 21.5q-90 70 -46 97q36 16 137.5 37.5t204.5 35.5q62 8 130.5 17.5t111.5 15.5t109 14.5t125 16.5q62 8 93 11t45.5 1t28.5 -8z" />
    <glyph glyph-name="eight" unicode="8" horiz-adv-x="1174" 
d="M959 463v0q37 -34 76 -88.5t55 -93.5q17 -47 23 -115t-1 -122q-9 -55 -34.5 -114t-54.5 -96q-35 -41 -92.5 -83t-108.5 -63q-136 -56 -282 -29q-102 19 -211 80q-131 71 -170 210q-8 29 -11 89.5t-1 123t10 96.5q40 153 122 277.5t159 147.5l30 7l-64 53
q-231 191 -227 349q0 140 129 242q119 93 272.5 104.5t295.5 -61.5q179 -93 217 -245q14 -55 12 -130t-18 -138q-18 -65 -54.5 -155t-71.5 -154l-33 -61zM804 38v0q22 53 31 124.5t0 123.5q-8 46 -20 73t-24 25q-9 -2 -28.5 3.5t-38 15.5t-27.5 19q-8 11 -9 20t6 29l10 32
l-72 59l-73 59l-5 -20q-2 -10 -19 -41.5t-40 -69.5q-90 -150 -124 -260q-32 -118 -20.5 -244.5t59.5 -171.5q8 -7 15.5 -10t22.5 -3.5t44 0.5q65 2 100 17q64 25 122 85.5t90 134.5zM868 829v0q17 53 31.5 123.5t15.5 107.5q-1 73 -20.5 134.5t-53.5 94.5q-16 16 -29.5 22
t-40.5 8q-66 6 -136.5 -18t-114.5 -68q-43 -45 -72 -109t-31 -117q1 -32 15 -69t36 -66q13 -16 59.5 -56.5t104.5 -87.5q45 -35 72.5 -56.5t42.5 -31.5t21.5 -12t9.5 2q4 5 16 28.5t26 54.5t27.5 64t20.5 52z" />
    <glyph glyph-name="nine" unicode="9" horiz-adv-x="1237" 
d="M990 1370v0q133 -92 180 -362q7 -36 9.5 -64t1.5 -67.5t-4 -108.5q-13 -275 -77 -476q-35 -120 -72.5 -200t-106.5 -186q-33 -51 -55 -78t-49 -48q-159 -134 -338 -81q-74 22 -129.5 62.5t-56.5 71.5q3 36 74 13q36 -11 81 -14.5t73 2.5q57 14 122 62q76 62 148 235.5
t109 382.5q4 26 9 50.5t7 36.5q7 30 -25 -34q-13 -26 -35.5 -64t-44.5 -71q-87 -134 -182 -164q-30 -11 -48 -12t-51 5q-112 15 -205 124q-29 33 -45 59.5t-34 73.5q-101 258 -18 510q104 285 391 387q202 70 371 -45zM864 972v0q18 79 29.5 170t7.5 123l-3 15l-44 -16
q-152 -56 -263 -184.5t-159 -302.5q-53 -226 16 -376q9 -19 22.5 -22.5t43.5 6.5q104 40 214 224q45 78 76 160t60 203z" />
    <glyph glyph-name="colon" unicode=":" horiz-adv-x="416" 
d="M201 582v0q-34 25 -45 46t-7 53q2 16 9 36.5t14 35.5q9 16 14.5 23t12.5 8.5t22 0.5q28 -1 60.5 -16.5t57.5 -39.5q14 -13 18 -22.5t2 -23.5q-5 -27 -27 -60.5t-44 -47.5q-24 -15 -43.5 -13t-43.5 20zM221 426v0q28 -1 60.5 -16.5t57.5 -39.5q14 -13 18 -22.5t2 -23.5
q-5 -27 -27 -60.5t-44 -47.5q-24 -15 -43.5 -13t-43.5 20q-34 25 -45 46t-7 53q2 16 9 36.5t14 34.5q9 17 14.5 24t12.5 8.5t22 0.5z" />
    <glyph glyph-name="semicolon" unicode=";" horiz-adv-x="497" 
d="M276 582v0q-34 25 -45 46t-7 53q2 16 9 36.5t15 35.5q8 16 13.5 23t13 8.5t21.5 0.5q28 -1 60.5 -16.5t58.5 -39.5q14 -13 18 -22.5t1 -23.5q-5 -27 -27 -60.5t-44 -47.5q-23 -15 -43 -13t-44 20zM285 426v0q24 -2 58 -18t57 -36q32 -30 37 -72.5t-19 -77.5
q-17 -24 -53 -57.5t-66 -52.5q-92 -61 -138 -25q-16 11 -13.5 22.5t25.5 31.5q56 52 82 118.5t12 120.5q-3 10 -4.5 20t-1.5 15q0 8 4.5 10t19.5 1z" />
    <glyph glyph-name="less" unicode="&#x3c;" horiz-adv-x="807" 
d="M713 115v0q4 -9 11 -21.5t14 -22.5q9 -13 11.5 -24t1.5 -29q-2 -14 -4 -24.5t-5 -14.5q-3 -3 -13.5 -6.5t-24.5 -6.5q-15 -3 -24 -3t-17.5 4t-22.5 13q-13 8 -39.5 25t-52.5 34q-27 18 -75 46t-94 53q-97 52 -137 79t-56 51q-25 31 -33 64.5t-5 93.5q2 67 17.5 109
t52.5 82q45 49 132 111.5t185 116.5q109 60 150.5 64.5t50.5 -43.5q5 -25 -1 -66.5t-19 -64.5q-26 -48 -198 -171q-171 -124 -166 -135q2 -2 26 -18t59 -39q230 -154 276 -257z" />
    <glyph glyph-name="equal" unicode="=" horiz-adv-x="995" 
d="M867 772v0q34 -24 53.5 -54.5t17.5 -55.5q-1 -16 -5.5 -19.5t-19.5 -1.5q-52 7 -168.5 8.5t-243 -2t-208.5 -10.5q-38 -4 -58.5 -4.5t-31.5 4t-20 15.5q-16 17 -27 40.5t-10 39.5q7 49 125 69q190 33 415 9q69 -7 102.5 -11.5t48.5 -10t30 -16.5zM867 444v0
q34 -24 53.5 -54.5t17.5 -55.5q-1 -16 -5.5 -19.5t-19.5 -1.5q-52 7 -168.5 8t-243 -2t-208.5 -10q-38 -4 -58.5 -4.5t-31.5 4t-20 15.5q-16 17 -27 40.5t-10 39.5q7 48 125 69q190 33 415 9q69 -7 102.5 -11.5t48.5 -10t30 -16.5z" />
    <glyph glyph-name="greater" unicode="&#x3e;" horiz-adv-x="807" 
d="M672 697v0q71 -49 74 -159q6 -87 -27.5 -148t-130.5 -142q-80 -67 -184.5 -145.5t-149.5 -104.5q-15 -9 -26 -16t-13 -10q-6 -9 -16 -4.5t-20 20.5q-9 12 -11 26t0 44q2 67 56 138.5t206 205.5q45 39 75.5 67.5t30.5 30.5t-34 19t-83 40q-97 45 -170 90t-90 71
q-12 22 -13 63.5t9 68.5q9 19 28 31t41 12q29 0 121.5 -36.5t186.5 -82.5t140 -79z" />
    <glyph glyph-name="question" unicode="?" horiz-adv-x="1482" 
d="M403 -154v0q54 -5 107 -83q49 -68 32 -127q-5 -18 -21 -51t-34 -62.5t-29 -38.5q-14 -9 -44 0t-52 29q-26 27 -47 63.5t-28 68.5q-8 39 8 88.5t46 85.5q18 20 30 25.5t32 1.5zM998 1684v0q117 -27 199.5 -89t152.5 -176q77 -121 64 -229.5t-119 -224.5q-51 -59 -122 -106
t-200 -108q-120 -56 -184.5 -97t-101.5 -83q-20 -21 -33 -48t-27.5 -93.5t-41.5 -205.5q-22 -130 -24 -213q-1 -76 -14 -95q-38 -47 -80 -1q-57 62 -80.5 204.5t-0.5 295.5q13 79 37.5 136.5t68.5 113.5q21 27 43.5 48t66 50.5t127.5 82.5q135 86 207.5 144t127.5 125
q34 42 69 109.5t48 115.5q6 24 2.5 32t-22.5 16q-32 13 -98 14.5t-120 -8.5q-267 -54 -571 -335q-26 -24 -48.5 -41t-32.5 -20q-27 -6 -59.5 18.5t-56 63.5t-26.5 79q-4 73 83 179q84 102 197.5 188t217.5 126q187 75 351 32z" />
    <glyph glyph-name="at" unicode="@" horiz-adv-x="1642" 
d="M1424 1101v0q135 -172 157 -416q6 -58 4.5 -106t-11.5 -138q-7 -67 -16 -122.5t-18 -82.5q-70 -227 -161 -304q-20 -17 -36 -21.5t-51 -4.5q-105 0 -181.5 71.5t-111.5 199.5l-14 53l-13 -33q-5 -14 -18 -39.5t-28 -49.5q-44 -77 -101.5 -96t-142.5 15
q-100 41 -149.5 139.5t-39.5 237.5q13 139 77.5 264t145.5 168q67 31 147.5 10.5t137.5 -82.5l35 -39l16 43q39 100 89 103q31 3 65 -12t48 -37q5 -7 7 -20t2 -42t-3 -83t-8 -142q-6 -114 -9.5 -210.5t-2.5 -132.5q2 -59 7.5 -97.5t10.5 -39.5q7 1 24.5 26.5t36.5 60
t31 62.5q47 118 64.5 269t0.5 281q-12 73 -50.5 165.5t-81.5 151.5q-183 235 -495 52q-211 -136 -318 -427q-12 -32 -18.5 -78.5t-14.5 -149.5q-14 -172 -6 -220q24 -151 85 -280t141 -198q45 -39 82.5 -55.5t91.5 -21.5q78 -8 163.5 9.5t208.5 68.5q30 12 61.5 14.5
t49.5 -6.5q16 -7 13 -39q-1 -13 -4.5 -21.5t-13.5 -16.5t-32 -21q-21 -12 -58 -29t-74 -30q-52 -19 -87 -26t-96 -10q-100 -6 -152 5q-198 41 -348 194q-70 70 -112.5 143.5t-79.5 188.5q-125 402 53 750q53 97 131.5 189.5t150.5 142.5q51 33 109.5 61t105.5 40
q60 15 144.5 13.5t146.5 -17.5q202 -59 313 -195zM913 410v0l58 102l-14 55q-11 43 -24 74.5t-33 65.5l-19 31l-20 -24q-22 -28 -50.5 -99.5t-44.5 -140.5q-11 -53 -15.5 -119t-2 -115.5t12.5 -51.5q3 1 17.5 17.5t32.5 42.5q19 27 48 72.5t54 89.5z" />
    <glyph glyph-name="A" unicode="A" horiz-adv-x="2061" 
d="M2267 -741q-15 4 -45.5 15t-63.5 25q-214 90 -341.5 206t-237.5 323q-107 199 -222 547l-37 116l-46 -5q-49 -7 -125 -20t-138.5 -24.5t-72.5 -15.5q-16 -13 -76 -160q-224 -552 -502 -734q-76 -48 -154 -68.5t-122 -3.5q-53 26 -68.5 110.5t5.5 196t78 218.5
q146 260 496 417q32 13 47.5 21.5t22.5 17t12 21.5q15 37 48 127.5t68 190t56 162.5q18 55 37.5 110.5t30.5 87.5q12 32 30 87.5t34 109.5q56 192 102 262t124 80q25 5 42.5 3t49.5 -15q30 -12 43.5 -22t21.5 -28q38 -80 96.5 -309t108.5 -492q14 -74 25 -125t13 -55
q31 1 111 13t171 35.5t158 59.5q40 23 56 27t16 -11q4 -34 -110.5 -90.5t-389.5 -105.5l6 -27q32 -132 102 -342t120 -323q142 -298 354 -474q43 -33 92.5 -60.5t67.5 -28.5q16 1 19.5 -7.5t-7.5 -21.5q-15 -15 -45 -21t-61 0v0v0zM225 -438q125 92 257 396q27 62 60 143
t57 144t22 68q-2 1 -27 -12.5t-60 -34.5t-68 -43t-54 -37q-218 -167 -282 -431q-19 -84 -7.5 -155.5t44.5 -74.5q6 1 22.5 11.5t35.5 25.5v0v0zM1011 526q24 4 70.5 11.5t95.5 14.5q48 8 80.5 13.5t35.5 6.5q0 3 -7.5 38.5t-19.5 87.5q-13 54 -29.5 130t-28.5 140
q-13 63 -22.5 108.5t-12.5 52.5q-6 16 -54 -143q-21 -67 -49.5 -152.5t-50.5 -149.5q-23 -62 -39 -106t-18 -50q-3 -7 7 -7.5t42 5.5v0v0z" />
    <glyph glyph-name="B" unicode="B" horiz-adv-x="2211" 
d="M790 -576q-109 43 -74 145q22 66 105.5 163t187.5 178q104 79 223 141.5t328 145.5q20 10 35.5 53.5t22 99t-1.5 100.5q-21 93 -84 134q-15 9 -24.5 12.5t-22.5 2.5t-39 -4q-23 -4 -66 -16t-85 -27q-59 -21 -87.5 -27t-55.5 -3q-20 1 -30 0.5t-13.5 -3.5t-5.5 -11
q-18 -83 -33.5 -182.5t-21.5 -178.5q-4 -59 -34 -56q-96 3 -150 130q-96 222 -75 551q27 393 96 508q24 45 55 60.5t87 10.5q68 -4 101.5 -30t44.5 -83q8 -40 1 -150t-27 -258q-7 -51 -11 -85.5t-2 -36.5q3 -1 34.5 23.5t75.5 61t84.5 71.5t61.5 55q203 201 196 363
q1 36 -3 57.5t-15 46.5q-62 153 -219 138q-244 -19 -552 -151q-276 -116 -480 -318q-68 -66 -121 -133t-67 -107q-4 -11 -10 -18t-12 -7q-66 -3 -94 57q-9 18 -11 35t2 46q11 132 109.5 244t311.5 237q366 217 731 264q43 6 74.5 8t70.5 0.5t106 -6.5q65 -5 102.5 -9
t61 -9.5t48.5 -14.5q259 -91 309 -295q66 -293 -340 -582l-79 -54l63 -10q111 -19 194 -71q36 -25 72 -69.5t52 -85.5q13 -38 16 -91t-5 -100l-6 -32l120 -3q82 -2 125.5 -4.5t62 -7t24.5 -12.5q11 -11 6 -17.5t-32 -12.5t-84 -13q-145 -18 -202.5 -27t-58.5 -12
q-2 -3 -8.5 -16t-14.5 -30q-81 -165 -238 -334t-317 -263q-44 -24 -104.5 -47.5t-111.5 -36.5q-69 -17 -146.5 -14.5t-125.5 22.5v0v0zM1001 -447q86 45 180.5 126t169.5 172q29 35 57.5 74t46.5 67.5t17 32.5q-4 2 -33 -12t-68.5 -37.5t-75.5 -46.5q-242 -169 -335 -330
q-33 -59 -24.5 -68.5t65.5 22.5v0v0z" />
    <glyph glyph-name="C" unicode="C" horiz-adv-x="1323" 
d="M602 -585q-250 34 -418 305q-79 124 -116 247t-47 291q-21 350 59 650q62 215 202 418t279 277q191 91 428 1q78 -29 128 -84.5t89 -157.5q13 -30 19.5 -53.5t10 -57.5t7.5 -97q5 -61 6 -96t-2.5 -60.5t-11.5 -61.5q-20 -85 -58 -171t-71 -121q-32 -31 -57 -32
q-54 0 -28 47q24 36 47.5 101.5t38.5 136.5q13 59 15.5 98.5t-2.5 108.5q-5 90 -20.5 148t-50.5 119q-25 45 -60.5 86.5t-56.5 52.5q-45 14 -131 -96.5t-175 -295.5q-182 -400 -246 -879q-8 -73 -2.5 -172t20.5 -160q25 -89 76 -198.5t93 -165.5q25 -34 53 -43.5t80 -1.5
q169 23 321 182.5t263 429.5q36 91 57 121t45 24q28 -3 24 -43.5t-42 -135.5q-116 -292 -283.5 -463t-366.5 -199l-57 -3q-30 0 -59 4v0v0z" />
    <glyph glyph-name="D" unicode="D" horiz-adv-x="2009" 
d="M665 -555q-71 38 -50 122q17 65 83 146t154 144q128 91 387 148q9 4 37.5 50.5t62.5 112t61 125.5q85 197 113 384q11 93 3.5 241t-27.5 225q-55 174 -146 263q-128 108 -354 80q-379 -54 -762 -403q-34 -31 -61 -53t-34 -27q-7 -3 -22.5 -4.5t-31.5 -1.5q-24 1 -35 6.5
t-23 21.5q-12 15 -16 26.5t-2 28.5q15 111 142.5 229t339.5 216q260 117 525 127t477 -89q283 -134 359 -469q16 -74 17.5 -185.5t-11.5 -195.5q-47 -285 -200 -537q-22 -38 -37 -64t-15 -27l10.5 2.5t25.5 6t30.5 7.5t25.5 6q28 8 50 5.5t18 -21.5v-1q0 -4 -5 -12.5
t-17 -17.5t-35 -15l-159 -42l-49 -65q-156 -204 -315.5 -339t-290.5 -172q-51 -13 -117.5 -7.5t-105.5 25.5v0v0zM938 -351q31 26 76.5 72t81.5 86.5t38 48.5q-3 6 -42 -12t-88 -49q-69 -45 -130 -117.5t-63 -112.5q7 -15 127 84v0v0zM801 13q-26 20 -55.5 74.5t-46.5 112.5
q-13 50 -21 161.5t-9 235t6 209.5q20 222 40.5 332.5t53.5 142.5t90 18q84 -16 112 -69q13 -31 20 -135t4 -218q-3 -92 -11.5 -230t-18.5 -263t-17 -178q-5 -36 -12 -70t-12 -51q-5 -15 -10 -33t-8 -30q-2 -14 -5 -20t-11.5 -7t-26.5 0q-39 0 -62 18v0v0z" />
    <glyph glyph-name="E" unicode="E" horiz-adv-x="1326" 
d="M439 -569q-105 17 -196 69q-211 124 -226 376q-17 343 276 674q31 35 51 58t20 24q-1 0 -23 5q-10 2 -23 4q-152 29 -222 134q-19 28 -25.5 48.5t-11.5 59.5q-7 57 -0.5 105.5t28.5 108.5q47 124 130.5 238.5t173.5 180.5q124 86 269 121t267.5 17.5t178.5 -90.5
q42 -56 37 -145q-8 -117 -64 -219.5t-136 -145.5q-22 -12 -41.5 -16.5t-48.5 -4.5q-64 1 -81 17t19 41q62 45 99.5 150t28.5 209q-6 57 -22 81t-49 26q-28 0 -89.5 -21t-106.5 -47q-105 -64 -187.5 -192.5t-118.5 -285.5q-10 -40 -2 -107q5 -41 11 -60t20 -38
q21 -29 45.5 -40.5t65.5 -11.5q18 0 34 3.5t39.5 14t64.5 31.5q97 50 166.5 69.5t152.5 20.5q54 1 80.5 -1.5t45.5 -10.5q26 -10 35 -22t9 -37q3 -23 -16 -31q-72 -37 -220 -86q-83 -26 -126 -52.5t-104 -88.5q-86 -88 -167 -234t-115 -273q-22 -92 -16.5 -189.5
t35.5 -169.5q32 -67 82.5 -107.5t102.5 -41.5q55 1 125 29.5t134 76.5q49 37 109.5 94.5t94.5 99.5q229 300 318 606q20 79 36 105t43 24q9 0 18 -3t14 -8q5 -4 6.5 -9t-1 -17.5t-11 -39t-23.5 -73.5q-12 -39 -26.5 -84.5t-23.5 -77.5q-73 -239 -209.5 -457t-264.5 -299
q-101 -59 -218 -81q-51 -9 -125 -10t-126 6v0v0z" />
    <glyph glyph-name="F" unicode="F" horiz-adv-x="1467" 
d="M703 -590q-62 34 -106 169q-20 67 -42 166.5t-32 169.5q-3 32 -10 47.5t-25 31.5q-34 33 -88.5 69t-150.5 90q-107 59 -161 95.5t-71 64t-11 59.5q4 44 56.5 83t170.5 85q61 24 129 45t96 24l22 1l5 89q3 39 12.5 125t21.5 178l30 216l-26 -8q-43 -15 -108 -41t-120 -50
q-30 -13 -58.5 -22.5t-41.5 -10.5q-29 -1 -64 16.5t-58 44.5q-15 17 -19 29.5t0 33.5q13 90 141 169t344 132q24 6 42 11t23 8q4 2 9.5 15.5t10.5 31.5q17 74 49 98t98 13q98 -13 109 -85q7 -32 17 -32q16 3 83 7t143 7t119 3q91 -2 213 -21t178 -40q139 -56 209 -140
q20 -24 33.5 -43t13.5 -24q-6 -25 -73 1q-39 16 -160 31q-73 10 -125.5 11.5t-140.5 -4.5q-249 -14 -422 -44l-97 -15l-10 -80q-5 -40 -14.5 -128.5t-18.5 -187t-15.5 -169.5t-5.5 -76q2 -1 26.5 -2t59.5 -1q80 2 289 -30q155 -22 212.5 -37t58.5 -34q10 -33 -73 -26
q-82 4 -240 2.5t-249 -7.5l-101 -8l-5 -80q-6 -97 -11 -220.5t-6 -211.5q-1 -58 2 -85.5t12 -44.5q2 -5 6 -11q7 -15 17.5 -35.5t19.5 -40.5q56 -115 72.5 -218t-12.5 -149q-22 -28 -75.5 -31t-106.5 21v0v0zM488 168q-3 29 -5 89.5t-3 115t0 65.5q1 8 -1 14t-7 7
q-4 0 -32.5 -7.5t-66.5 -19.5q-156 -51 -171 -100q-1 -8 2.5 -15t17 -17t41 -26t74.5 -43q38 -21 70.5 -40t44.5 -27q25 -17 31.5 -16t4.5 20v0v0z" />
    <glyph glyph-name="G" unicode="G" horiz-adv-x="1566" 
d="M1212 -658q-45 15 -72 41.5t-49 77.5q-74 169 -68 455l2 90l-57 -121q-155 -345 -323 -394q-149 -48 -324 47q-147 82 -227 269t-89 447q-5 155 31.5 354t101.5 373q137 345 370 551q87 76 163.5 96t194.5 -10q113 -27 190 -96q44 -38 75 -79t59 -99q63 -134 68.5 -248.5
t-48.5 -185.5q-45 -61 -101 -42q-32 8 -44.5 33.5t-14.5 83.5q-11 214 -116 386q-24 38 -52.5 70.5t-39.5 35.5q-12 -1 -48 -34t-74 -78q-217 -272 -322 -684q-41 -177 -59.5 -358t-7.5 -310q27 -260 116 -377l25 -32l43 17q20 8 46.5 24.5t47.5 33.5q63 52 142.5 144
t135.5 177q11 16 36.5 61.5t55 99t50.5 93t22 44.5q1 4 -11 2t-45 -13t-95 -33q-58 -20 -106 -35.5t-63 -18.5q-34 -7 -71 1t-58 27l-21 20l19 26q35 45 164.5 115.5t253.5 106.5q157 44 291 42q4 -1 7 -1q27 1 52.5 -3.5t39 -23t3.5 -60.5q-14 -39 -40.5 -55t-45.5 -18
l-43 -8l8 -40q8 -45 -2 -258q-14 -294 -12.5 -429t21.5 -221q6 -31 9 -54.5t1 -28.5q-3 -6 -19.5 -7t-37.5 2t-38 9v0v0z" />
    <glyph glyph-name="H" unicode="H" horiz-adv-x="1677" 
d="M1351 -576q-125 86 -196 238q-35 75 -56 140t-48 182q-51 217 -65 421q-2 41 -4.5 69.5t-4.5 30.5q-3 2 -37 -8t-82 -27t-94 -37t-73 -37l-67 -44l-5 -52q-2 -25 -5 -87.5t-6 -134.5q-5 -141 -19.5 -229.5t-48.5 -180.5q-80 -222 -212 -251q-42 -8 -85.5 -7t-70.5 10
q-142 57 -167 230q-5 51 4 119t26 120q64 168 242 359l39 41l-6 110q-3 48 -8.5 135t-11.5 171q-46 660 -9 846q26 116 149 113q49 1 65.5 -19t25.5 -92q5 -34 10.5 -97.5t9.5 -126.5q4 -64 12.5 -163.5t18.5 -188.5q9 -89 18 -181.5t13 -145.5q4 -52 7.5 -88t5.5 -39l14 4
t37 12q51 17 116.5 37.5t108.5 28.5q32 8 50 15t26 12.5t10.5 10.5t2.5 10v1q1 12 4 79q1 38 3 82q13 275 79.5 511t158.5 337q12 11 31 23.5t37 20.5q26 12 46.5 14.5t60.5 -2.5q29 -2 43.5 -5t21.5 -8t14 -16q11 -15 12.5 -40t-8.5 -75t-33 -137q-76 -288 -121 -559
q-14 -85 -23 -136q-1 -7 -2 -13q20 2 43 5l12 2q27 5 49 10q74 16 106 18.5t22 -17.5q-7 -19 -48.5 -46t-134.5 -58l-62 -22q-7 -65 -17 -174q-30 -301 10 -561q16 -106 36 -178.5t58 -158.5q42 -101 97 -142q10 -7 10 -10.5t-12 -10.5q-19 -13 -47.5 -5t-75.5 42v0v0z
M258 -478q5 6 13 25t16 41q8 23 16 60t14 70q5 39 9 104t5 124t-3 84q-2 10 -4 12t-8.5 -7.5t-19.5 -32.5q-97 -168 -102 -319q-2 -85 36 -145q8 -13 12 -18t7.5 -4.5t8.5 6.5v0v0z" />
    <glyph glyph-name="I" unicode="I" horiz-adv-x="941" 
d="M225 -557q-30 11 -50.5 31t-21.5 37q3 35 62 73t146 61q32 8 44 14t10 13q-6 25 -13.5 115t-13.5 206q-8 198 -1 490t26 485l9 82l-28 74q-28 74 -76.5 162t-95.5 149l-46 59l-44 3q-73 8 -102.5 45.5t9.5 71.5q26 18 72 14t80 -27l31 -22l83 21q212 56 306 72t169 8
q76 -5 117.5 -20.5t72.5 -50.5q15 -16 21 -24t5 -11.5t-8 -6.5q-14 -8 -47 3q-21 7 -71.5 13.5t-98.5 9.5t-65 0q-9 -2 -13 -5.5t-3.5 -16t3.5 -39.5q12 -92 -17 -386q-8 -89 -16.5 -185.5t-24.5 -282.5q-1 -24 2.5 -88t12.5 -149q22 -222 29.5 -348.5t6.5 -259.5v-180
l55 -18q24 -7 47 -17t34 -17q28 -20 50.5 -49t21.5 -45q-3 -17 -23.5 -21.5t-46.5 6.5q-16 8 -36 8.5t-61 -3.5q-30 -4 -59.5 -9t-43.5 -9q-15 -4 -40 -9t-49 -9q-24 -3 -64.5 -9t-78.5 -13q-48 -8 -76 -10.5t-47.5 1t-43.5 13.5v0v0zM452 1266l16 100q7 43 14 81.5t11 54.5
q4 15 5 26.5t-1 13.5t-25.5 -2t-56.5 -12q-29 -7 -55 -13l-39 -9q-4 -1 -6 -1l-21 -3l48 -62q20 -26 42.5 -59.5t35.5 -57.5l32 -57v0v0z" />
    <glyph glyph-name="J" unicode="J" horiz-adv-x="1560" 
d="M416 -558q-53 16 -113.5 46.5t-100.5 61.5q-43 33 -88.5 94t-70.5 118q-46 101 -34 255q4 79 20.5 138.5t50.5 122.5q104 196 317 333q214 140 405 121q36 -3 67.5 -7.5t44.5 -8.5q40 -17 52 -45t-14 -43q-8 -4 -37 -5t-65 0q-52 2 -81 -1.5t-67 -17.5
q-130 -46 -243.5 -141t-178.5 -212q-112 -223 -47 -432q59 -171 199 -249q34 -19 57.5 -26t63.5 -10q39 -3 61 0t49 16q98 46 186.5 165t150.5 287q121 342 107 683q-1 23 -3 52q-3 81 -7 148q-6 151 -1 481q1 97 -6 100q-8 0 -35 -11t-62 -28t-67 -35q-34 -20 -55 -26
t-52 -5q-97 2 -105 54q1 40 63.5 92.5t151.5 88.5q119 43 259.5 58.5t252.5 2.5t146 -55q24 -34 -15 -61q-10 -8 -38.5 -13t-85.5 -8q-46 -2 -73 -4t-39.5 -4.5t-15 -7t0.5 -11.5q37 -127 37 -368q0 -36 2 -114t5 -162q9 -228 -7 -388.5t-67 -334.5q-72 -250 -193 -427
q-78 -108 -189.5 -182.5t-224.5 -94.5q-52 -7 -133 -1t-135 21v0v0z" />
    <glyph glyph-name="K" unicode="K" horiz-adv-x="1128" 
d="M216 -528q-85 44 -134 289q-28 148 -51 407.5t-27 476.5q-4 191 18 354t84 403q30 128 61 164.5t105 28.5q53 -1 78.5 -16.5t36.5 -52.5q12 -46 8 -170.5t-24 -287.5q-10 -83 -19 -159t-12 -110q-3 -33 -7 -65.5t-6 -49.5l-7 -39l40 21q252 140 415 386q43 70 113.5 222
t137.5 323q23 59 45.5 84t54.5 27q34 3 60.5 -7.5t35.5 -30.5q30 -75 -73 -364q-90 -265 -310 -477q-63 -61 -146 -122.5t-146 -93.5l-49 -25l62 -17q198 -57 275 -217q54 -113 110 -304q125 -416 229 -420q77 -3 94.5 -34t-48.5 -49q-54 -6 -121 0.5t-114 22.5
q-132 41 -209.5 164.5t-141.5 393.5q-46 202 -103 280t-165 89l-55 7l-7 -23q-2 -12 -7.5 -87.5t-11.5 -178.5q-12 -187 -9.5 -293t22.5 -248q6 -49 9.5 -94t3.5 -65q-1 -20 -2.5 -30t-6 -14.5t-14.5 -7.5q-20 -7 -35.5 -5.5t-36.5 14.5v0v0z" />
    <glyph glyph-name="L" unicode="L" horiz-adv-x="894" 
d="M936 -602q-190 11 -351 75q-100 37 -154 40t-91 -26q-49 -32 -112.5 -25.5t-108.5 48.5q-32 35 9 58q24 14 55 76t50 133q31 107 30.5 245t-33.5 434l-9 83l-67 28q-53 22 -91 51t-50.5 52.5t12.5 30.5q43 9 99 -28q31 -22 56 -18l26 3l-3 80q-4 134 7 291t31 253
q35 150 94 257.5t117 128.5q54 16 123 -4t114 -63q86 -98 99 -291q13 -303 -156 -563l-42 -66l-2 -115q-8 -437 -53 -670q-22 -113 -49 -184q-7 -12 -4 -16t23 -9q13 -3 45 -13.5t68 -23.5q70 -26 120 -37.5t106 -13.5q188 -14 394 118q37 27 52.5 53.5t22.5 48.5
q5 17 12 27t22 11q20 -1 43 -30t32 -77.5t-14 -106.5q-12 -35 -67 -93t-156 -104.5t-249 -47.5v0v0zM581 1093l11 33q5 15 10.5 40.5t9.5 49.5q8 55 -5 161q-6 44 -11 72t-6 27q-10 -12 -15 -65t-5.5 -122.5t5.5 -131.5l6 -64v0v0z" />
    <glyph glyph-name="M" unicode="M" horiz-adv-x="2296" 
d="M2342 -606q-163 58 -302 222.5t-232 408.5q-29 83 -66.5 218t-51.5 214q-27 170 -29 415.5t22 401.5l6 33l-25 -25q-33 -35 -72.5 -91.5t-66.5 -106.5q-90 -161 -219 -807q-39 -192 -63 -296t-41 -147.5t-34 -54.5q-35 -20 -97.5 7.5t-107.5 82.5q-99 136 -159 454
q-26 144 -36 288t-12 394l-2 318l-22 -37q-39 -75 -96 -255.5t-90 -333.5q-40 -183 -60 -451q-15 -188 -25.5 -304t-18.5 -178t-15 -87.5t-17 -31.5q-15 -10 -47.5 -10t-63.5 11q-37 14 -77 42.5t-61 56.5q-107 144 -144 430q-15 132 -16 420.5t13 531.5q10 161 26 293.5
t28 153.5q11 12 44 7t71 -24q40 -21 62.5 -43t40.5 -59q5 -9 8 -25t5 -52.5t2.5 -107t0.5 -190v-301.5q-1 -271 0.5 -459t4.5 -206q5 -16 13.5 23t25.5 154q25 175 52 299.5t80 309.5q63 222 124.5 385t97.5 204q31 30 90 16.5t129 -66.5q51 -40 99 -111t74 -145
q21 -58 31 -120.5t13 -179.5t3 -337v-418l18 76q72 310 115 481t76.5 271t76.5 197q49 113 86 180.5t78 116.5q58 75 128 71q68 -3 151.5 -55t116.5 -112q66 -135 17 -443q-26 -186 -3 -467.5t81 -494.5q30 -99 76.5 -204t86.5 -160q43 -58 84 -98.5t63 -44.5q7 -1 17 -2.5
t20 -3.5q5 -1 9 -1q25 -5 36 -18.5t0 -26.5q-14 -11 -52.5 -10t-77.5 14v0v0z" />
    <glyph glyph-name="N" unicode="N" horiz-adv-x="1408" 
d="M1476 -562q-65 31 -116.5 67.5t-123.5 104.5q-227 204 -320 472q-143 385 -74 982q18 161 22 260.5t-8 102.5q-29 -2 -80.5 -44.5t-94.5 -99.5q-99 -139 -167.5 -419t-89.5 -629q-28 -459 -59 -526q-11 -13 -45 -7.5t-70 25.5q-85 47 -134 182q-85 237 -111 914
q-5 138 1.5 259.5t27.5 272.5q14 104 24.5 154t25.5 65.5t43 13.5q31 -1 66 -21.5t57 -50.5q7 -11 17.5 -38t18.5 -57q8 -24 12 -48.5t6 -76.5t2 -158.5v-293.5q-1 -216 1 -385t5 -212l6 -90l20 209q24 273 62 468.5t108 401.5q30 92 65 150.5t89 107.5q37 34 59.5 48
t52.5 21q85 26 176 -19q98 -44 145 -111.5t73 -201.5q25 -152 -10 -478q-15 -149 -14 -358.5t17 -300.5q26 -121 76.5 -241t109.5 -201q62 -81 131.5 -137t120.5 -64q57 -9 25 -31q-46 -29 -148 18v0v0z" />
    <glyph glyph-name="O" unicode="O" 
d="M972 -563q-101 9 -221 79q-60 33 -96 61t-72 67q-13 15 -22.5 26t-11.5 12q-1 1 -7 -4t-13 -14q-22 -26 -49 -25t-78 30q-192 110 -290 270q-97 176 -108 396q-4 189 55 414.5t162 414.5q37 65 99 148.5t112 138.5q107 110 249.5 162t275.5 30q54 -10 102.5 -28.5
t109.5 -51.5q185 -99 277.5 -257t123.5 -428q20 -152 18 -284.5t-25 -292.5q-73 -517 -321 -761q-120 -111 -270 -103v0v0zM971 -355q82 50 172.5 162.5t138.5 225.5q179 438 138 885q-11 101 -42.5 218t-64.5 178q-55 102 -147 156q-106 67 -193.5 63t-190.5 -83
q-35 -25 -58 -50t-53 -71q-170 -249 -267 -627q-72 -271 -87.5 -450t20.5 -321q13 -56 33 -94t58 -80q12 -13 19.5 -19t17.5 -7.5t29 -0.5h21l-28 49q-27 49 -58 157q-42 147 -47 284t26 311q17 95 52.5 227.5t60.5 196.5q93 213 210 232q54 3 106.5 -27t64.5 -71
q5 -14 -2.5 -39.5t-30.5 -79.5q-38 -85 -62.5 -165t-54.5 -219q-89 -389 -62 -625q18 -209 100 -304q34 -44 75.5 -46.5t105.5 34.5v0v0z" />
    <glyph glyph-name="P" unicode="P" horiz-adv-x="1837" 
d="M648 -598q-254 256 -240 879q3 140 16 254.5t43 273.5q36 199 69 299t72 130q15 12 27 14t37 -4q137 -37 139 -231q-2 -31 -16.5 -159.5t-35.5 -293.5t-33.5 -275.5t-10.5 -114.5q12 0 63.5 29t115.5 70t112 77q173 128 291 296q142 200 177 379.5t-42 318.5
q-69 134 -281 161q-393 57 -701 -256q-62 -64 -132.5 -169t-129.5 -222q-50 -99 -63.5 -149.5t-5.5 -108.5q5 -43 14.5 -65t29.5 -35q9 -6 14.5 -14.5t5.5 -15.5q-1 -24 -22.5 -20t-49 27.5t-47.5 58.5q-21 36 -33 84t-22 129q-9 82 3 174t42 164q111 266 348 445
q197 158 431 174q37 4 81.5 0.5t126.5 -15.5q64 -9 98.5 -15.5t57.5 -14.5t52 -22q170 -78 293 -236q127 -166 147 -360q3 -61 -9.5 -148.5t-34.5 -153.5q-77 -211 -251 -401q-64 -64 -192 -159.5t-207 -138.5q-67 -34 -138.5 -59t-117.5 -30q-26 -3 -34.5 -8t-9.5 -19
q-2 -21 -1 -96.5t5 -157t8 -120.5q14 -114 11 -158q-2 -23 -22 -20.5t-48 28.5v0v0z" />
    <glyph glyph-name="Q" unicode="Q" 
d="M177 -692q-56 53 56 139q48 37 123 72.5t133 50.5l39 9l-42 21q-57 29 -127 81.5t-110 96.5q-136 155 -192.5 343.5t-25.5 384.5q33 181 135 416.5t218 393.5q289 380 646 444q69 10 145 0.5t126 -34.5q41 -23 66 -47.5t24 -41.5q-9 -18 -146 -93q-118 -63 -208.5 -134
t-194.5 -182q-342 -366 -473 -796q-54 -196 -23 -397t130 -300q25 -23 41.5 -30t53.5 -9q121 -6 261 64t262 199q126 131 196.5 300t115.5 446q30 169 29.5 258.5t-31.5 185.5q-10 35 -16.5 51.5t-14 21.5t-18.5 5q-57 -1 -181 -96q-176 -146 -248 -466
q-21 -91 -17.5 -142.5t33.5 -108.5q29 -61 -10 -51t-120 84q-166 158 -107 401q52 195 176.5 327t291.5 167q54 9 111.5 2.5t94.5 -27.5q83 -45 125 -125t57 -220q8 -68 -8.5 -191.5t-50.5 -264.5q-50 -207 -95.5 -328.5t-115.5 -235.5q-138 -237 -349 -337l-77 -39l79 -16
q35 -7 107.5 -24.5t147.5 -36.5q195 -53 313 -59t330 25q65 8 78.5 -16.5t-33.5 -64.5q-57 -48 -173 -63q-77 -11 -155 -6t-186 27q-58 12 -147 27t-167 25q-145 19 -241 21t-184 -13q-28 -4 -59.5 -12.5t-88.5 -27.5t-163 -56q-34 -12 -62.5 -19t-38.5 -6q-9 1 -21.5 9
t-23.5 18v0v0z" />
    <glyph glyph-name="R" unicode="R" horiz-adv-x="2139" 
d="M1048 -603q-33 18 -78.5 78.5t-71.5 119.5q-32 82 -59 228t-34 275q-5 76 -0.5 169.5t22.5 282.5q21 243 45 380.5t72 296.5q32 113 58.5 154.5t64.5 39.5q22 1 38 -7t40 -31q51 -46 63 -99t0 -176q-6 -64 -15.5 -139t-18.5 -126q-8 -53 -20 -145.5t-23 -181.5l-22 -209
l31 16q262 129 436 454q64 116 92 195.5t34 165.5q4 50 4.5 76t-5.5 46t-21 51q-27 64 -72 96.5t-133 51.5q-296 77 -624 -98q-238 -128 -383.5 -339.5t-146.5 -432.5q1 -35 3 -53.5t9.5 -30.5t23.5 -28q15 -16 32.5 -32t29.5 -25q36 -30 28 -46t-41.5 -13t-74.5 30
q-55 42 -126 115.5t-99 117.5q-106 189 -30 403t322 417q132 106 312 178.5t349 88.5q78 5 183 -6.5t179 -33.5q166 -53 298.5 -171t199.5 -271q39 -91 49.5 -155.5t2.5 -160.5q-26 -268 -191 -492t-404 -315q-33 -12 -63 -21t-44 -10q-14 -2 -23 -5t-9 -6q1 -4 31 -37.5
t76 -80.5q119 -123 243 -211.5t199 -105.5q16 -4 27 -3t23 9.5t32 27.5q20 18 37 39t23 35q17 36 32 28.5t20 -54.5q14 -101 -50 -141q-124 -77 -362 10q-189 71 -394 291l-78 83l-5 -57q-5 -86 -2 -197.5t13 -186.5q6 -43 8 -64t-1 -30t-11 -17q-10 -8 -16 -11.5t-13 -1.5
t-21 8v0v0z" />
    <glyph glyph-name="S" unicode="S" horiz-adv-x="1595" 
d="M405 -525q-98 55 -161 153q-62 99 -82 191t13 126q10 9 24 25.5t26 34.5q16 23 25.5 32.5t17.5 9.5t20 -8q50 -30 22 -126q-6 -23 -10.5 -46.5t-5.5 -35.5l-1 -28l51 -13q93 -27 231 34q68 31 161 94t167 128q31 28 75.5 75.5t87.5 98t71 87t27 42.5q-10 10 -90.5 36
t-183.5 55t-183 47q-219 46 -326 84.5t-169 92.5q-94 83 -153 225.5t-45 253.5q27 154 185 303q111 102 283.5 170t351.5 82q180 9 321 -55q113 -57 202 -177.5t124 -264.5q21 -96 1.5 -174t-72.5 -109q-94 -47 -147 59q-14 31 -14 65.5t15 85.5q6 22 12 46.5t9 40.5
q3 15 3 23.5t-3.5 11.5t-13.5 6q-28 8 -99 8.5t-125 -6.5q-143 -24 -308 -99t-280 -168q-66 -56 -105 -98t-34 -52q11 -19 116.5 -61.5t368.5 -134.5q394 -138 417 -157q78 -55 126.5 -175t38.5 -232q-15 -110 -94.5 -239.5t-192.5 -230.5q-75 -63 -194 -115t-226 -69
q-84 -13 -145.5 -2t-129.5 50v0v0z" />
    <glyph glyph-name="T" unicode="T" horiz-adv-x="1510" 
d="M1211 -567q-57 58 -120.5 183.5t-106.5 262.5q-46 155 -71.5 352t-21.5 364q13 320 97 649q9 33 14.5 57.5t5.5 28.5q1 6 -13 6t-49 -7t-98 -23q-114 -26 -211.5 -68t-237.5 -125q-137 -82 -197.5 -89.5t-105.5 51.5q-96 110 -50 205q19 35 84.5 90.5t136.5 97.5
q342 189 852 186q122 -1 222.5 -14t221.5 -42q251 -58 380 -143q119 -74 56 -124q-48 -52 -103 -42q-78 18 -160 33t-130 21q-54 6 -124.5 10.5t-124.5 6.5t-61 -1q-1 -2 -0.5 -26.5t3.5 -60.5q3 -43 -0.5 -102t-17.5 -169t-43 -307q-32 -215 -42.5 -315.5t-12.5 -211.5
q-10 -342 81 -618q18 -55 26 -86t7.5 -45t-8.5 -19q-23 -19 -78 34v0v0z" />
    <glyph glyph-name="U" unicode="U" horiz-adv-x="1687" 
d="M1712 -804q-16 6 -45 23.5t-57 37.5q-203 156 -369 565q-82 204 -129 489l-25 152l-15 -60q-27 -114 -73.5 -275t-76.5 -246q-112 -305 -264 -367q-93 -30 -181 10q-176 91 -291.5 314.5t-150.5 541.5q-33 304 -22 531q3 123 16.5 207t42.5 174q66 211 149 249
q31 19 59.5 17.5t72.5 -22.5q124 -55 153 -194q11 -60 4.5 -254t-26.5 -377q-13 -121 -21 -314.5t-8.5 -366.5t7.5 -233q23 -139 41 -150q16 -6 56 16.5t72 56.5q150 164 290 684q17 61 42.5 148t47.5 158q48 161 63 263q21 157 42 257.5t51 183.5q35 102 56.5 143t50.5 59
q53 40 133 -13q54 -33 76.5 -84t18 -147t-32.5 -265q-18 -121 -28 -352q-29 -844 184 -1327q33 -68 71 -126t66 -82q13 -11 22 -20.5t9 -13.5q-1 -8 -24 -5.5t-57 14.5v0v0z" />
    <glyph glyph-name="V" unicode="V" horiz-adv-x="1519" 
d="M635 -541q-38 14 -68 47q-91 107 -224 611q-19 78 -53 204t-65 243q-54 202 -114 460.5t-86 396.5q-5 30 -8 72.5t-2 78.5q1 50 5 72t15 38q35 55 126 51q43 -1 70 -15t52 -58.5t61 -134.5q25 -62 71 -199.5t88.5 -275.5t57.5 -201q18 -77 52 -241t68.5 -333t51.5 -262
q14 -72 24 -125t12 -62q8 -6 72 207q262 860 526 1356q106 197 206.5 301t213.5 135q106 30 131 4q4 -5 -0.5 -12t-21.5 -20.5t-50 -36.5q-92 -65 -160.5 -148t-140.5 -220q-228 -436 -529 -1470q-95 -322 -149 -415q-20 -31 -52 -46q-35 -13 -87.5 -13.5t-92.5 11.5v0v0z
" />
    <glyph glyph-name="W" unicode="W" horiz-adv-x="2513" 
d="M1623 -535q-257 38 -424 318q-25 44 -52 98.5t-46 99t-21 58.5q-2 20 -10.5 17t-12.5 -25q-3 -14 -15.5 -57t-28.5 -96q-63 -211 -142 -284t-244 -75q-58 -2 -90.5 1t-73.5 15q-111 32 -190.5 123t-144.5 261q-128 310 -79 852q36 474 86 617q27 86 65 119.5t114 37.5
q101 7 146 -28q42 -22 45 -281q3 -100 -0.5 -230.5t-15.5 -401.5q-5 -125 6.5 -295t31.5 -276q24 -119 59 -209.5t70 -124.5q10 -11 14.5 -10.5t14.5 13.5q21 29 68 123.5t81 178.5q33 83 60 169.5t56 206.5q12 49 17.5 77.5t4.5 53t-7 61.5q-23 176 0.5 418.5t76.5 395.5
q19 48 46.5 101.5t47.5 81.5q32 38 98 55t128 3q30 -6 45 -24.5t22.5 -74.5t15.5 -172q7 -90 10.5 -173.5t2.5 -123.5q-2 -85 6.5 -263.5t22 -354t26.5 -251.5q54 -323 157 -501q25 -41 56 -75t46 -35q21 4 72 48t92 93q92 111 158 282q108 293 104.5 681.5t-117.5 681.5
q-115 283 -288 373q-132 71 10 85q156 10 278.5 -103t195.5 -335q37 -108 55 -226.5t28 -305.5q8 -138 7 -211.5t-11 -153.5q-28 -273 -87 -451q-58 -197 -173 -355q-76 -110 -151 -156.5t-195 -56.5q-38 -4 -74 -5t-53 1v0v0z" />
    <glyph glyph-name="X" unicode="X" horiz-adv-x="1478" 
d="M60 -687q-38 33 -15 175q66 354 392 804q36 50 60 85.5t24 40.5t-13 26t-33 49q-56 83 -130 211.5t-120 221.5q-22 46 -49.5 112t-48.5 122q-127 346 -86 438q30 58 114 77.5t145 -17.5q30 -19 86.5 -126.5t163.5 -350.5q62 -138 111.5 -249t64.5 -142l31 -67l266 301
q395 444 537 544q30 21 46.5 27t39.5 3q91 -5 54 -79.5t-229 -272.5q-72 -76 -184.5 -197t-213.5 -232l-235 -258l67 -124q274 -510 696 -828q43 -34 78 -58t44 -27q37 -13 -5 -37q-32 -13 -115 -2t-155 37q-61 24 -117.5 57.5t-150.5 104.5q-214 152 -457 467l-100 126
l-59 -88q-137 -201 -241 -402t-145 -344q-17 -64 -28 -95t-21 -40.5t-25 -9.5q-10 0 -22.5 5t-21.5 12v0v0z" />
    <glyph glyph-name="Y" unicode="Y" horiz-adv-x="1558" 
d="M660 -598q-148 25 -257 101q-184 130 -143 308q12 46 29 69t50 34q57 24 84 -20q5 -7 7 -17.5t1 -32t-5 -60.5q-7 -72 -1.5 -112.5t27.5 -75.5q9 -18 30 -28t73 -20q118 -22 232 37t174 172q77 145 85 618q7 335 10.5 470t3.5 149l2 16l-13 -28q-4 -8 -35.5 -76
t-72.5 -157t-76 -163.5t-46 -96.5q-62 -124 -125 -217t-148 -123q-93 -23 -193 23.5t-165 114.5q-59 58 -91.5 125.5t-55.5 168.5q-41 189 -8.5 444.5t127.5 495.5q98 237 217 230q46 -4 98.5 -38t70.5 -71q16 -42 -7 -125q-5 -18 -19.5 -82t-33.5 -151q-20 -91 -40 -180
t-35 -149q-24 -106 -29.5 -254.5t8.5 -245.5q15 -69 35.5 -92.5t48.5 -21.5q37 -1 71.5 30.5t62.5 67.5q5 6 10 11q138 165 360 563q45 80 68 126t37 85.5t30 100.5q16 58 42 122.5t51.5 114t41.5 61.5q24 19 85 -23q34 -21 51 -58t25 -106q4 -31 4 -77t-5.5 -142.5
t-18.5 -278.5q-56 -848 -84 -961q-26 -126 -63 -214.5t-97 -170.5q-125 -164 -342 -195q-43 -5 -71 -4t-72 9v0v0z" />
    <glyph glyph-name="Z" unicode="Z" horiz-adv-x="1478" 
d="M204 -547q-97 69 -143.5 176.5t-25.5 209.5q29 141 176 205t481 81q93 5 156.5 12.5t73.5 15.5q13 14 27.5 73t22 119t-0.5 76q-18 22 -105 43t-183 26q-41 2 -77 1t-89 -8.5t-147 -22.5q-90 -15 -137 -19t-70 3.5t-43 28.5q-28 29 -46.5 62t-17.5 52q2 15 17.5 25.5
t56.5 22.5q42 14 115 63.5t146 115.5q38 34 132 130t202 210.5t189 203.5q18 19 46.5 49.5t55.5 57.5l26.5 26.5t12.5 13.5t2 4q-2 1 -15 -0.5t-31 -2.5q-3 -1 -7 -1q-59 -8 -168.5 -17.5t-257.5 -10.5q-74 1 -129 2q-119 2 -169.5 -2.5t-71.5 -28.5q-43 -42 -35 -113
q2 -22 -2 -29.5t-12.5 -6.5t-17.5 5q-4 1 -9 2q-23 10 -52.5 54t-44.5 92q-35 138 52 203q36 27 102 31t216 -11q502 -50 728 -9q31 5 55.5 7t30.5 1q19 -7 48.5 -35.5t46.5 -56.5q24 -39 21.5 -78t-41.5 -101t-124 -169q-228 -295 -418 -449q-33 -27 -58 -48
q-24 -21 -31 -27l-16 -13l49 -6q49 -7 119.5 -28t108.5 -41q60 -33 119 -96t90 -126q19 -42 32.5 -89.5t13.5 -78.5q0 -32 10 -29q3 0 50 16.5t106.5 40t106.5 45.5q35 17 52.5 16.5t20.5 -8.5q6 -13 -14 -36t-46 -44q-95 -74 -262 -137q-26 -7 -35.5 -13.5t-13.5 -22.5
q-13 -41 -44 -109t-56 -112q-58 -98 -141 -186.5t-167 -142.5q-325 -201 -542 -57v0v0zM296 -437q105 3 229.5 84t231.5 216q29 39 53.5 74.5t37.5 58.5t8 23q-5 -1 -48 -6.5t-103 -13.5q-236 -30 -353.5 -68.5t-159.5 -101.5q-32 -46 -39 -110.5t14 -114.5q5 -11 14.5 -17
t32.5 -13q17 -5 40 -8t42 -3v0v0z" />
    <glyph glyph-name="bracketleft" unicode="[" horiz-adv-x="854" 
d="M669 1952v0q35 -13 62 -35.5t37 -46.5q31 -95 -201 -104l-84 -3l-4 -89q-2 -39 -2.5 -95t0.5 -104q1 -49 -2 -145t-8 -195q-3 -51 -6 -108q-9 -167 -14 -268q-3 -64 -10 -165t-14 -192q-28 -335 -42 -607t-7 -350l5 -54l61 2q190 0 285 -131q19 -29 21.5 -56.5
t-13.5 -39.5q-8 -5 -39 -8.5t-72 -5.5q-42 -1 -90 -7t-80 -14q-60 -15 -96.5 -16.5t-73.5 9.5q-30 9 -60 34.5t-43 52.5q-21 50 48 108q16 13 26.5 24t10.5 14t-5.5 11t-13.5 17q-24 25 -41 79t-33 158q-10 62 -15 114t-6.5 145.5t-2.5 281.5q-2 273 2.5 465.5t21 423
t50.5 617.5q6 72 13.5 135t12.5 87q9 42 24.5 60t61 21t141.5 -2q70 -3 125 -8t70 -10z" />
    <glyph glyph-name="backslash" unicode="\" horiz-adv-x="1282" 
d="M247 1889q22 13 35.5 15.5t25.5 -3.5q29 -12 94 -139t185 -406q172 -405 353 -920.5t250 -797.5q37 -156 12 -263q-22 -66 -46.5 -85t-45 -9.5t-28.5 29.5q-6 9 -24 63t-41 129q-100 324 -306 862q-39 100 -81 211.5t-69 184.5q-56 150 -136 340q-51 123 -113 275
q-68 167 -115 265q-48 99 -52 127q0 35 32 68.5t70 53.5v0z" />
    <glyph glyph-name="bracketright" unicode="]" horiz-adv-x="888" 
d="M763 304v0q-28 -323 -37 -473t-10 -316q-1 -73 -1 -118.5t1 -70t3.5 -34t6.5 -8.5q6 -1 18 -11t25 -24q64 -68 -6 -110q-21 -15 -58.5 -22.5t-124.5 -14.5q-263 -24 -292 0q-24 17 -44.5 45.5t-29.5 54.5q-24 61 70 90q29 9 85 20.5t111 19.5t81 8h30l-21 47
q-72 189 -84 693t42 1082q5 61 11 151.5t9 168.5t6.5 143t6.5 87l5 48l-92 -7q-94 -8 -141.5 8.5t-87.5 72.5q-100 126 16 168q41 15 111.5 24t140.5 8q76 1 122.5 -23.5t90.5 -87.5q31 -41 46 -75.5t20 -91t7 -161.5v-7q2 -81 4.5 -181.5t5.5 -175.5q7 -315 -46 -927z" />
    <glyph glyph-name="asciicircum" unicode="^" horiz-adv-x="593" 
d="M402 1377v0q21 -19 53.5 -65t54.5 -86q9 -17 16 -36.5t9.5 -34.5t-0.5 -16q-1 0 -4 -1.5t-6 -2.5q-4 -2 -10.5 -0.5t-14.5 5.5q-7 5 -24.5 25t-37.5 47q-24 35 -37 48.5t-18 12.5q-6 -2 -25 -22.5t-44 -51.5q-24 -31 -46.5 -56t-32.5 -33q-13 -11 -20 -13t-18 3
q-11 4 -23.5 18.5t-20.5 30.5t-8 27q2 13 27 48.5t59 76t63.5 71t40.5 32.5q29 3 67 -27z" />
    <glyph glyph-name="underscore" unicode="_" horiz-adv-x="1216" 
d="M1067 146v0q44 -24 69 -54.5t23 -55.5q-2 -16 -7.5 -19.5t-24.5 -1.5q-67 7 -216 8t-310.5 -2t-266.5 -11q-48 -3 -74.5 -3.5t-40.5 4t-26 15.5q-20 17 -34 40.5t-13 38.5q10 49 160 70q243 33 530 9q89 -7 131.5 -11.5t62 -10t37.5 -16.5z" />
    <glyph glyph-name="grave" unicode="`" horiz-adv-x="647" 
d="M415 1324v0q85 -32 120.5 -55t43.5 -49q13 -34 -4 -44.5t-77 -6.5q-22 1 -49 4.5t-45 7.5q-76 18 -140 63.5t-84 96.5q-35 101 125 28q20 -9 51 -22t59 -23z" />
    <glyph glyph-name="a" unicode="a" horiz-adv-x="917" 
d="M871 356v0q38 155 67 260.5t43 106.5q6 -4 5 -38t-8 -82q-3 -13 -10 -54.5t-15.5 -89t-13.5 -79.5q-18 -91 -39.5 -171t-36.5 -127q-27 -87 -68.5 -125.5t-112.5 -43.5q-27 -2 -43 0.5t-32 11.5q-86 43 -129 167t-44 369q0 42 -0.5 64t-2.5 30t-4.5 6.5t-6.5 -7.5
q-10 -13 -36 -62.5t-55.5 -111.5t-50.5 -113q-53 -136 -102 -185t-126 -46q-120 7 -163 192q-32 158 27.5 302t193.5 234q82 52 178 69t176 -5q9 -4 14 1t10 23q4 13 13.5 31.5t19.5 34.5q43 67 136 69q35 1 53 -13t26 -49q7 -43 -2.5 -146t-31.5 -204q-11 -53 -16.5 -86.5
t-6.5 -77.5t-1 -133q1 -127 11 -192q10 -48 22 -60.5t25 -2t25 31.5q26 40 45.5 93.5t44.5 136.5q10 32 22 71zM316 445v0l110 189l-17 24q-14 18 -41.5 35t-42.5 17q-9 0 -30.5 -22t-45 -53t-39.5 -61q-26 -50 -52.5 -127.5t-39.5 -143.5q-7 -33 -10 -75t-2 -74.5t6 -32.5
q3 0 10.5 7.5t15.5 17.5q7 10 15.5 22.5t25 40.5t49 84t88.5 152z" />
    <glyph glyph-name="b" unicode="b" horiz-adv-x="955" 
d="M1004 719v0q3 2 8.5 2t9 -3t1.5 -9h-1q-2 -9 -65 -112q-55 -119 -205 -274q-25 -26 -37.5 -42.5t-21.5 -38t-22 -63.5q-87 -277 -208 -312q-26 -8 -65 -6.5t-61 11.5q-43 21 -37 97q7 97 131 201l68 59l7 100q6 84 0 178.5t-22 168.5l-12 54l-17 -22q-130 -174 -188 -479
q-6 -37 -12 -64.5t-9 -33.5q-17 -29 -94 -24q-49 3 -70 18t-38 59q-41 91 -40 370q0 70 -1 162t-2 163q-1 70 0.5 154.5t6.5 144.5q31 465 140 525q27 16 75.5 14t84.5 -19q22 -11 30 -22t13 -36q17 -68 8 -239t-47 -513q-5 -43 -6.5 -65t0 -27.5t5.5 0.5q52 68 98.5 94
t113.5 24q153 -2 196 -104q23 -49 29.5 -101t1.5 -155l-6 -133l25 25q127 133 168 190q22 28 38 50q22 32 29 33z" />
    <glyph glyph-name="c" unicode="c" horiz-adv-x="636" 
d="M685 721v0q21 0 19 -17q0 -10 -20.5 -75t-49 -147.5t-54 -152.5t-37.5 -95q-30 -62 -68 -117.5t-72 -85.5q-97 -85 -237 -49q-105 31 -168.5 135t-63.5 246q0 161 76 317.5t179 206.5q63 26 133.5 21t119.5 -39q47 -34 60.5 -86.5t-9.5 -106.5q-30 -64 -89 -64
q-29 0 -42.5 15t-24.5 58q-23 91 -37 85q-13 -7 -38 -57t-44 -107q-46 -153 -46 -269q0 -71 25 -155t55 -112q5 -4 11.5 -2.5t19 12t35.5 32.5q24 24 51.5 57t46.5 61q44 66 104 176.5t92 192.5q21 44 32 70q10 22 16 33.5t11 15t14 3.5z" />
    <glyph glyph-name="d" unicode="d" horiz-adv-x="1068" 
d="M843 922v0q-20 -204 -30 -510q-3 -120 13 -408q5 -49 -1.5 -83.5t-36.5 -37.5t-95 43q-33 28 -54 93.5t-31 131t-11 93.5q-6 244 7 433q3 36 5 69q3 38 4 54q0 14 -5.5 3.5t-14 -35.5t-18 -56.5t-16.5 -60.5t-9 -46q-5 -47 -12.5 -74t-22.5 -46q-8 -11 -24 -51t-33 -92
q-72 -221 -138 -303t-176 -84q-58 -4 -93 5t-68 36q-83 77 -90 258t67 363q75 188 232 217q156 31 266 -53l35 -30l16 37q35 84 85.5 221t97.5 277q19 60 41 186.5t40 241.5q9 61 16 100.5t9 41.5q0 3 1 5q3 12 8.5 21.5t20 18t44.5 19.5q107 15 111 -60q1 -48 -19.5 -180
t-49.5 -296q-50 -284 -71 -462zM366 458v0l39 89l-21 32q-14 24 -36.5 51t-42.5 46.5t-28 19.5q-17 -3 -39 -56t-42 -131.5t-30 -157.5q-5 -47 -5.5 -102t2.5 -95t9 -42q3 1 13.5 13.5t22.5 30.5q31 47 75.5 132t82.5 170z" />
    <glyph glyph-name="e" unicode="e" horiz-adv-x="777" 
d="M803 708v0q44 -6 -18 -222q-23 -79 -55.5 -156t-87.5 -161q-76 -131 -155.5 -223.5t-150.5 -110.5q-28 -12 -53 -14.5t-78 0.5q-48 3 -74 7.5t-48 14.5q-101 42 -155 155q-75 159 -35.5 379t179.5 423q58 84 113.5 117.5t127.5 29.5q53 -2 83 -13t53 -36q30 -30 38 -72
t-1 -113q-16 -109 -71.5 -217t-127.5 -182t-139 -82q-20 0 -25 -6t-6 -27q-4 -75 20.5 -165.5t56.5 -123.5q12 -11 21 -12.5t26 2.5q95 21 227.5 184.5t242.5 433.5q24 66 38.5 104.5t23.5 57t16 24t14 4.5zM138 422v0l-9 -56l31 43q13 19 32 52.5t34 64.5q78 158 85 256
q11 110 -37 35q-43 -64 -80 -172t-56 -223z" />
    <glyph glyph-name="f" unicode="f" horiz-adv-x="718" 
d="M671 678v0q86 61 108 35q9 -13 -15 -43t-63 -58q-27 -20 -99.5 -47.5t-152 -50t-128.5 -26.5q-11 -4 27 -42q16 -16 36 -44t35 -53q47 -85 70 -185t31 -254q16 -300 -68 -396q-44 -55 -140 -39q-101 17 -184.5 134.5t-125.5 300.5q-23 109 -27.5 310t11.5 354
q12 96 34.5 212.5t40.5 181.5q42 132 115 242t149 155q30 17 46.5 21.5t43.5 2.5q77 -6 93 -36q7 -12 -69 -186q-128 -288 -177 -510q-12 -51 -19.5 -85.5t-6.5 -36.5q2 0 23.5 7t53.5 19q84 14 188 45t170 72zM375 142v0q-16 76 -52 152t-78 121l-28 29l-6 -61
q-8 -92 -9.5 -236.5t5.5 -214.5q19 -166 59 -268q20 -49 41 -80.5t31 -26.5q3 2 9.5 14t12.5 27q35 83 39 237t-24 307z" />
    <glyph glyph-name="g" unicode="g" horiz-adv-x="914" 
d="M922 679v0q30 57 50 35h1q4 -5 7.5 -12t2 -22.5t-11.5 -44.5q-138 -367 -351 -633l-9 -101q-24 -312 -107 -472q-83 -147 -216 -211.5t-273 -25.5q-99 32 -135 112.5t2 183.5q43 136 321 320l135 91l-2 80q0 35 -1.5 69t-3.5 51l-3 40l-25 -31q-11 -13 -29 -27t-35 -21
q-16 -9 -30.5 -12.5t-36 -4t-59.5 0.5t-59.5 3t-34.5 6t-26 12q-102 60 -106 262q-8 175 99 362q105 190 290 193q27 0 55 -2.5t44 -7.5q21 -6 29.5 -6t9.5 6q6 11 26.5 32t44 39.5t36.5 22.5q42 11 80.5 7t58.5 -21l20 -19l-17 -117q-17 -113 -30 -400l-14 -282l20 22
q65 78 153.5 249t129.5 274zM185 264v0q26 51 61.5 137.5t63 163t29.5 96.5q1 8 -4.5 21.5t-13.5 26.5q-9 14 -14 20t-8.5 4.5t-8.5 -8.5q-30 -39 -67 -124.5t-56 -159.5q-5 -22 -9 -58t-6 -72.5t-1 -62t5 -26.5q3 0 11.5 12t17.5 30zM336 -300v0l8 114l-58 -45
q-182 -137 -238 -257q-35 -72 -28 -137t54 -98q14 -10 23.5 -13t20.5 1.5t32 16.5q30 18 63.5 54.5t54.5 74.5q52 99 68 289z" />
    <glyph glyph-name="h" unicode="h" horiz-adv-x="1090" 
d="M1146 716v0q8 -5 11 -14.5t1 -29.5q-1 -19 -13 -87.5t-31 -133.5q-94 -312 -187 -520t-172 -243q-16 -6 -39.5 -9.5t-45 -5t-30.5 1.5q-3 1 -11 3.5t-17 4.5q-81 30 -119 193q-18 97 -14 274.5t29 343.5q9 55 13.5 92t3.5 40q-4 2 -22.5 -37t-41 -95t-39.5 -105
q-13 -38 -27.5 -85.5t-23.5 -82.5q-11 -46 -18 -72t-12.5 -39t-12 -18.5t-16.5 -11.5q-31 -17 -80 -14.5t-78 22.5q-58 48 -109.5 215.5t-74.5 383.5q-8 89 -4.5 226.5t15.5 233.5q12 84 34 176t48 163q10 27 34 76t51 96q176 315 395 337q107 10 163.5 -43.5t51.5 -161.5
q-3 -78 -38.5 -179.5t-115.5 -263.5q-173 -348 -290 -411l-34 -17l-10 -92q-4 -46 -5.5 -122.5t0 -156t5.5 -134.5t10 -57q2 1 15 27t31 66q26 58 70 149t82.5 167t49.5 92q24 27 80.5 34t94.5 -13q103 -61 92 -282q-1 -27 -8.5 -90.5t-17.5 -133.5q-14 -101 -26 -226.5
t-18 -220.5t-1 -104q8 -2 40.5 57.5t74.5 153.5q1 3 2 5q37 80 98.5 227t99.5 276q32 117 55.5 155.5t51.5 19.5zM378 1454v0q-20 -74 -38.5 -156t-28.5 -138.5t-4 -53.5q1 3 14.5 27.5t31.5 59.5q59 116 115 242t75 185q42 139 30 219l-7 43l-16 -17q-36 -45 -86 -163.5
t-86 -247.5z" />
    <glyph glyph-name="i" unicode="i" horiz-adv-x="642" 
d="M709 716v0q34 -29 -13 -223q-44 -173 -117 -311.5t-151 -193.5q-25 -18 -47.5 -26t-70.5 -15q-76 -13 -100 -6q-49 16 -103 69.5t-90 123.5q-43 91 -51 234t15 275t74 189q26 26 56.5 39.5t79.5 20.5q30 4 50 3t40 -8q24 -7 31.5 -14.5t11.5 -28.5q7 -31 -11 -148
q-19 -126 -37 -261.5t-24 -193.5q-9 -129 31 -190q9 -13 17.5 -21t11.5 -8q33 8 88 78.5t101 166.5q12 25 24 49q25 47 51.5 110t55.5 168q12 45 25.5 80t25.5 43q6 3 13 2.5t13 -3.5zM204 1123v0q-13 3 -27 8t-22 11q-24 21 -24 73.5t18.5 107t50.5 82.5q26 20 71.5 29
t81.5 2q45 -8 54.5 -40.5t-9.5 -111.5q-14 -65 -27 -91.5t-39 -45.5q-51 -40 -128 -24z" />
    <glyph glyph-name="j" unicode="j" horiz-adv-x="578" 
d="M629 721v0q15 -4 17 -33.5t-10 -63.5q-51 -129 -161 -295.5t-256 -287.5l-5 -84q-14 -292 -81 -433q-47 -93 -147 -144q-27 -14 -51 -19t-75 -6q-47 -2 -70 0.5t-41 11.5q-74 36 -86.5 123t41.5 195q21 39 67 90.5t103 100.5q31 26 53 45.5t25 24.5q2 7 3.5 96t1.5 218
t2 228t5 121q28 157 124 205q32 13 84.5 14t83.5 -10q26 -9 35.5 -29t3 -69t-28.5 -147q-27 -121 -35.5 -183t-11.5 -150l-1 -69q107 88 188.5 205t160.5 264l20 35q11 19 17 28.5t11.5 13t13.5 4.5zM-61 -230v0l5 46l-34 -37q-70 -76 -79 -165q-2 -24 1 -53t9 -49.5
t12 -21.5q3 0 12 14t18 35q18 40 34 104.5t22 126.5zM186 966v0q-20 -1 -31.5 5t-28.5 26q-14 15 -20 24t-6.5 20t0.5 32q4 44 26 89q19 40 46 56t75 15q95 0 102 -50q1 -23 -15 -66t-38 -77q-50 -70 -110 -74z" />
    <glyph glyph-name="k" unicode="k" horiz-adv-x="965" 
d="M1017 722v0q7 1 11.5 -1.5t5.5 -14t-2.5 -36.5t-12.5 -67q-15 -74 -49.5 -194t-71.5 -233t-61 -166q-32 -68 -79.5 -94t-102.5 -25q-122 1 -186 158q-57 142 -77 159q-5 4 -19.5 8t-31.5 6l-39 5l-20 -124q-42 -250 -67 -273q-15 -15 -50 -14q-21 -1 -35 6t-38 29
q-67 67 -103 190q-16 67 -17 245.5t14 354.5q7 77 14.5 148.5t13.5 103.5q5 32 12.5 80.5t14.5 91.5q21 123 60.5 265.5t70.5 203.5q16 25 61.5 33.5t91 0.5t60.5 -33q12 -24 8 -93.5t-22 -161.5q-92 -473 -128 -902q-27 -302 12 -97q36 184 63 278.5t61 160.5
q40 84 73.5 110t97.5 24q143 4 147 -145q10 -179 -157 -352l-71 -74l38 -24q36 -23 61 -67t53 -134q14 -41 25.5 -70.5t15.5 -34.5q33 -19 91 94q39 75 91 227.5t81 245.5q2 6 4 11q56 180 88 191zM351 294v0q6 7 18 23.5t25 35.5q24 41 54.5 126.5t50 164t11.5 96.5
q-5 8 -24.5 -12t-43.5 -57q-37 -64 -71.5 -165t-51.5 -194q-3 -18 -1.5 -24.5t8.5 -6.5q5 0 12 4t13 9z" />
    <glyph glyph-name="l" unicode="l" horiz-adv-x="661" 
d="M654 644v0q46 114 74 81q3 -9 -15 -89t-46.5 -193t-58 -220.5t-50.5 -170.5q-23 -69 -57 -150t-68 -148q-35 -73 -71 -93t-93 1q-33 12 -76 44.5t-68 64.5q-125 171 -145 639q-22 469 110 863q62 182 129 289q86 138 220 56q73 -41 99 -106.5t20 -193.5
q-3 -85 -17.5 -160t-47.5 -180q-105 -318 -247 -380q-7 -1 -12 -19.5t-8.5 -67t-7.5 -142.5q-7 -131 2 -252q5 -65 8.5 -101.5t9.5 -66.5t17 -78l17 -71l27 27q57 59 136 249.5t186 478.5q16 44 33 89zM318 1152v0q-13 -60 -28 -142t-25.5 -149.5t-10.5 -87.5q-1 -12 1 -12
t11 14q6 8 16 27.5t20 41.5q29 67 60.5 166.5t43.5 160.5q7 41 12 96.5t5.5 103.5t-3.5 66l-6 23l-11 -22q-16 -32 -40 -113t-45 -173z" />
    <glyph glyph-name="m" unicode="m" horiz-adv-x="1540" 
d="M1564 705v0q10 12 17.5 15t18.5 -6q5 -7 7.5 -14t1.5 -19.5t-6.5 -37t-14.5 -65.5q-3 -13 -7 -29q-42 -181 -84 -340t-70 -250q-62 -207 -132 -246q-18 -14 -36 -15t-44 11q-108 53 -158 223q-14 53 -23 140t-10 176q0 81 5.5 218t11.5 210l4 41l-28 -58
q-19 -39 -46.5 -121.5t-75.5 -243.5q-64 -215 -106 -276q-35 -55 -120 1q-117 64 -135 266q-4 39 -6 93.5t0 100.5q1 45 0 74.5t-3 30.5q-28 -5 -84 -138.5t-116 -334.5q-16 -55 -29.5 -96.5t-19.5 -50.5q-20 -28 -69 -15t-104 62q-65 55 -100 211q-8 34 -12 66t-6 83
t-3 142q-2 171 8.5 258t43.5 163q28 75 63 87t97 -31q43 -26 64.5 -69t28 -136t4.5 -266v-164.5v-67.5q1 1 12 27.5t28 68.5q8 18 16 39q56 138 95 204t76 73.5t88 -29.5q63 -42 94.5 -125.5t42.5 -235.5q4 -52 8 -88t5 -39q6 -3 25 41.5t43.5 114t44.5 142.5
q111 401 172 416q47 13 116 -29.5t103 -107.5q17 -38 26 -115.5t5 -147.5q-2 -30 -11 -105t-21 -160q-14 -104 -22.5 -201t-10 -160t6.5 -65q27 0 108 204q40 104 87 262t91 323q26 94 45 111z" />
    <glyph glyph-name="n" unicode="n" horiz-adv-x="1109" 
d="M1158 720v0q21 -4 -9 -88.5t-91.5 -196.5t-134 -198t-135.5 -92q-65 2 -110 76q-9 12 -27 50.5t-36.5 80t-26.5 63.5l-29 72l-22 -13q-40 -24 -100 -114t-115 -208q-47 -101 -77 -122q-14 -7 -43.5 -2t-57.5 18q-35 20 -67.5 54t-44.5 66q-32 84 -30 339q2 220 35 314
t101 78q37 -9 82 -38t66 -57q25 -31 30 -85.5t-5 -175.5q-5 -62 -6.5 -101.5t0.5 -39.5q3 3 18.5 20t36.5 40q3 3 5 7q70 81 130.5 136t98.5 37q22 -14 39 -58t33 -102q8 -28 16 -57q10 -27 18 -53q17 -60 36.5 -97t53.5 -30q89 43 154 140t112 193q31 61 56 101.5t46 42.5z
" />
    <glyph glyph-name="o" unicode="o" horiz-adv-x="968" 
d="M1008 719v0q30 8 15.5 -46t-81.5 -144.5t-195 -189.5q-16 -13 -24 -23t-12 -24t-8 -41q-28 -154 -98.5 -275t-153.5 -159q-25 -10 -60.5 -9t-65.5 13q-36 15 -85.5 55t-79.5 79q-88 121 -88 281q0 32 -1 46.5t-7 23t-18 19.5q-26 24 -49 63.5t-32 74.5q-31 120 39 234
q68 108 173.5 146t219.5 -4q51 -21 109.5 -64.5t96.5 -89.5q44 -55 75.5 -131t31.5 -126v-32q148 112 207.5 188t74.5 110q10 21 16 25zM518 100v0q11 18 23.5 46t21 51.5t5.5 26.5q-3 1 -20 -2.5t-41 -10.5q-24 -8 -53.5 -14t-48.5 -8q-21 -2 -31 -4t-14.5 -6.5t-7.5 -13.5
q-4 -12 -7.5 -45t-5 -72t-1 -67.5t4.5 -28.5q3 0 16 5.5t29 13.5q30 16 67 52.5t63 76.5zM597 366v0q13 86 -20.5 185t-95.5 156q-95 81 -215 38q-90 -37 -144.5 -125.5t-44.5 -180.5q5 -24 12.5 -29.5t7.5 15.5q0 6 8.5 30t20.5 53q49 118 97 168t112 50q63 -4 128 -53
t65 -93q0 -6 -12 -29t-30 -52q-28 -47 -59 -113t-44 -108q-3 -9 -2.5 -12.5t7 -3.5t22.5 2q13 2 33.5 7t39.5 10q17 6 38 13.5t36 13.5q15 7 22.5 12.5t11 15.5t6.5 30z" />
    <glyph glyph-name="p" unicode="p" horiz-adv-x="968" 
d="M1010 718v0q28 2 7 -48t-70 -122t-106.5 -135t-101.5 -86q-33 -27 -46 -42.5t-17 -34.5q-36 -141 -119 -227q-71 -70 -137.5 -77t-101.5 53q-21 41 -2.5 101t64.5 104q14 12 42 29t58 31l69 32l6 36q2 17 3.5 65t1.5 105q0 75 -3 118t-11 77q-6 26 -11 43.5t-6 17.5
q-2 0 -8.5 -3t-15.5 -7q-74 -39 -133 -221q-112 -326 -123 -990q-2 -80 -4 -136.5t-3 -61.5q-4 -10 -25 -9t-46 11q-35 19 -76.5 65t-66.5 95q-47 89 -63 201t-15 348q0 179 8 318.5t32 360.5q11 103 33.5 146t63.5 37q27 -5 60 -26.5t52 -47.5q10 -12 15 -33t8 -61
q7 -92 6 -239t-10 -279q-4 -67 -7 -136.5t-3 -109.5l1 -89l17 174q33 304 93 544q29 111 71 182.5t85 82.5q44 8 111 -36q32 -22 51.5 -43t34.5 -51q22 -43 30 -92.5t6 -140.5q0 -21 -1 -46t-1 -46q32 -6 77.5 33t92 96.5t82.5 106.5q21 28 34.5 45t17.5 18zM472 65v0
q10 17 23.5 46.5t22.5 55.5t7 31q-4 3 -21 -5.5t-38 -22.5t-37 -28q-56 -52 -58 -115q0 -25 9 -27t40 17q13 8 27.5 21.5t24.5 26.5z" />
    <glyph glyph-name="q" unicode="q" horiz-adv-x="752" 
d="M799 -446v0q12 -34 16.5 -70t4.5 -112q2 -104 -9.5 -159.5t-41.5 -89.5q-43 -52 -119 -12q-43 23 -98.5 80.5t-84.5 110.5q-30 57 -59.5 140t-42.5 149q-5 28 -8.5 40t-7 12.5t-9.5 -5.5q-25 -22 -55 -129q-11 -43 -24.5 -53.5t-38.5 6.5q-22 16 -35 59t-9 85
q10 94 91 168q22 21 38.5 35.5t20.5 14.5q3 2 5.5 48.5t3.5 115.5q2 70 4 122t4 62q5 20 -20 -20q-28 -41 -68.5 -85.5t-64.5 -58.5q-66 -39 -164 48q-119 110 -125 333q-2 215 131 344q121 114 244 84q31 -9 79 -37t72 -52l17 -18l22 47q25 54 46 75.5t48 21.5q32 1 69 -26
q47 -32 54.5 -75.5t-15.5 -149.5q-18 -86 -39 -211t-40 -250t-29.5 -210t-7.5 -91q2 -1 14.5 -9t29.5 -18q141 -90 201 -260zM413 583v0q4 21 0 30.5t-21 20.5q-12 9 -19 12.5t-15 1t-22 -9.5t-36.5 -25.5t-43.5 -39.5q-129 -137 -146 -360q-6 -97 14 -94q3 1 14.5 9.5
t26.5 21.5t33.5 35t32.5 42q30 47 71.5 123.5t74 144.5t36.5 88zM678 -741v0q14 44 13 144q-1 109 -22 179.5t-71 128.5q-32 40 -42.5 30.5t-13.5 -83.5q-11 -224 70 -382q14 -29 27 -47.5t17 -17.5q4 2 10.5 15.5t11.5 32.5z" />
    <glyph glyph-name="r" unicode="r" horiz-adv-x="827" 
d="M624 745v0q9 -53 41.5 -65.5t75 -2t81.5 26.5q25 10 43.5 15t24.5 -1q7 -7 -21.5 -39.5t-79 -63.5t-110 -32.5t-113.5 54.5l-11 12q-26 42 -30 89l-2 16q-6 26 -9 48q-6 32 -10 38q-11 7 -35.5 -29t-52 -95.5t-46.5 -123.5q-47 -156 -77 -429q-14 -122 -31.5 -209
t-33.5 -106q-35 -37 -106 10q-173 122 -169 399q1 36 2 66t3.5 74t7.5 122q8 116 26 197.5t40 97.5q41 22 120 -36q36 -25 51 -53t15 -93t-9 -202q-4 -59 -5.5 -122.5t-1.5 -101.5q1 -31 2 -67q1 -52 2 -86q1 -100 11 -27.5t33 359.5q4 46 12.5 104t17.5 102q22 97 58 190.5
t63 123.5q62 55 134 12t89 -171v0v-1z" />
    <glyph glyph-name="s" unicode="s" horiz-adv-x="955" 
d="M989 720v0q36 6 7.5 -46t-101 -136.5t-170 -178.5t-201.5 -173l16 -34q40 -86 23 -170q-23 -90 -111.5 -176t-197.5 -125q-37 -12 -73 -10.5t-52 15.5q-21 21 -32.5 52.5t-8.5 61.5q14 111 258 313q25 20 35 29.5t9 13.5t-9 7q-9 3 -49.5 11t-93.5 16q-53 9 -83 15
t-46.5 12.5t-31.5 15.5q-78 52 -122 165q-63 163 61 354q23 38 50.5 66t89.5 77q78 63 127.5 87.5t108.5 28.5q48 5 80.5 -11t67.5 -62q79 -103 78 -210q-4 -69 -31.5 -131.5t-64.5 -85.5q-14 -8 -22.5 -8.5t-19.5 6.5q-44 25 -27 135l10 65l-32 -14q-35 -16 -95 -63.5
t-107 -96.5q-23 -24 -46.5 -56t-38.5 -58t-12 -32q3 -2 39 -15t88 -30q125 -43 179 -76l42 -26q180 144 284 247.5t154 162.5q53 62 71 68zM433 95v0l7 22l-24 -20q-33 -29 -87.5 -82.5t-82.5 -85.5q-34 -40 -64 -86.5t-33 -64.5t7.5 -18t42.5 17q154 86 234 318z" />
    <glyph glyph-name="t" unicode="t" horiz-adv-x="731" 
d="M773 720v0q28 8 17 -70.5t-44 -192t-71 -208.5q-37 -114 -91.5 -226t-97.5 -164q-94 -98 -208 -48q-68 36 -128.5 120t-93.5 188q-31 103 -50.5 269t-18.5 312q1 61 10 159t20 169q5 12 -52 14q-58 4 -103.5 30.5t-61.5 64.5q-9 20 1 33.5t49 28.5t119 38l101 29l14 49
q29 100 73.5 180t86.5 109q27 18 52 17t58 -23q51 -31 70 -77.5t17 -135.5v-84l52 -10q79 -17 139.5 -54t63.5 -70q-10 -33 -175 -55q-43 -5 -72.5 -9t-32.5 -5q-1 -4 -11.5 -61.5t-25.5 -142.5q-16 -86 -35.5 -185.5t-33.5 -164.5q-14 -68 -21 -110t-9.5 -87t-2.5 -123
q-4 -257 26 -286q36 -15 117 74.5t154 225.5q68 145 118 295q26 75 46.5 126.5t34.5 60.5z" />
    <glyph glyph-name="u" unicode="u" horiz-adv-x="1008" 
d="M1075 697v0q20 44 49 9q6 -8 8 -15.5t-1 -21.5t-10 -41q-4 -15 -16 -66.5t-27 -117.5q-15 -63 -27.5 -117.5t-18.5 -79.5q-25 -103 -53 -188t-51 -126q-22 -38 -53.5 -72t-51.5 -41q-9 -2 -23 -1t-27 5q-35 11 -78 45t-73 74q-84 110 -108 310l-10 74l-44 -109
q-63 -158 -103.5 -216t-87.5 -57q-76 -2 -151 76t-116 201q-12 41 -20.5 124t-10 167t6.5 128q45 245 162 216q34 -8 76 -38.5t64 -62.5q17 -24 23.5 -50.5t3.5 -70.5t-15 -123q-46 -327 -38 -378l5 -34l56 63q168 195 217 427q43 235 97 258q31 9 74.5 -23t67.5 -82
q37 -74 18 -317q-11 -149 -13.5 -218.5t1.5 -130.5q6 -126 23 -119q4 1 16.5 12t27.5 27q37 38 67 109l8 18q11 26 21.5 54.5t24 75t33.5 128.5q5 19 16 66q12 48 25 103.5t23.5 97.5t12.5 48z" />
    <glyph glyph-name="v" unicode="v" horiz-adv-x="970" 
d="M892 965v0q39 14 71.5 15t39.5 -11q5 -13 -6 -21.5t-46 -18.5q-26 -7 -45 -21.5t-54 -53.5q-78 -85 -146.5 -254.5t-145.5 -469.5q-31 -119 -50 -184t-32.5 -92.5t-27.5 -35.5q-24 -14 -64 -16.5t-70 8.5q-59 28 -134 159t-121 285q-52 186 -66 377.5t18 273.5
q22 40 78 47t95 -25q18 -15 35.5 -75t42.5 -189q4 -21 11 -53q21 -105 47 -230q17 -80 33 -156t23 -114q7 -35 13 -57t9 -20q2 4 13 35.5t26 77.5q55 168 132.5 349.5t135.5 278.5q41 67 94 121t91 70z" />
    <glyph glyph-name="w" unicode="w" horiz-adv-x="1414" 
d="M977 1109v0q35 -16 71 -52t61 -79q74 -141 80 -379.5t-59 -483.5q-49 -183 -116 -263.5t-181 -91.5q-23 -3 -47.5 -3t-41.5 2q-197 23 -281 265q-5 9 -25 -33q-10 -20 -23 -40t-23 -32q-72 -74 -185.5 -72t-178.5 78q-53 75 -83 208t-24 268q7 122 36 230t71 171
q31 47 56.5 62.5t75.5 18.5q104 11 130 -42q5 -8 7 -21t1 -42t-5.5 -83.5t-13.5 -146.5q-23 -249 -28 -364t6 -167l8 -47l26 34q31 42 69.5 107t54.5 105t17 115q2 75 16.5 177.5t32.5 164.5q47 163 150 164q78 2 114 -51q8 -11 12 -24t5.5 -41.5t2.5 -84.5q10 -591 71 -717
l15 -31l33 40q51 64 93 180.5t58 237.5q13 122 0 268t-47 248q-14 41 -38.5 83.5t-45.5 64.5q-9 9 -24.5 21.5t-30.5 22.5q-14 10 -24 20t-11 15q0 16 28 25t66 8t69 -13z" />
    <glyph glyph-name="x" unicode="x" horiz-adv-x="1079" 
d="M1116 719v0q28 13 30.5 -64t-20 -204t-70 -265t-120.5 -247t-172 -150q-116 -47 -271 43q-48 32 -98 87.5t-88 106.5q-18 23 -31.5 39.5t-15.5 16.5q-5 -3 -32.5 -49.5t-61 -107t-56.5 -106.5q-14 -29 -31 -68.5t-29 -70.5q-24 -64 -38.5 -77t-38.5 9q-31 22 -15 100
t84 228q18 43 43.5 94.5t45.5 88.5l46 84l-33 67q-65 137 -120.5 344t-60.5 327q-2 43 1.5 63.5t13.5 36.5q11 18 21.5 23.5t36.5 6.5q39 3 86 -18q29 -11 45.5 -29t29.5 -59.5t30 -122.5q16 -75 38 -161t40 -149.5t22 -63.5q2 0 24 38.5t52 94.5q30 57 62.5 113t52.5 85
q45 64 96 115.5t81 62.5q30 8 66 -0.5t63 -27t27 -40.5q0 -7 -12.5 -29t-31.5 -47q-70 -91 -156 -201t-133 -169q-59 -72 -95 -125t-36 -67q0 -16 32 -88.5t76 -140.5q46 -69 93.5 -122.5t68.5 -60.5q24 -4 68.5 16.5t81.5 51.5q89 94 142.5 211.5t82.5 233t44 204.5
q20 121 40 139z" />
    <glyph glyph-name="y" unicode="y" horiz-adv-x="1257" 
d="M1290 715v0q37 23 23.5 -37t-74 -172t-166 -245t-251.5 -256l-23 -129q-26 -150 -59 -251.5t-92 -211.5q-107 -205 -256 -261q-41 -15 -85.5 -17.5t-72.5 8.5q-55 25 -104.5 75.5t-69.5 102.5q-32 89 -14 185.5t79 168.5q23 25 91 76.5t145 104t127 79.5l73 39l23 270
q8 87 12 139.5t5 77.5t-1 28.5t-6 -6.5q-5 -13 -22 -53t-38 -92q-5 -12 -10 -25q-103 -250 -186 -317q-18 -16 -29 -23t-22 -8.5t-27 0.5q-67 4 -148 81q-101 92 -132.5 241.5t-2.5 387.5q24 215 77 327q33 78 63.5 108.5t69.5 25.5q40 -6 89 -43.5t72 -79.5q13 -22 8 -60
t-32 -124q-49 -155 -71 -465l-14 -186l29 25q128 117 282 407l45 88l10 104q7 86 20 116t43 25q19 -3 51 -24.5t50 -44.5q34 -49 60 -201q18 -106 21.5 -201t-5.5 -215l-9 -107q149 136 248.5 268.5t153.5 220.5q34 53 52 76zM535 -184v0l9 38l-32 -23q-42 -30 -104 -81.5
t-114.5 -98t-65.5 -63.5q-38 -58 -53 -145t4 -140q9 -23 25 -27.5t48 8.5q49 19 105 87t96 157q19 44 41.5 123t40.5 165z" />
    <glyph glyph-name="z" unicode="z" horiz-adv-x="1103" 
d="M1128 703v0q24 32 34.5 11t-9 -76t-85 -125.5t-193.5 -137.5q-16 -8 -20.5 -18.5t-6.5 -32.5q-1 -10 -3 -23q-21 -120 -121 -276t-224 -260q-216 -170 -378 -112q-37 16 -74 52t-51 70q-20 57 10.5 129.5t101.5 134.5q81 69 217 156.5t263 151.5q46 24 77.5 41.5
t32.5 21.5q2 13 -105 -2q-90 -14 -169 -52q-43 -21 -95.5 -30.5t-84.5 -3.5q-30 9 -58.5 34.5t-42.5 53.5t-3 44q5 6 24 18t43 25q50 28 144.5 102t162.5 138q24 24 60 58q31 30 60.5 58t48.5 47.5t19 21.5q-22 9 -90.5 -6.5t-157.5 -40.5q-99 -28 -191 -49.5t-145 -16.5
q-182 21 -177 237q4 45 32 44.5t75 -20.5q51 -21 117 -33q48 -1 151.5 7t203 18t136.5 13q49 6 76 7.5t42.5 -0.5t29.5 -8q55 -24 93 -75.5t34 -99.5q-21 -137 -256 -362l-32 -31l41 1q60 2 114 -48q123 38 206 106.5t123 137.5zM330 -110v0q32 31 75.5 80.5t86.5 101
t70.5 88t26.5 41.5q-4 1 -40.5 -23t-89 -61.5t-104 -75.5t-84.5 -65q-117 -94 -143 -177q-8 -20 0 -23.5t39 6.5q77 23 163 108z" />
    <glyph glyph-name="braceleft" unicode="{" horiz-adv-x="1010" 
d="M918 -572v0q7 -5 12.5 -14t7.5 -17q2 -17 -7.5 -50t-24 -66.5t-29.5 -50.5q-48 -53 -120.5 -72.5t-136.5 2.5q-72 28 -146.5 102t-117.5 160q-33 66 -53 140.5t-38 199.5q-10 67 -14 114t-3 114t6 191q4 116 9 197t8 90q8 16 -27 37q-33 22 -61 57t-35 64q-3 12 0.5 22
t17 25.5t41.5 41.5q38 35 57.5 62.5t35.5 67.5q91 210 53 593q-33 343 50 490q35 68 94.5 112t117.5 44q83 -4 169.5 -72.5t127.5 -161.5q43 -97 -4 -138q-40 -38 -85 -14.5t-67 92.5q-6 22 -12 36.5t-9 13.5q-2 0 -6.5 -1t-8.5 -1q-10 0 -27.5 -15t-34 -36t-24.5 -39
q-17 -38 -15 -113t23 -226q15 -112 19 -185t2 -179q-2 -140 -15.5 -208.5t-53.5 -144.5q-15 -30 -39.5 -63t-47.5 -56.5t-34 -23.5q-4 -1 2 -12t20 -28q13 -18 28.5 -46t26.5 -54q11 -27 16 -49.5t4 -68t-6 -143.5q-13 -285 -12.5 -435.5t15.5 -230.5q12 -68 20.5 -99.5
t21 -40t36.5 -8.5q17 0 36.5 4.5t31.5 10.5q13 6 36 13.5t45 12.5q51 11 80 38q16 16 25.5 19t18.5 -4z" />
    <glyph glyph-name="bar" unicode="|" horiz-adv-x="546" 
d="M346 1932v0q13 -1 38.5 -27.5t42.5 -57.5q39 -75 51.5 -188t3.5 -312q-3 -76 -7 -143.5t-13 -178.5t-26 -319q-42 -524 -54.5 -778t-5.5 -452q3 -98 2 -143.5t-8 -62.5q-20 -56 -58 -14q-31 35 -61 126.5t-47 204.5q-18 126 -34 311.5t-19 310.5q-6 325 26 817t72 722
q36 178 97 184z" />
    <glyph glyph-name="braceright" unicode="}" horiz-adv-x="1010" 
d="M774 800v0q82 -33 131.5 -87.5t40.5 -101.5q-3 -10 -23 -37.5t-47 -59.5q-61 -69 -80 -120.5t-20 -157.5q-1 -53 -4 -117.5t-6 -111.5q-3 -46 -5.5 -107.5t-4.5 -110.5q-4 -139 -28.5 -279.5t-58.5 -221.5q-41 -89 -123 -129.5t-165 -13.5q-14 5 -34.5 18t-37.5 27
q-24 20 -32 34.5t-8 39.5q-2 23 8.5 47t40.5 68q23 32 42.5 69t27.5 61q23 77 41 229t22 302q7 404 31 469q15 49 62.5 108t90.5 82q22 10 24.5 15t-11.5 14q-35 26 -79 74t-72 90q-83 118 -91 266.5t55 446.5q17 88 29 158.5t12 89.5q0 30 -6.5 36.5t-32.5 3.5
q-16 -1 -49.5 -12t-68.5 -28t-63 -28t-36 -13q-8 1 -24 12t-34 27q-24 23 -32.5 39.5t-9.5 38.5q-1 75 110 136q61 32 137.5 35t133.5 -24q60 -30 119.5 -90.5t92.5 -123.5q16 -32 23.5 -54t10 -53t3.5 -90q3 -79 -1.5 -128t-23.5 -129q-43 -197 -62 -301.5t-16.5 -155.5
t22.5 -86q11 -25 27 -38t52 -27z" />
    <glyph glyph-name="asciitilde" unicode="~" horiz-adv-x="1077" 
d="M927 721v0q25 -4 48 -49t35 -102t2 -97q-22 -77 -91 -122t-157 -40q-101 4 -211 113q-27 24 -48 41t-27 18q-6 0 -29.5 -13.5t-53.5 -33.5q-60 -40 -107 -66.5t-57 -27.5q-4 1 -13 7t-20 14q-25 21 -39 55.5t-11 68.5q5 43 46.5 101.5t93.5 104.5t90 52q71 14 188 -119
q32 -36 61 -63t41 -33q55 -19 114 8t84 83q23 56 37 79t24 21z" />
    <glyph glyph-name="exclamdown" unicode="&#xa1;" horiz-adv-x="727" 
d="M482 1418v0q-74 56 -53 147q9 46 24 84t29 53q41 36 108 -16q15 -13 30.5 -32.5t24.5 -36.5q26 -62 12.5 -139.5t-55.5 -103.5q-43 -16 -120 44zM465 -462v0q-90 -169 -246 -16q-45 42 -59.5 80t-7.5 96q3 29 12 66.5t19 67.5q120 346 165.5 494t57.5 231
q5 30 14.5 111.5t19.5 176.5q10 100 14 154t3 89.5t-6 79.5q-4 43 -5.5 74t1.5 35q22 26 83 -32q57 -52 84.5 -174t40.5 -384q17 -325 -35.5 -641t-154.5 -508z" />
    <glyph glyph-name="cent" unicode="&#xa2;" horiz-adv-x="915" 
d="M715 999v0q33 -34 54 -70t39 -90q17 -49 21 -101t-5 -90q-10 -31 -37 -62t-52 -39q-25 -6 -44.5 2t-21.5 24q0 8 2.5 25.5t6.5 36.5q4 20 8 42t6 38q3 22 -0.5 29.5t-17.5 12.5q-10 3 -17 4.5t-8 -0.5q-5 -6 -14 -72t-19.5 -158t-18.5 -178t-10 -135l-3 -69l41 9
q40 9 77.5 24t60.5 31q11 9 17 11.5t9.5 0.5t9.5 -9q61 -61 -126 -166q-33 -19 -57.5 -35t-28.5 -21q-3 -5 -6.5 -35.5t-6.5 -71.5q-4 -93 -17 -119t-42 2q-34 39 -50 152q-5 36 -10 49.5t-14 15.5q-46 14 -107 75t-99 130q-23 45 -46 121.5t-32 137.5q-12 90 7 204.5
t58 195.5q45 85 127.5 147.5t163.5 74.5l48 5l8 56q6 44 17.5 96t23.5 92.5t19 49.5q16 14 35 -5t32 -62q5 -19 6.5 -37t-0.5 -45t-8 -75l-15 -112zM487 584v0q6 51 9.5 85.5t1.5 37.5q-2 1 -13.5 -9.5t-28.5 -27.5q-74 -85 -102.5 -198t7.5 -182q9 -15 29 -34.5t39 -34.5
t27 -15q3 1 6.5 37.5t4.5 91.5q2 56 8 126.5t12 122.5z" />
    <glyph glyph-name="sterling" unicode="&#xa3;" horiz-adv-x="1143" 
d="M996 161v0q44 23 68 2t19 -71q-18 -122 -118.5 -184t-237.5 -38q-25 5 -61 16t-65 22q-84 34 -139.5 42.5t-111.5 -3.5q-45 -9 -66.5 -9t-40.5 10q-19 9 -41.5 28.5t-38.5 40.5t-18 36q1 11 17.5 39.5t38.5 59.5q136 190 169 385q8 44 10.5 64t-0.5 25q-1 2 -5.5 3.5
t-16 1.5t-33.5 -1q-39 -1 -63 2.5t-43 15.5q-31 18 -48 45.5t3 52.5q11 10 49.5 24t81 24.5t64.5 12.5h3q3 -1 6.5 0.5t6 8t3.5 22t1 43.5t-2 72t-6 107q-9 127 -9 184t9 101q51 287 294 300q131 9 246 -105q112 -102 114 -208q1 -33 -4.5 -50t-23.5 -33q-51 -49 -112 13
q-19 16 -27.5 36.5t-13.5 57.5q-10 58 -25 82t-30 23q-26 -2 -63.5 -27.5t-53.5 -52.5q-45 -75 -16 -367l17 -169l33 -4q41 -5 83.5 -25.5t67 -49t13.5 -56.5q-8 -17 -34 -22t-86 -9l-89 -4l-12 -81q-40 -256 -157 -445l-17 -27l93 -31q112 -42 191.5 -29t226.5 99z" />
    <glyph glyph-name="currency" unicode="&#xa4;" horiz-adv-x="1626" 
d="M1481 719v0q-81 -111 -223 -167q15 -83 -2 -169q-8 -35 -21 -70q39 -17 74 -31q118 -46 170 -82t68 -84q24 -59 3.5 -81t-99.5 -23q-30 -1 -66.5 1.5t-61.5 7.5q-107 21 -203 100q-77 -87 -165 -119q-116 -39 -197 -10q-63 21 -111 71q-63 -66 -147.5 -108.5
t-162.5 -44.5q-192 0 -9 174q23 21 55.5 55t60.5 65q47 52 83 86q-8 25 -11.5 53t-4.5 69q-3 63 4 118q-97 29 -180.5 99.5t-116.5 153.5q-67 179 160 69q27 -14 70.5 -33t82.5 -34q41 -16 73 -30q15 18 33 35q59 58 104.5 67.5t94.5 -27.5l40 -30l50 25q51 27 91 23t88 -40
q35 -26 64 -60q35 33 66 63q90 90 144.5 122.5t104.5 28.5q64 -2 75.5 -29.5t-19.5 -100.5q-11 -28 -28 -60t-31 -53zM888 267v0q44 18 93 66q-7 62 52 58q19 25 33 49q22 42 34 85q-147 13 -38 126q-26 14 -53.5 25t-44.5 12q-20 2 -24 -6.5t1 -43.5q6 -31 -2.5 -56
t-40.5 -74t-62 -103.5t-49.5 -95.5t-18.5 -51q1 -8 20.5 -9.5t46.5 3.5t53 15z" />
    <glyph glyph-name="yen" unicode="&#xa5;" horiz-adv-x="1160" 
d="M1026 1565v0q20 7 32.5 8t21.5 -7q25 -25 21 -65l-5 -23q-4 -19 -11 -40q-5 -16 -8 -28q-9 -38 -58 -128.5t-122 -203.5l-62 -97l27 -8q21 -6 34.5 -11t28 -14t39.5 -26q49 -35 68 -86t-22 -74q-8 -3 -17.5 -9.5t-17.5 -13.5q-20 -18 -59.5 -24.5t-115.5 -6.5h-82l-1 -31
q-1 -17 -1.5 -32t-0.5 -22v-1q0 -2 0.5 -3t3 -2.5t8.5 -3t17 -4t29 -6.5q155 -24 164 -109q5 -25 -2.5 -47.5t-28.5 -22.5q-2 0 -6.5 -2t-9.5 -7q-16 -16 -61.5 -32t-92.5 -24l-47 -7l-22 -175q-18 -150 -30.5 -210t-28.5 -73q-18 -17 -42 -16t-42 18q-44 43 -64 115
q-14 50 -22 134t-6 151l2 57h-51q-56 0 -90.5 8.5t-61.5 29.5q-36 31 -44 80.5t21 82.5q7 6 17.5 13.5t21.5 12.5q26 10 85.5 20.5t94.5 10.5q13 0 22 1l10 2v4q4 14 7 43l5 37h-110q-50 0 -77.5 1t-42 4t-24.5 9q-48 27 -65 102q-7 27 -6 41.5t12 33.5q16 32 67 53t159 42
q7 1 10 2l2 1l-1 3l-8 20q-25 61 -65 168.5t-53 167.5q-43 205 19 237q22 10 53.5 -2.5t58.5 -43.5q3 -4 6 -7q29 -28 74 -115t105 -312q14 -51 23 -74v-1l7 12q3 4 6 9q25 51 138 216q85 121 131.5 182t75 85t60.5 33z" />
    <glyph glyph-name="brokenbar" unicode="&#xa6;" horiz-adv-x="543" 
d="M327 491v0q35 -13 58.5 -39.5t22.5 -60.5q-27 -350 -34.5 -547.5t-1.5 -367.5q4 -98 2.5 -143.5t-8.5 -62.5q-19 -56 -58 -14q-31 35 -61 126.5t-47 204.5q-17 126 -33 311.5t-20 310.5q-2 79 0 182q12 69 62.5 93t117.5 7zM342 1932v0q14 -1 39.5 -27.5t41.5 -57.5
q40 -75 52.5 -188t3.5 -312q-3 -68 -6.5 -127t-10 -145t-19.5 -236q-8 -65 -47.5 -96t-128.5 -8q-56 18 -79 45t-25 59q15 283 37 533.5t46 375.5q35 178 96 184z" />
    <glyph glyph-name="section" unicode="&#xa7;" horiz-adv-x="840" 
d="M667 1328v0q51 -35 82.5 -99.5t33.5 -121t-36 -71.5q-34 -9 -42 24q-1 8 -3.5 12t-10.5 6t-24 4q-93 9 -188.5 -30t-141.5 -106q-5 -7 -8.5 -13.5t-3.5 -8.5q-4 -12 142 -114q43 -31 80.5 -59.5t52.5 -41.5q66 -64 103.5 -144.5t35.5 -155.5q0 -23 -4 -37t-16 -33
q-8 -13 -13.5 -24t-5.5 -14q-1 -4 -8 -17.5t-17 -29.5q-10 -15 -14.5 -24t-5 -14t2.5 -9q9 -15 21.5 -53t18.5 -73q8 -43 2 -94q-3 -33 -8 -49t-19 -38q-32 -49 -94.5 -87.5t-126.5 -47.5q-35 -4 -69 -1t-55 11q-23 10 -40.5 27t-45.5 55q-23 30 -31.5 50t-6.5 36
q2 14 11.5 14t17.5 -12q5 -10 9.5 -12t14.5 2q7 2 24.5 5.5t37.5 5.5q75 12 137.5 44.5t91.5 74.5q12 18 14 29t-9 23.5t-39 36.5q-12 10 -26 22q-38 34 -66 57q-106 88 -135 211q-8 31 -9.5 51.5t3.5 59.5q4 36 8.5 53.5t12.5 29.5l14 22l-36 46q-75 101 -105 222t-2 215
q48 135 205 195q56 21 100 25.5t99 -5.5q36 -6 54 -12t36 -18zM479 451v0l-23 -17l25 -23q9 -7 18.5 -16.5l17.5 -17.5q4 -4 8 -7q8 -8 14 -13t8 -6q2 0 7.5 4.5t13.5 11.5q18 18 31 39.5t16 39.5q3 13 0 20t-16 16l-19 16l-39 -15q-16 -7 -33.5 -16t-28.5 -16z" />
    <glyph glyph-name="dieresis" unicode="&#xa8;" horiz-adv-x="555" 
d="M227 1311v0q27 -4 39.5 -14.5t23.5 -37.5q8 -20 8.5 -33.5t-6.5 -37.5q-17 -70 -69 -72q-14 -1 -23 2.5t-20 15.5q-8 9 -16.5 23.5t-12.5 27.5q-6 19 -5 32.5t9 35.5q12 37 28 49.5t44 8.5zM426 1306v0q43 7 63 -55q11 -38 -4.5 -76.5t-46.5 -54.5q-46 -19 -76 20
q-43 52 -24 115q5 21 11 31t15 17q10 7 15.5 8t12.5 -3q5 -2 14.5 -3t19.5 1z" />
    <glyph glyph-name="copyright" unicode="&#xa9;" horiz-adv-x="1889" 
d="M411 1071v0q164 160 371.5 213t415 0t370.5 -213q160 -163 213 -370t0 -414.5t-213 -370.5q-163 -159 -370.5 -212t-415 0t-371.5 212q-160 163 -213 370.5t0 414.5t213 370zM1447 37v0q126 129 168 293t0 328t-168 292q-129 126 -293 168t-328.5 0t-293.5 -168
q-126 -128 -168 -292t0 -328t168 -293q129 -126 293.5 -168t328.5 0t293 168zM1301 396v0q26 -7 22 -34q-2 -22 -20 -64q-118 -271 -323 -304h-1l-27 -1h-1q-15 0 -30 2q-127 16 -210 141q-39 57 -57 114t-23 133q-10 159 28 295q31 98 99.5 191t139.5 128q97 43 215 1
q77 -25 112 -115q6 -15 9.5 -26.5t5.5 -27t4 -43.5t2.5 -44t-1.5 -28.5t-6 -29.5q-9 -38 -28 -78.5t-38 -58.5q-16 -16 -35 -18q-20 0 -28 12t4 30q10 15 21 42.5t18 58.5q6 26 7 42.5t-1 46.5q-3 39 -10 63.5t-22 50.5q-13 20 -28.5 36.5t-22.5 20.5q-2 1 -14.5 -7.5
t-34.5 -33.5q-39 -48 -81 -128q-87 -177 -117 -389q-4 -31 -1.5 -74t9.5 -69q12 -39 36 -87t43 -71q9 -12 19.5 -15.5t32.5 -0.5q159 24 270 266q16 38 29.5 57t33.5 16z" />
    <glyph glyph-name="ordfeminine" unicode="&#xaa;" horiz-adv-x="882" 
d="M716 1296v0q26 31 53.5 11.5t46.5 -80.5q6 -20 8.5 -48t2 -84t-4.5 -158q-7 -189 -15.5 -272t-21.5 -83q-5 0 -12.5 4t-13.5 10q-87 90 -101 297l-5 96l-57 -66q-221 -254 -323 -190q-94 56 -118 238q-10 66 -2.5 120t35.5 121q25 58 77.5 120t101.5 91q93 50 180 20.5
t135 -125.5q9 -21 14 -29t9 -5.5t11 12.5zM601 1093v0q22 28 35 48.5t11 24.5q-3 3 -13 6t-23 5q-53 2 -130 -59.5t-131 -147.5q-12 -19 -16.5 -28.5t-2.5 -12t9 -1.5q8 1 26 7t39 15q69 30 113 62t83 81z" />
    <glyph glyph-name="guillemotleft" unicode="&#xab;" horiz-adv-x="1206" 
d="M1096 838v0q21 -15 40 -59q11 -28 13 -46t-3 -47q-4 -27 -16 -49.5t-46.5 -58t-106.5 -101.5q-43 -42 -72.5 -70.5t-30.5 -32.5q0 -3 10.5 -14.5t27.5 -27.5q128 -122 109 -204q-9 -38 -37.5 -42t-89.5 26q-237 105 -302 265q-16 43 -4.5 93.5t98.5 129.5q30 33 93 81
t130 90.5t106 57.5q27 10 41 14t22.5 2.5t17.5 -7.5zM713 115v0q4 -9 10.5 -21.5t13.5 -22.5q10 -13 12.5 -24.5t0.5 -29.5q-1 -13 -3.5 -24t-4.5 -14q-3 -3 -14 -7t-24 -6q-16 -3 -24.5 -3.5t-17 3.5t-22.5 14q-14 8 -40 25l-52 34q-28 18 -75.5 46t-94.5 52
q-96 53 -136 79.5t-57 50.5q-24 31 -32 65t-5 93q2 67 17.5 109.5t52.5 82.5q45 49 132 111.5t185 116.5q108 60 150 64.5t51 -43.5q5 -26 -1.5 -67.5t-18.5 -63.5q-26 -48 -198 -172q-171 -124 -166 -134q2 -2 26 -18t58 -39q231 -155 277 -257z" />
    <glyph glyph-name="logicalnot" unicode="&#xac;" horiz-adv-x="1478" 
d="M1345 786v0q30 -39 51.5 -100t25.5 -116q1 -28 -8 -84t-22.5 -113.5t-26.5 -89.5q-8 -23 -31.5 -42t-53.5 -4t-59 94q-13 48 -16.5 84t-0.5 87l4 88l-277 6q-120 3 -254 3t-220 -2q-83 -3 -146 -3t-76 3q-38 11 -62 48t-26 78t25 66q10 9 35 20t53 20q115 35 274.5 45
t425.5 -1q150 -5 223.5 -12t105 -24t56.5 -51z" />
    <glyph glyph-name="registered" unicode="&#xae;" horiz-adv-x="1278" 
d="M1053 1151v0q102 -104 136 -236t0 -264.5t-136 -236.5q-104 -101 -236.5 -135t-265 0t-236.5 135q-102 104 -136 236.5t0 264.5t136 236q104 102 236.5 136t265 0t236.5 -136zM973 494v0q80 82 106.5 185.5t0 207t-106.5 184.5q-82 80 -185.5 106.5t-207 0t-185.5 -106.5
q-80 -81 -106.5 -184.5t0 -207t106.5 -185.5q82 -79 185.5 -106t207 0t185.5 106zM919 548v0q11 21 15 -7q5 -31 -15 -43q-37 -23 -108 3q-56 22 -118 87l-23 25l-1 -17q-2 -26 -1 -59t4 -56q2 -13 2.5 -19t-0.5 -9t-3 -5q-3 -2 -5 -3t-4 -0.5t-6 2.5q-10 5 -23.5 23
t-21.5 36q-9 24 -17.5 68t-10.5 82q-1 23 0.5 51t6.5 84q6 73 13 114t22 89q10 33 17.5 45.5t18.5 12.5q7 0 12 -2.5t12 -9.5q15 -13 18.5 -29t0.5 -53q-2 -19 -5 -41.5l-5 -37.5q-3 -16 -6.5 -43.5t-6.5 -54.5l-7 -62l10 5q78 38 130 135q19 35 27 58.5t10 49.5
q2 15 2 22.5t-2 13.5t-6 16q-8 19 -21.5 28.5t-39.5 15.5q-89 23 -187 -29q-71 -39 -114.5 -102t-43.5 -129q0 -10 0.5 -16t3 -9.5t7.5 -8.5q4 -4 9.5 -9t8.5 -8q11 -8 8.5 -13t-12.5 -4t-22 9q-17 12 -38 34t-30 35q-61 119 88 246q39 31 93 52.5t104 26.5q24 2 55 -1.5
t53 -10.5q105 -36 149 -132q12 -27 15 -46t1 -48q-8 -80 -57.5 -147t-120.5 -95q-10 -3 -19 -5.5t-13 -3.5q-4 0 -7 -1t-3 -2q1 -1 10 -11t22 -24q36 -37 73 -63.5t59 -31.5q5 -1 8.5 -1t7 2.5t9.5 8.5t11 12t7 10z" />
    <glyph glyph-name="macron" unicode="&#xaf;" horiz-adv-x="654" 
d="M258 1291v0q112 9 203.5 -4.5t114.5 -42.5q23 -30 -4.5 -44.5t-133.5 -28.5q-190 -27 -228 -15q-20 8 -40.5 33.5t-22.5 46.5q-2 19 17 34q7 6 16 9.5t27 6t51 5.5z" />
    <glyph glyph-name="degree" unicode="&#xb0;" horiz-adv-x="441" 
d="M300 1335v0q21 15 57 -39q15 -20 19 -34.5t5 -44.5q5 -80 -43 -124q-12 -12 -22.5 -16t-35.5 -5q-22 -1 -34 1t-23 9q-26 17 -47 52.5t-26 72.5q-5 48 17.5 88t55 55.5t59.5 -11.5q6 -6 10 -7t8 3zM313 1249v0v18l-20 -19q-35 -34 -46 -67q-3 -9 -1 -11t11 1
q6 2 13.5 6.5t12.5 9.5q30 29 30 62z" />
    <glyph glyph-name="plusminus" unicode="&#xb1;" horiz-adv-x="996" 
d="M867 700v0q34 -24 54 -54.5t18 -56.5q-1 -16 -5.5 -19.5t-19.5 -0.5q-37 4 -113 6t-169 2q-2 -33 -5 -67q-7 -69 -11.5 -102.5t-10.5 -48.5t-16 -29q-24 -34 -55 -54t-56 -18q-16 1 -19.5 5.5t-0.5 19.5q4 38 6 116.5t1 173.5q-103 -3 -172 -9q-38 -4 -58.5 -4t-31 4.5
t-20.5 14.5q-16 17 -27 40.5t-10 39.5q8 49 126 69q93 16 190 19q-4 93 -9 155q-4 38 -4.5 58.5t4.5 31.5t15 20q17 16 40.5 27t39.5 10q49 -7 69 -125q16 -90 19 -182q24 -2 50 -4q70 -7 103.5 -11.5t48.5 -10.5t29 -16zM866 160v0q35 -24 54.5 -54.5t17.5 -56.5
q-1 -16 -5.5 -19.5t-19.5 -0.5q-52 6 -168.5 7.5t-243 -2t-208.5 -10.5q-38 -4 -58.5 -4t-31.5 4.5t-21 14.5q-16 17 -26.5 40.5t-9.5 39.5q7 49 125 69q190 34 414 10q70 -7 103.5 -11.5t48.5 -10.5t29 -16z" />
    <glyph glyph-name="uni00B2" unicode="&#xb2;" horiz-adv-x="626" 
d="M507 783v0q27 -5 41.5 -21.5t12.5 -39.5q-2 -11 -11 -16.5t-33 -10.5q-18 -3 -34 -8t-24 -9q-13 -6 -51.5 -13.5t-81 -13.5t-67.5 -6q-23 0 -36 5t-28 20q-23 25 -36.5 68t-10.5 86q2 25 11 44.5t34 51.5q41 55 80 115.5t63 104.5t21 51q-3 1 -25.5 -6t-54.5 -19
q-33 -11 -57.5 -19t-29.5 -8q-8 0 -16 13.5t-13 33.5t-5 40q4 92 122 168q167 105 230 -101q63 -207 -110 -418q-17 -20 -28 -34.5t-10 -16.5q5 -3 35 -12t63.5 -18t48.5 -11z" />
    <glyph glyph-name="uni00B3" unicode="&#xb3;" horiz-adv-x="601" 
d="M446 1399v0q48 -33 74 -95.5t19 -127.5q-6 -70 -74 -126l-36 -31l37 -35q75 -68 67 -183q-2 -52 -17 -82t-52 -57q-29 -19 -79 -19t-95 7.5t-58 11.5q-35 10 -49 20t-19 27q-19 46 38 36q21 -3 37 1t48 21q111 58 102 72q-2 3 -22.5 11.5t-49.5 17.5q-62 18 -87.5 44
t-38.5 83q-8 31 -5.5 48.5t11.5 35.5q5 8 23 26.5t42 39.5q15 14 33 30.5t30.5 29.5t12.5 16q-1 2 -15.5 10t-33.5 15.5t-34 8.5q-25 1 -37 3t-18 7.5t-13 17.5q-30 57 12 103q42 43 113.5 47t133.5 -34z" />
    <glyph glyph-name="acute" unicode="&#xb4;" horiz-adv-x="647" 
d="M432 1369v0q160 73 125 -28q-20 -51 -84 -96.5t-139 -63.5q-19 -4 -46 -7.5t-49 -4.5q-60 -4 -77 6.5t-4 44.5q8 26 44 49t120 55q28 10 59 23t51 22z" />
    <glyph glyph-name="mu" unicode="&#xb5;" horiz-adv-x="1276" 
d="M1128 442v0q11 -112 27.5 -245.5t32.5 -239.5t26 -138q7 -21 -6 -50.5t-36.5 -47t-49.5 -1.5q-27 21 -60 125t-65 234.5t-54 230.5q-10 43 -17 72q-3 17 -6 33q-14 63 -23 173q-4 51 -6 92v17l-2 -5q-22 -55 -63 -177q-61 -189 -152 -159q-65 23 -121.5 111.5
t-81.5 201.5l-5 22l-57 -156q-34 -87 -62 -147q-29 -61 -45 -111q-22 -58 -63.5 -51t-66.5 52q-27 58 -25 108t17 80q45 104 134 345q56 151 97.5 257.5t47.5 118.5q28 35 64.5 13.5t72 -79.5t57.5 -132q7 -22 16 -73t17 -107l17 -110l3 3q43 52 135 216t168 323
q19 44 32 60.5t33 17.5q12 3 38 -1t51 -31.5t34 -97.5t-13 -200q-2 -13 -5 -25q-25 -120 -36.5 -230.5t1.5 -291.5z" />
    <glyph glyph-name="paragraph" unicode="&#xb6;" horiz-adv-x="1205" 
d="M944 1323v0q143 -68 197 -191q9 -22 -10.5 -39t-55 -21t-74.5 13q3 -12 5 -28t3 -41q2 -72 -13.5 -303.5t-38.5 -471.5q-4 -44 -8.5 -102t-6.5 -104q-4 -67 -6.5 -101t-6.5 -49t-12 -24q-8 -13 -13.5 -14.5t-18.5 5.5q-33 16 -62 102q-16 53 -26 182.5t-7 254.5
q4 157 16.5 366t26.5 348q-34 -2 -45 -10q-4 -3 -3.5 -10.5t5.5 -21.5q33 -93 -23 -473q-25 -164 -36.5 -288t-14.5 -272q-1 -34 -0.5 -52.5t3 -28t8.5 -17.5q12 -23 9 -57t-16.5 -62t-33.5 -31q-3 0 -12 6.5t-20 15.5q-59 53 -91 208t-25 352l2 30l-80 30q-97 35 -153.5 89
t-94.5 145q-67 153 -23 298q24 86 88 161q38 45 74.5 75.5t95.5 66.5q69 42 126 62t140 30q79 11 128 5t103 -33zM611 961v0l18 83l-31 -16q-231 -124 -264 -323q-4 -29 6.5 -48.5t45.5 -47.5q17 -13 51 -30t65 -29.5t39 -11.5q2 2 6.5 28.5t8.5 64.5q17 155 55 330z" />
    <glyph glyph-name="periodcentered" unicode="&#xb7;" horiz-adv-x="417" 
d="M221 608v0q28 -1 61 -16.5t58 -40.5q14 -13 18 -22.5t1 -23.5q-5 -26 -27 -59.5t-44 -48.5q-23 -15 -42.5 -13t-43.5 21q-35 24 -46 45.5t-7 52.5q3 17 9.5 37t14.5 35q8 16 13.5 23t13 8.5t21.5 1.5z" />
    <glyph glyph-name="periodcentered" unicode="&#x2219;" horiz-adv-x="417" 
d="M221 608v0q28 -1 61 -16.5t58 -40.5q14 -13 18 -22.5t1 -23.5q-5 -26 -27 -59.5t-44 -48.5q-23 -15 -42.5 -13t-43.5 21q-35 24 -46 45.5t-7 52.5q3 17 9.5 37t14.5 35q8 16 13.5 23t13 8.5t21.5 1.5z" />
    <glyph glyph-name="cedilla" unicode="&#xb8;" horiz-adv-x="505" 
d="M344 -90v0q106 -116 44 -221q-65 -94 -176 -34q-31 18 -49 39.5t-18 34t26 4.5q35 -7 73.5 -1.5t62 23.5t13.5 50q-5 13 -23 32t-47 22q-61 3 -74 35.5t-8 97.5q2 52 12.5 93.5t39.5 42.5q15 0 33 -11.5t32 -36.5q9 -16 11.5 -33.5t-1.5 -52.5q-3 -29 18 -52z" />
    <glyph glyph-name="uni00B9" unicode="&#xb9;" horiz-adv-x="564" 
d="M418 1424v0q37 -20 62 -85.5t27 -151.5q2 -133 -37 -352q-27 -145 -52 -189.5t-54 1.5q-8 11 -17 33.5t-15 46.5q-14 44 -12.5 115t17.5 201q6 45 8.5 76.5t1.5 34.5q-2 0 -19 -14t-41 -37q-108 -105 -132 -35q-4 9 -6 23t-3 28q-1 12 4.5 26t21 38t46.5 66
q87 119 128.5 155.5t71.5 19.5z" />
    <glyph glyph-name="ordmasculine" unicode="&#xba;" horiz-adv-x="797" 
d="M500 1399v0q41 27 71.5 25t62.5 -33q66 -61 87 -164.5t-8 -220.5q-33 -119 -106.5 -222t-154.5 -142q-91 -41 -151 -18q-96 30 -139 209q-12 45 -14.5 78.5t0.5 89.5q13 227 128 353q50 56 86 66.5t70 -20.5l28 -26zM574 1050v0q26 50 38.5 98t6.5 69q-4 10 -23.5 23
t-42 23.5t-36.5 10.5q-10 0 -14.5 -2.5t-6 -12.5t-0.5 -32q1 -28 -7.5 -51.5t-37.5 -69.5q-28 -47 -55.5 -98.5t-45.5 -90t-19 -48.5q1 -7 15.5 -7.5t35.5 5.5t42 16q35 19 78 67.5t72 99.5z" />
    <glyph glyph-name="guillemotright" unicode="&#xbb;" horiz-adv-x="1207" 
d="M201 35v0q-22 14 -40 59q-11 27 -13.5 45.5t3.5 47.5q3 27 15.5 49.5t47 58t105.5 101.5q43 41 72.5 70t31.5 32q0 3 -11 15t-28 27q-128 122 -109 205q10 38 38.5 41.5t88.5 -25.5q237 -106 302 -265q16 -43 4.5 -93.5t-98.5 -129.5q-29 -33 -92.5 -81t-130 -90.5
t-106.5 -57.5q-27 -11 -41 -14.5t-22 -2t-17 7.5zM584 758v0q-4 9 -11 21.5t-14 22.5q-9 13 -12 24t-1 29q1 14 3.5 24.5t4.5 14.5q3 3 14 6.5t25 6.5q15 3 23.5 3t17 -4t23.5 -13q13 -8 39 -25t53 -34q27 -18 75 -46t94 -53q96 -52 136 -79t57 -51q25 -31 33 -64.5t5 -93.5
q-3 -67 -18.5 -109t-52.5 -82q-45 -49 -132 -111.5t-185 -116.5q-108 -60 -150 -64.5t-51 43.5q-5 25 1.5 66.5t19.5 64.5q26 48 197 171q171 124 166 135q-2 2 -25.5 18t-58.5 39q-231 154 -276 257z" />
    <glyph glyph-name="onequarter" unicode="&#xbc;" horiz-adv-x="1402" 
d="M1193 1330v0q42 -55 23 -120.5t-63 -136.5q-25 -40 -65 -102q-103 -160 -261.5 -418.5t-325.5 -568.5q-98 -170 -137 -265q-26 -61 -41.5 -82t-31.5 3q-20 31 -27 85t1 114q11 99 103.5 288.5t304.5 550.5q229 390 334.5 540.5t145.5 141.5q7 -1 18.5 -9t21.5 -21z
M346 1014v0q-2 1 -19 -13.5t-41 -37.5q-107 -104 -132 -35q-3 9 -5.5 23.5t-3.5 27.5q0 13 5 27t21 38t47 65q86 120 127.5 156.5t71.5 18.5q37 -19 62 -85t28 -152q1 -133 -38 -352q-27 -145 -52 -189.5t-54 1.5q-8 11 -16.5 34t-15.5 46q-14 45 -12.5 115.5t17.5 200.5
q6 46 8.5 77t1.5 34zM1227 464v0q10 6 17.5 3.5t22.5 -16.5q80 -71 40 -368q-6 -48 -11 -101.5t-7 -88.5q-3 -54 -13.5 -99t-21.5 -47q-2 0 -8 5.5t-13 13.5q-27 38 -50.5 122t-26.5 155q0 25 -2.5 29t-11.5 -6q-27 -25 -75 -42t-101 -21q-62 0 -96 23q-29 22 -44 67t-17 99
q-1 33 3 52t17 41q20 35 60 92t77 104.5t48 53.5q19 8 40 -16.5t31 -66.5q10 -38 2 -74.5t-39 -99.5q-12 -26 -21 -44.5t-9 -20.5q1 -1 10.5 -4.5t23.5 -7.5q15 -4 33 -11t31 -14t22.5 -10t11.5 -1q2 3 5.5 22t6.5 45q21 207 65 232z" />
    <glyph glyph-name="onehalf" unicode="&#xbd;" horiz-adv-x="1352" 
d="M1193 1330v0q42 -55 23 -120.5t-63 -136.5q-26 -40 -65 -102q-103 -160 -261.5 -418.5t-325.5 -568.5q-99 -170 -137 -265q-26 -61 -41.5 -82t-31.5 3q-20 31 -27.5 85t1.5 114q11 99 103.5 288.5t304.5 550.5q229 390 334.5 540.5t145.5 141.5q6 -1 18 -9t22 -21z
M346 1014v0q-2 1 -19 -13.5t-41 -37.5q-107 -104 -132 -35q-3 9 -5.5 23.5t-3.5 27.5q0 13 5 27t21 38t47 65q86 120 127.5 156.5t71.5 18.5q37 -19 62 -85t28 -152q1 -133 -38 -352q-27 -145 -52 -189.5t-54 1.5q-8 11 -17 34t-15 46q-14 45 -12.5 115.5t17.5 200.5
q6 46 8.5 77t1.5 34zM1234 -88v0q26 -5 40.5 -22t12.5 -39q-2 -11 -11 -16.5t-33 -10.5q-18 -3 -34 -8t-23 -9q-14 -6 -52 -13.5t-81 -13.5t-68 -6q-23 0 -36 5t-27 20q-24 25 -37.5 68t-9.5 86q1 25 10 44.5t34 51.5q41 55 80.5 115.5t63.5 104.5t20 51q-3 1 -25.5 -6
t-54.5 -19q-33 -11 -57.5 -19t-29.5 -8q-8 0 -15.5 13.5t-13 33.5t-5.5 40q4 92 123 168q167 105 229 -101q63 -207 -110 -418q-17 -20 -28 -34.5t-10 -16.5q5 -3 35 -12t63.5 -18t49.5 -11z" />
    <glyph glyph-name="threequarters" unicode="&#xbe;" horiz-adv-x="1385" 
d="M1200 1330v0q42 -55 23.5 -120.5t-62.5 -136.5q-26 -40 -66 -102q-103 -160 -261.5 -418.5t-325.5 -568.5q-98 -170 -137 -265q-26 -61 -41.5 -82t-31.5 3q-20 31 -27 85t1 114q11 99 103.5 288.5t305.5 550.5q228 390 334 540.5t145 141.5q7 -1 18.5 -9t21.5 -21z
M1210 464v0q10 6 17.5 3.5t22.5 -16.5q80 -71 40 -368q-6 -48 -11 -101.5t-7 -88.5q-3 -54 -14 -99t-21 -47q-2 0 -8 5.5t-13 13.5q-27 38 -50.5 122t-26.5 155q0 25 -2.5 29t-11.5 -6q-27 -25 -75 -42t-101 -21q-62 0 -96 23q-29 22 -44 67t-17 99q-1 34 3 52.5t17 40.5
q20 35 60 92t77 104.5t48 53.5q19 8 40 -16.5t31 -66.5q10 -38 2 -74t-39 -100q-12 -26 -21 -44.5t-9 -20.5q1 -1 10.5 -4.5t23.5 -7.5q15 -4 33 -11t31 -14t22.5 -10t11.5 -1q2 3 5.5 22t6.5 45q21 207 65 232zM464 507v0q-28 -19 -78 -19t-95 7t-58 12q-35 10 -49 20
t-19 27q-20 46 38 36q20 -3 36.5 1t47.5 21q112 58 103 71q-3 4 -23 12.5t-49 17.5q-62 18 -87.5 44t-39.5 83q-7 31 -4.5 48.5t11.5 35.5q5 8 23 26.5t42 39.5q15 14 33 30.5t30.5 29.5t12.5 15q-1 3 -15.5 11t-33.5 15.5t-34 8.5q-25 1 -37 3t-18 7.5t-13 17.5
q-31 57 12 103q42 43 113.5 47t133.5 -34q48 -33 74 -95.5t19 -127.5q-6 -70 -74 -126l-37 -31l38 -35q75 -68 67 -183q-2 -52 -17 -82t-53 -57z" />
    <glyph glyph-name="questiondown" unicode="&#xbf;" horiz-adv-x="1482" 
d="M1169 1333v0q-54 6 -106 84q-50 67 -33 126q5 19 21 51.5t34 62t29 38.5q14 9 44 0t52 -29q26 -26 47 -62.5t29 -68.5q7 -39 -8.5 -89t-46.5 -85q-18 -21 -30 -26.5t-32 -1.5zM574 -505v0q-117 27 -199.5 89t-152.5 176q-77 121 -64 230t119 225q51 58 122 105t200 108
q120 56 184.5 97t101.5 84q20 20 33 47t27.5 93.5t41.5 205.5q22 130 24 213q2 77 14 95q38 48 80 1q57 -62 80.5 -204t0.5 -296q-13 -78 -37.5 -135.5t-68.5 -114.5q-21 -27 -43.5 -48t-66 -50.5t-127.5 -82.5q-135 -85 -207.5 -143t-126.5 -125q-35 -43 -70 -110.5
t-47 -115.5q-7 -24 -3.5 -32t22.5 -16q32 -12 98 -14t120 8q268 54 571 335q26 24 49 41t32 20q27 6 59.5 -18t56.5 -63.5t26 -78.5q4 -73 -83 -179q-84 -103 -197.5 -189t-217.5 -126q-187 -74 -351 -32z" />
    <glyph glyph-name="Agrave" unicode="&#xc0;" horiz-adv-x="2061" 
d="M2267 -741q-15 4 -45.5 15t-63.5 25q-214 90 -341.5 206t-237.5 323q-107 199 -222 547l-37 116l-46 -5q-49 -7 -125 -20t-138.5 -24.5t-72.5 -15.5q-16 -13 -76 -160q-224 -552 -502 -734q-76 -48 -154 -68.5t-122 -3.5q-53 26 -68.5 110.5t5.5 196t78 218.5
q146 260 496 417q32 13 47.5 21.5t22.5 17t12 21.5q15 37 48 127.5t68 190t56 162.5q18 55 37.5 110.5t30.5 87.5q12 32 30 87.5t34 109.5q56 192 102 262t124 80q25 5 42.5 3t49.5 -15q30 -12 43.5 -22t21.5 -28q38 -80 96.5 -309t108.5 -492q14 -74 25 -125t13 -55
q31 1 111 13t171 35.5t158 59.5q40 23 56 27t16 -11q4 -34 -110.5 -90.5t-389.5 -105.5l6 -27q32 -132 102 -342t120 -323q142 -298 354 -474q43 -33 92.5 -60.5t67.5 -28.5q16 1 19.5 -7.5t-7.5 -21.5q-15 -15 -45 -21t-61 0v0v0zM225 -438q125 92 257 396q27 62 60 143
t57 144t22 68q-2 1 -27 -12.5t-60 -34.5t-68 -43t-54 -37q-218 -167 -282 -431q-19 -84 -7.5 -155.5t44.5 -74.5q6 1 22.5 11.5t35.5 25.5v0v0zM1011 526q24 4 70.5 11.5t95.5 14.5q48 8 80.5 13.5t35.5 6.5q0 3 -7.5 38.5t-19.5 87.5q-13 54 -29.5 130t-28.5 140
q-13 63 -22.5 108.5t-12.5 52.5q-6 16 -54 -143q-21 -67 -49.5 -152.5t-50.5 -149.5q-23 -62 -39 -106t-18 -50q-3 -7 7 -7.5t42 5.5v0v0zM1257 2049v0q85 -32 120.5 -55t43.5 -49q13 -34 -4 -44.5t-77 -6.5q-22 1 -49 4.5t-45 7.5q-76 18 -140 63.5t-84 96.5
q-35 101 125 28q20 -9 51 -22t59 -23z" />
    <glyph glyph-name="Aacute" unicode="&#xc1;" horiz-adv-x="2061" 
d="M2267 -741q-15 4 -45.5 15t-63.5 25q-214 90 -341.5 206t-237.5 323q-107 199 -222 547l-37 116l-46 -5q-49 -7 -125 -20t-138.5 -24.5t-72.5 -15.5q-16 -13 -76 -160q-224 -552 -502 -734q-76 -48 -154 -68.5t-122 -3.5q-53 26 -68.5 110.5t5.5 196t78 218.5
q146 260 496 417q32 13 47.5 21.5t22.5 17t12 21.5q15 37 48 127.5t68 190t56 162.5q18 55 37.5 110.5t30.5 87.5q12 32 30 87.5t34 109.5q56 192 102 262t124 80q25 5 42.5 3t49.5 -15q30 -12 43.5 -22t21.5 -28q38 -80 96.5 -309t108.5 -492q14 -74 25 -125t13 -55
q31 1 111 13t171 35.5t158 59.5q40 23 56 27t16 -11q4 -34 -110.5 -90.5t-389.5 -105.5l6 -27q32 -132 102 -342t120 -323q142 -298 354 -474q43 -33 92.5 -60.5t67.5 -28.5q16 1 19.5 -7.5t-7.5 -21.5q-15 -15 -45 -21t-61 0v0v0zM225 -438q125 92 257 396q27 62 60 143
t57 144t22 68q-2 1 -27 -12.5t-60 -34.5t-68 -43t-54 -37q-218 -167 -282 -431q-19 -84 -7.5 -155.5t44.5 -74.5q6 1 22.5 11.5t35.5 25.5v0v0zM1011 526q24 4 70.5 11.5t95.5 14.5q48 8 80.5 13.5t35.5 6.5q0 3 -7.5 38.5t-19.5 87.5q-13 54 -29.5 130t-28.5 140
q-13 63 -22.5 108.5t-12.5 52.5q-6 16 -54 -143q-21 -67 -49.5 -152.5t-50.5 -149.5q-23 -62 -39 -106t-18 -50q-3 -7 7 -7.5t42 5.5v0v0zM1373 2094v0q160 73 125 -28q-20 -51 -84 -96.5t-139 -63.5q-19 -4 -46 -7.5t-49 -4.5q-60 -4 -77 6.5t-4 44.5q8 26 44 49t120 55
q28 10 59 23t51 22z" />
    <glyph glyph-name="Acircumflex" unicode="&#xc2;" horiz-adv-x="2061" 
d="M2267 -741q-15 4 -45.5 15t-63.5 25q-214 90 -341.5 206t-237.5 323q-107 199 -222 547l-37 116l-46 -5q-49 -7 -125 -20t-138.5 -24.5t-72.5 -15.5q-16 -13 -76 -160q-224 -552 -502 -734q-76 -48 -154 -68.5t-122 -3.5q-53 26 -68.5 110.5t5.5 196t78 218.5
q146 260 496 417q32 13 47.5 21.5t22.5 17t12 21.5q15 37 48 127.5t68 190t56 162.5q18 55 37.5 110.5t30.5 87.5q12 32 30 87.5t34 109.5q56 192 102 262t124 80q25 5 42.5 3t49.5 -15q30 -12 43.5 -22t21.5 -28q38 -80 96.5 -309t108.5 -492q14 -74 25 -125t13 -55
q31 1 111 13t171 35.5t158 59.5q40 23 56 27t16 -11q4 -34 -110.5 -90.5t-389.5 -105.5l6 -27q32 -132 102 -342t120 -323q142 -298 354 -474q43 -33 92.5 -60.5t67.5 -28.5q16 1 19.5 -7.5t-7.5 -21.5q-15 -15 -45 -21t-61 0v0v0zM225 -438q125 92 257 396q27 62 60 143
t57 144t22 68q-2 1 -27 -12.5t-60 -34.5t-68 -43t-54 -37q-218 -167 -282 -431q-19 -84 -7.5 -155.5t44.5 -74.5q6 1 22.5 11.5t35.5 25.5v0v0zM1011 526q24 4 70.5 11.5t95.5 14.5q48 8 80.5 13.5t35.5 6.5q0 3 -7.5 38.5t-19.5 87.5q-13 54 -29.5 130t-28.5 140
q-13 63 -22.5 108.5t-12.5 52.5q-6 16 -54 -143q-21 -67 -49.5 -152.5t-50.5 -149.5q-23 -62 -39 -106t-18 -50q-3 -7 7 -7.5t42 5.5v0v0zM1291 2102v0q21 -19 53.5 -65t54.5 -86q9 -17 16 -36.5t9.5 -34.5t-0.5 -16q-1 0 -4 -1.5t-6 -2.5q-4 -2 -10.5 -0.5t-14.5 5.5
q-7 5 -24.5 25t-37.5 47q-24 35 -37 48.5t-18 12.5q-6 -2 -25 -22.5t-44 -51.5q-24 -31 -46.5 -56t-32.5 -33q-13 -11 -20 -13t-18 3q-11 4 -23.5 18.5t-20.5 30.5t-8 27q2 13 27 48.5t59 76t63.5 71t40.5 32.5q29 3 67 -27z" />
    <glyph glyph-name="Atilde" unicode="&#xc3;" horiz-adv-x="2061" 
d="M2267 -741q-15 4 -45.5 15t-63.5 25q-214 90 -341.5 206t-237.5 323q-107 199 -222 547l-37 116l-46 -5q-49 -7 -125 -20t-138.5 -24.5t-72.5 -15.5q-16 -13 -76 -160q-224 -552 -502 -734q-76 -48 -154 -68.5t-122 -3.5q-53 26 -68.5 110.5t5.5 196t78 218.5
q146 260 496 417q32 13 47.5 21.5t22.5 17t12 21.5q15 37 48 127.5t68 190t56 162.5q18 55 37.5 110.5t30.5 87.5q12 32 30 87.5t34 109.5q56 192 102 262t124 80q25 5 42.5 3t49.5 -15q30 -12 43.5 -22t21.5 -28q38 -80 96.5 -309t108.5 -492q14 -74 25 -125t13 -55
q31 1 111 13t171 35.5t158 59.5q40 23 56 27t16 -11q4 -34 -110.5 -90.5t-389.5 -105.5l6 -27q32 -132 102 -342t120 -323q142 -298 354 -474q43 -33 92.5 -60.5t67.5 -28.5q16 1 19.5 -7.5t-7.5 -21.5q-15 -15 -45 -21t-61 0v0v0zM225 -438q125 92 257 396q27 62 60 143
t57 144t22 68q-2 1 -27 -12.5t-60 -34.5t-68 -43t-54 -37q-218 -167 -282 -431q-19 -84 -7.5 -155.5t44.5 -74.5q6 1 22.5 11.5t35.5 25.5v0v0zM1011 526q24 4 70.5 11.5t95.5 14.5q48 8 80.5 13.5t35.5 6.5q0 3 -7.5 38.5t-19.5 87.5q-13 54 -29.5 130t-28.5 140
q-13 63 -22.5 108.5t-12.5 52.5q-6 16 -54 -143q-21 -67 -49.5 -152.5t-50.5 -149.5q-23 -62 -39 -106t-18 -50q-3 -7 7 -7.5t42 5.5v0v0zM1436 2091v0q15 -3 28.5 -30.5t20.5 -62.5t2 -59q-13 -47 -54.5 -74.5t-93.5 -24.5q-60 2 -126 69q-16 15 -28.5 25t-15.5 11
q-4 0 -18 -8t-32 -21q-36 -24 -64 -40.5t-34 -16.5q-2 0 -7.5 3.5t-11.5 9.5q-15 12 -23.5 33t-6.5 43q3 26 27.5 61.5t56 64t53.5 32.5q42 8 112 -74q19 -22 36.5 -38.5t24.5 -19.5q33 -12 68 4.5t50 50.5q14 35 22 49t14 13z" />
    <glyph glyph-name="Adieresis" unicode="&#xc4;" horiz-adv-x="2061" 
d="M2267 -741q-15 4 -45.5 15t-63.5 25q-214 90 -341.5 206t-237.5 323q-107 199 -222 547l-37 116l-46 -5q-49 -7 -125 -20t-138.5 -24.5t-72.5 -15.5q-16 -13 -76 -160q-224 -552 -502 -734q-76 -48 -154 -68.5t-122 -3.5q-53 26 -68.5 110.5t5.5 196t78 218.5
q146 260 496 417q32 13 47.5 21.5t22.5 17t12 21.5q15 37 48 127.5t68 190t56 162.5q18 55 37.5 110.5t30.5 87.5q12 32 30 87.5t34 109.5q56 192 102 262t124 80q25 5 42.5 3t49.5 -15q30 -12 43.5 -22t21.5 -28q38 -80 96.5 -309t108.5 -492q14 -74 25 -125t13 -55
q31 1 111 13t171 35.5t158 59.5q40 23 56 27t16 -11q4 -34 -110.5 -90.5t-389.5 -105.5l6 -27q32 -132 102 -342t120 -323q142 -298 354 -474q43 -33 92.5 -60.5t67.5 -28.5q16 1 19.5 -7.5t-7.5 -21.5q-15 -15 -45 -21t-61 0v0v0zM225 -438q125 92 257 396q27 62 60 143
t57 144t22 68q-2 1 -27 -12.5t-60 -34.5t-68 -43t-54 -37q-218 -167 -282 -431q-19 -84 -7.5 -155.5t44.5 -74.5q6 1 22.5 11.5t35.5 25.5v0v0zM1011 526q24 4 70.5 11.5t95.5 14.5q48 8 80.5 13.5t35.5 6.5q0 3 -7.5 38.5t-19.5 87.5q-13 54 -29.5 130t-28.5 140
q-13 63 -22.5 108.5t-12.5 52.5q-6 16 -54 -143q-21 -67 -49.5 -152.5t-50.5 -149.5q-23 -62 -39 -106t-18 -50q-3 -7 7 -7.5t42 5.5v0v0zM1137 2036v0q27 -4 39.5 -14.5t23.5 -37.5q8 -20 8.5 -33.5t-6.5 -37.5q-17 -70 -69 -72q-14 -1 -23 2.5t-20 15.5q-8 9 -16.5 23.5
t-12.5 27.5q-6 19 -5 32.5t9 35.5q12 37 28 49.5t44 8.5zM1336 2031v0q43 7 63 -55q11 -38 -4.5 -76.5t-46.5 -54.5q-46 -19 -76 20q-43 52 -24 115q5 21 11 31t15 17q10 7 15.5 8t12.5 -3q5 -2 14.5 -3t19.5 1z" />
    <glyph glyph-name="Aring" unicode="&#xc5;" horiz-adv-x="2061" 
d="M2267 -741q-15 4 -45.5 15t-63.5 25q-214 90 -341.5 206t-237.5 323q-107 199 -222 547l-37 116l-46 -5q-49 -7 -125 -20t-138.5 -24.5t-72.5 -15.5q-16 -13 -76 -160q-224 -552 -502 -734q-76 -48 -154 -68.5t-122 -3.5q-53 26 -68.5 110.5t5.5 196t78 218.5
q146 260 496 417q32 13 47.5 21.5t22.5 17t12 21.5q15 37 48 127.5t68 190t56 162.5q18 55 37.5 110.5t30.5 87.5q12 32 30 87.5t34 109.5q56 192 102 262t124 80q25 5 42.5 3t49.5 -15q30 -12 43.5 -22t21.5 -28q38 -80 96.5 -309t108.5 -492q14 -74 25 -125t13 -55
q31 1 111 13t171 35.5t158 59.5q40 23 56 27t16 -11q4 -34 -110.5 -90.5t-389.5 -105.5l6 -27q32 -132 102 -342t120 -323q142 -298 354 -474q43 -33 92.5 -60.5t67.5 -28.5q16 1 19.5 -7.5t-7.5 -21.5q-15 -15 -45 -21t-61 0v0v0zM225 -438q125 92 257 396q27 62 60 143
t57 144t22 68q-2 1 -27 -12.5t-60 -34.5t-68 -43t-54 -37q-218 -167 -282 -431q-19 -84 -7.5 -155.5t44.5 -74.5q6 1 22.5 11.5t35.5 25.5v0v0zM1011 526q24 4 70.5 11.5t95.5 14.5q48 8 80.5 13.5t35.5 6.5q0 3 -7.5 38.5t-19.5 87.5q-13 54 -29.5 130t-28.5 140
q-13 63 -22.5 108.5t-12.5 52.5q-6 16 -54 -143q-21 -67 -49.5 -152.5t-50.5 -149.5q-23 -62 -39 -106t-18 -50q-3 -7 7 -7.5t42 5.5v0v0zM1265 2060v0q21 15 57 -39q15 -20 19 -34.5t5 -44.5q5 -80 -43 -124q-12 -12 -22.5 -16t-35.5 -5q-22 -1 -34 1t-23 9
q-26 17 -47 52.5t-26 72.5q-5 48 17.5 88t55 55.5t59.5 -11.5q6 -6 10 -7t8 3zM1278 1974v0v18l-20 -19q-35 -34 -46 -67q-3 -9 -1 -11t11 1q6 2 13.5 6.5t12.5 9.5q30 29 30 62z" />
    <glyph glyph-name="AE" unicode="&#xc6;" horiz-adv-x="2965" 
d="M225 -438q125 92 257 396q27 62 60 143t57 144t22 68q-2 1 -27 -12.5t-60 -34.5t-68 -43t-54 -37q-218 -167 -282 -431q-19 -84 -7.5 -155.5t44.5 -74.5q6 1 22.5 11.5t35.5 25.5zM1011 526q24 4 70.5 11.5t95.5 14.5q48 8 80.5 13.5t35.5 6.5q0 3 -7.5 38.5t-19.5 87.5
q-13 54 -29.5 130t-28.5 140q-13 63 -22.5 108.5t-12.5 52.5q-6 16 -54 -143q-21 -67 -49.5 -152.5t-50.5 -149.5q-23 -62 -39 -106t-18 -50q-3 -7 7 -7.5t42 5.5zM2170 -575q15 -14 31 -27q43 -33 92.5 -60.5t67.5 -28.5q16 1 19.5 -7.5t-7.5 -21.5q-15 -15 -45 -21t-61 0
q-15 4 -45.5 15t-63.5 25q-214 90 -341.5 206t-237.5 323q-107 199 -222 547l-37 116l-46 -5q-49 -7 -125 -20t-138.5 -24.5t-72.5 -15.5q-16 -13 -76 -160q-224 -552 -502 -734q-76 -48 -154 -68.5t-122 -3.5q-53 26 -68.5 110.5t5.5 196t78 218.5q146 260 496 417
q32 13 47.5 21.5t22.5 17t12 21.5q15 37 48 127.5t68 190t56 162.5q18 55 37.5 110.5t30.5 87.5q12 32 30 87.5t34 109.5q56 192 102 262t124 80q25 5 42.5 3t49.5 -15q30 -12 43.5 -22t21.5 -28q38 -80 96.5 -309t108.5 -492q14 -74 25 -125t13 -55q31 1 111 13
q63 9 133 26q-73 36 -116 100q-19 28 -25.5 48.5t-11.5 59.5q-7 57 -0.5 105.5t28.5 108.5q47 124 130.5 238.5t173.5 180.5q124 86 269 121t267.5 17.5t178.5 -90.5q42 -56 37 -145q-8 -117 -64 -219.5t-136 -145.5q-22 -12 -42 -16.5t-48 -4.5q-64 1 -81.5 17t19.5 41
q62 45 99.5 150t28.5 209q-6 57 -22 81t-49 26q-28 0 -89.5 -21t-106.5 -47q-105 -64 -187.5 -192.5t-118.5 -285.5q-10 -40 -2 -107q5 -41 11 -60t20 -38q21 -29 46 -40q7 -4 16 -6q18 9 27 11q16 4 16 -11v-6h6q17 0 33.5 3.5t40 14t64.5 31.5q97 50 166.5 69.5
t152.5 20.5q54 1 80.5 -1.5t45.5 -10.5q26 -10 35 -22t9 -37q3 -23 -16 -31q-72 -37 -220 -86q-84 -26 -126.5 -52.5t-103.5 -88.5q-86 -88 -167 -234t-115 -273q-22 -92 -16.5 -189.5t35.5 -169.5q31 -67 82 -107.5t103 -41.5q55 1 125 29.5t134 76.5q49 37 109.5 94.5
t94.5 99.5q229 300 318 606q20 79 36 105t43 24q9 0 18 -3t14 -8q5 -4 6.5 -9t-1 -17.5t-11 -39t-23.5 -73.5q-13 -39 -27 -84.5t-23 -77.5q-73 -239 -209.5 -457t-264.5 -299q-101 -59 -218 -81q-51 -9 -125 -10h-34zM1946 643q-117 -42 -327 -79l6 -27q30 -124 93 -316
q70 166 214 329q31 35 51 58t20 24q-1 0 -23 5q-10 2 -23 4q-6 1 -11 2z" />
    <glyph glyph-name="Ccedilla" unicode="&#xc7;" horiz-adv-x="1323" 
d="M710 -501q163 27 311 182q152 159 263 429q36 91 57 121q18 25 37 25q4 0 8 -1q25 -3 25 -34q0 -4 -2.5 -27t-40.5 -118q-116 -292 -283 -463q-165 -168 -359 -198q0 -5 -1 -10v-7q0 -25 18 -45l31 -32q67 -73 67 -142q0 -40 -23 -79q-40 -57 -96 -57q-37 0 -80 23
q-31 18 -49 39.5t-18 34.5q0 7 9 7q7 0 17 -3q19 -4 39 -4q17 0 45 4t52 22q16 13 16 32q0 8 -3 18q-5 13 -23 32t-47 22q-61 3 -74 36q-9 23 -9 63q0 16 1 34q0 6 1 12q-248 36 -415 305q-79 124 -116 247t-47 291q-4 73 -4 143q0 269 63 507q62 215 202 418t279 277
q96 46 204 46q106 0 224 -45q78 -29 128 -84.5t89 -157.5q13 -30 19.5 -53.5t10 -57.5t7.5 -97q5 -61 6 -96v-17q0 -24 -3 -46.5t-11 -58.5q-20 -85 -58 -171t-71 -121q-32 -31 -57 -32q-36 0 -36 21q0 11 8 26q24 36 47.5 101.5t38.5 136.5q13 59 16 99q1 11 1 25
q0 34 -4 83q-5 90 -20.5 148t-50.5 119q-25 45 -60.5 86.5t-56.5 52.5q-5 2 -11 2q-44 0 -125 -104.5t-170 -289.5q-182 -400 -246 -879q-5 -42 -5 -92q0 -38 4 -108.5t19 -131.5q25 -89 76 -198.5t93 -165.5q22 -29 45 -40q11 35 38 36q15 0 33 -11q15 -10 27 -29z" />
    <glyph glyph-name="Egrave" unicode="&#xc8;" horiz-adv-x="1326" 
d="M439 -569q-105 17 -196 69q-211 124 -226 376q-17 343 276 674q31 35 51 58t20 24q-1 0 -23 5q-10 2 -23 4q-152 29 -222 134q-19 28 -25.5 48.5t-11.5 59.5q-7 57 -0.5 105.5t28.5 108.5q47 124 130.5 238.5t173.5 180.5q124 86 269 121t267.5 17.5t178.5 -90.5
q42 -56 37 -145q-8 -117 -64 -219.5t-136 -145.5q-22 -12 -41.5 -16.5t-48.5 -4.5q-64 1 -81 17t19 41q62 45 99.5 150t28.5 209q-6 57 -22 81t-49 26q-28 0 -89.5 -21t-106.5 -47q-105 -64 -187.5 -192.5t-118.5 -285.5q-10 -40 -2 -107q5 -41 11 -60t20 -38
q21 -29 45.5 -40.5t65.5 -11.5q18 0 34 3.5t39.5 14t64.5 31.5q97 50 166.5 69.5t152.5 20.5q54 1 80.5 -1.5t45.5 -10.5q26 -10 35 -22t9 -37q3 -23 -16 -31q-72 -37 -220 -86q-83 -26 -126 -52.5t-104 -88.5q-86 -88 -167 -234t-115 -273q-22 -92 -16.5 -189.5
t35.5 -169.5q32 -67 82.5 -107.5t102.5 -41.5q55 1 125 29.5t134 76.5q49 37 109.5 94.5t94.5 99.5q229 300 318 606q20 79 36 105t43 24q9 0 18 -3t14 -8q5 -4 6.5 -9t-1 -17.5t-11 -39t-23.5 -73.5q-12 -39 -26.5 -84.5t-23.5 -77.5q-73 -239 -209.5 -457t-264.5 -299
q-101 -59 -218 -81q-51 -9 -125 -10t-126 6v0v0zM819 2027v0q85 -32 120.5 -55t43.5 -49q13 -34 -4 -44.5t-77 -6.5q-22 1 -49 4.5t-45 7.5q-76 18 -140 63.5t-84 96.5q-35 101 125 28q20 -9 51 -22t59 -23z" />
    <glyph glyph-name="Eacute" unicode="&#xc9;" horiz-adv-x="1326" 
d="M439 -569q-105 17 -196 69q-211 124 -226 376q-17 343 276 674q31 35 51 58t20 24q-1 0 -23 5q-10 2 -23 4q-152 29 -222 134q-19 28 -25.5 48.5t-11.5 59.5q-7 57 -0.5 105.5t28.5 108.5q47 124 130.5 238.5t173.5 180.5q124 86 269 121t267.5 17.5t178.5 -90.5
q42 -56 37 -145q-8 -117 -64 -219.5t-136 -145.5q-22 -12 -41.5 -16.5t-48.5 -4.5q-64 1 -81 17t19 41q62 45 99.5 150t28.5 209q-6 57 -22 81t-49 26q-28 0 -89.5 -21t-106.5 -47q-105 -64 -187.5 -192.5t-118.5 -285.5q-10 -40 -2 -107q5 -41 11 -60t20 -38
q21 -29 45.5 -40.5t65.5 -11.5q18 0 34 3.5t39.5 14t64.5 31.5q97 50 166.5 69.5t152.5 20.5q54 1 80.5 -1.5t45.5 -10.5q26 -10 35 -22t9 -37q3 -23 -16 -31q-72 -37 -220 -86q-83 -26 -126 -52.5t-104 -88.5q-86 -88 -167 -234t-115 -273q-22 -92 -16.5 -189.5
t35.5 -169.5q32 -67 82.5 -107.5t102.5 -41.5q55 1 125 29.5t134 76.5q49 37 109.5 94.5t94.5 99.5q229 300 318 606q20 79 36 105t43 24q9 0 18 -3t14 -8q5 -4 6.5 -9t-1 -17.5t-11 -39t-23.5 -73.5q-12 -39 -26.5 -84.5t-23.5 -77.5q-73 -239 -209.5 -457t-264.5 -299
q-101 -59 -218 -81q-51 -9 -125 -10t-126 6v0v0zM885 2072v0q160 73 125 -28q-20 -51 -84 -96.5t-139 -63.5q-19 -4 -46 -7.5t-49 -4.5q-60 -4 -77 6.5t-4 44.5q8 26 44 49t120 55q28 10 59 23t51 22z" />
    <glyph glyph-name="Ecircumflex" unicode="&#xca;" horiz-adv-x="1326" 
d="M439 -569q-105 17 -196 69q-211 124 -226 376q-17 343 276 674q31 35 51 58t20 24q-1 0 -23 5q-10 2 -23 4q-152 29 -222 134q-19 28 -25.5 48.5t-11.5 59.5q-7 57 -0.5 105.5t28.5 108.5q47 124 130.5 238.5t173.5 180.5q124 86 269 121t267.5 17.5t178.5 -90.5
q42 -56 37 -145q-8 -117 -64 -219.5t-136 -145.5q-22 -12 -41.5 -16.5t-48.5 -4.5q-64 1 -81 17t19 41q62 45 99.5 150t28.5 209q-6 57 -22 81t-49 26q-28 0 -89.5 -21t-106.5 -47q-105 -64 -187.5 -192.5t-118.5 -285.5q-10 -40 -2 -107q5 -41 11 -60t20 -38
q21 -29 45.5 -40.5t65.5 -11.5q18 0 34 3.5t39.5 14t64.5 31.5q97 50 166.5 69.5t152.5 20.5q54 1 80.5 -1.5t45.5 -10.5q26 -10 35 -22t9 -37q3 -23 -16 -31q-72 -37 -220 -86q-83 -26 -126 -52.5t-104 -88.5q-86 -88 -167 -234t-115 -273q-22 -92 -16.5 -189.5
t35.5 -169.5q32 -67 82.5 -107.5t102.5 -41.5q55 1 125 29.5t134 76.5q49 37 109.5 94.5t94.5 99.5q229 300 318 606q20 79 36 105t43 24q9 0 18 -3t14 -8q5 -4 6.5 -9t-1 -17.5t-11 -39t-23.5 -73.5q-12 -39 -26.5 -84.5t-23.5 -77.5q-73 -239 -209.5 -457t-264.5 -299
q-101 -59 -218 -81q-51 -9 -125 -10t-126 6v0v0zM803 2080v0q21 -19 53.5 -65t54.5 -86q9 -17 16 -36.5t9.5 -34.5t-0.5 -16q-1 0 -4 -1.5t-6 -2.5q-4 -2 -10.5 -0.5t-14.5 5.5q-7 5 -24.5 25t-37.5 47q-24 35 -37 48.5t-18 12.5q-6 -2 -25 -22.5t-44 -51.5
q-24 -31 -46.5 -56t-32.5 -33q-13 -11 -20 -13t-18 3q-11 4 -23.5 18.5t-20.5 30.5t-8 27q2 13 27 48.5t59 76t63.5 71t40.5 32.5q29 3 67 -27z" />
    <glyph glyph-name="Edieresis" unicode="&#xcb;" horiz-adv-x="1326" 
d="M439 -569q-105 17 -196 69q-211 124 -226 376q-17 343 276 674q31 35 51 58t20 24q-1 0 -23 5q-10 2 -23 4q-152 29 -222 134q-19 28 -25.5 48.5t-11.5 59.5q-7 57 -0.5 105.5t28.5 108.5q47 124 130.5 238.5t173.5 180.5q124 86 269 121t267.5 17.5t178.5 -90.5
q42 -56 37 -145q-8 -117 -64 -219.5t-136 -145.5q-22 -12 -41.5 -16.5t-48.5 -4.5q-64 1 -81 17t19 41q62 45 99.5 150t28.5 209q-6 57 -22 81t-49 26q-28 0 -89.5 -21t-106.5 -47q-105 -64 -187.5 -192.5t-118.5 -285.5q-10 -40 -2 -107q5 -41 11 -60t20 -38
q21 -29 45.5 -40.5t65.5 -11.5q18 0 34 3.5t39.5 14t64.5 31.5q97 50 166.5 69.5t152.5 20.5q54 1 80.5 -1.5t45.5 -10.5q26 -10 35 -22t9 -37q3 -23 -16 -31q-72 -37 -220 -86q-83 -26 -126 -52.5t-104 -88.5q-86 -88 -167 -234t-115 -273q-22 -92 -16.5 -189.5
t35.5 -169.5q32 -67 82.5 -107.5t102.5 -41.5q55 1 125 29.5t134 76.5q49 37 109.5 94.5t94.5 99.5q229 300 318 606q20 79 36 105t43 24q9 0 18 -3t14 -8q5 -4 6.5 -9t-1 -17.5t-11 -39t-23.5 -73.5q-12 -39 -26.5 -84.5t-23.5 -77.5q-73 -239 -209.5 -457t-264.5 -299
q-101 -59 -218 -81q-51 -9 -125 -10t-126 6v0v0zM649 2014v0q27 -4 39.5 -14.5t23.5 -37.5q8 -20 8.5 -33.5t-6.5 -37.5q-17 -70 -69 -72q-14 -1 -23 2.5t-20 15.5q-8 9 -16.5 23.5t-12.5 27.5q-6 19 -5 32.5t9 35.5q12 37 28 49.5t44 8.5zM848 2009v0q43 7 63 -55
q11 -38 -4.5 -76.5t-46.5 -54.5q-46 -19 -76 20q-43 52 -24 115q5 21 11 31t15 17q10 7 15.5 8t12.5 -3q5 -2 14.5 -3t19.5 1z" />
    <glyph glyph-name="Igrave" unicode="&#xcc;" horiz-adv-x="941" 
d="M225 -557q-30 11 -50.5 31t-21.5 37q3 35 62 73t146 61q32 8 44 14t10 13q-6 25 -13.5 115t-13.5 206q-8 198 -1 490t26 485l9 82l-28 74q-28 74 -76.5 162t-95.5 149l-46 59l-44 3q-73 8 -102.5 45.5t9.5 71.5q26 18 72 14t80 -27l31 -22l83 21q212 56 306 72t169 8
q76 -5 117.5 -20.5t72.5 -50.5q15 -16 21 -24t5 -11.5t-8 -6.5q-14 -8 -47 3q-21 7 -71.5 13.5t-98.5 9.5t-65 0q-9 -2 -13 -5.5t-3.5 -16t3.5 -39.5q12 -92 -17 -386q-8 -89 -16.5 -185.5t-24.5 -282.5q-1 -24 2.5 -88t12.5 -149q22 -222 29.5 -348.5t6.5 -259.5v-180
l55 -18q24 -7 47 -17t34 -17q28 -20 50.5 -49t21.5 -45q-3 -17 -23.5 -21.5t-46.5 6.5q-16 8 -36 8.5t-61 -3.5q-30 -4 -59.5 -9t-43.5 -9q-15 -4 -40 -9t-49 -9q-24 -3 -64.5 -9t-78.5 -13q-48 -8 -76 -10.5t-47.5 1t-43.5 13.5v0v0zM452 1266l16 100q7 43 14 81.5t11 54.5
q4 15 5 26.5t-1 13.5t-25.5 -2t-56.5 -12q-29 -7 -55 -13l-39 -9q-4 -1 -6 -1l-21 -3l48 -62q20 -26 42.5 -59.5t35.5 -57.5l32 -57v0v0zM573 2048v0q85 -32 120.5 -55t43.5 -49q13 -34 -4 -44.5t-77 -6.5q-22 1 -49 4.5t-45 7.5q-76 18 -140 63.5t-84 96.5q-35 101 125 28
q20 -9 51 -22t59 -23z" />
    <glyph glyph-name="Iacute" unicode="&#xcd;" horiz-adv-x="941" 
d="M225 -557q-30 11 -50.5 31t-21.5 37q3 35 62 73t146 61q32 8 44 14t10 13q-6 25 -13.5 115t-13.5 206q-8 198 -1 490t26 485l9 82l-28 74q-28 74 -76.5 162t-95.5 149l-46 59l-44 3q-73 8 -102.5 45.5t9.5 71.5q26 18 72 14t80 -27l31 -22l83 21q212 56 306 72t169 8
q76 -5 117.5 -20.5t72.5 -50.5q15 -16 21 -24t5 -11.5t-8 -6.5q-14 -8 -47 3q-21 7 -71.5 13.5t-98.5 9.5t-65 0q-9 -2 -13 -5.5t-3.5 -16t3.5 -39.5q12 -92 -17 -386q-8 -89 -16.5 -185.5t-24.5 -282.5q-1 -24 2.5 -88t12.5 -149q22 -222 29.5 -348.5t6.5 -259.5v-180
l55 -18q24 -7 47 -17t34 -17q28 -20 50.5 -49t21.5 -45q-3 -17 -23.5 -21.5t-46.5 6.5q-16 8 -36 8.5t-61 -3.5q-30 -4 -59.5 -9t-43.5 -9q-15 -4 -40 -9t-49 -9q-24 -3 -64.5 -9t-78.5 -13q-48 -8 -76 -10.5t-47.5 1t-43.5 13.5v0v0zM452 1266l16 100q7 43 14 81.5t11 54.5
q4 15 5 26.5t-1 13.5t-25.5 -2t-56.5 -12q-29 -7 -55 -13l-39 -9q-4 -1 -6 -1l-21 -3l48 -62q20 -26 42.5 -59.5t35.5 -57.5l32 -57v0v0zM649 2093v0q160 73 125 -28q-20 -51 -84 -96.5t-139 -63.5q-19 -4 -46 -7.5t-49 -4.5q-60 -4 -77 6.5t-4 44.5q8 26 44 49t120 55
q28 10 59 23t51 22z" />
    <glyph glyph-name="Icircumflex" unicode="&#xce;" horiz-adv-x="941" 
d="M225 -557q-30 11 -50.5 31t-21.5 37q3 35 62 73t146 61q32 8 44 14t10 13q-6 25 -13.5 115t-13.5 206q-8 198 -1 490t26 485l9 82l-28 74q-28 74 -76.5 162t-95.5 149l-46 59l-44 3q-73 8 -102.5 45.5t9.5 71.5q26 18 72 14t80 -27l31 -22l83 21q212 56 306 72t169 8
q76 -5 117.5 -20.5t72.5 -50.5q15 -16 21 -24t5 -11.5t-8 -6.5q-14 -8 -47 3q-21 7 -71.5 13.5t-98.5 9.5t-65 0q-9 -2 -13 -5.5t-3.5 -16t3.5 -39.5q12 -92 -17 -386q-8 -89 -16.5 -185.5t-24.5 -282.5q-1 -24 2.5 -88t12.5 -149q22 -222 29.5 -348.5t6.5 -259.5v-180
l55 -18q24 -7 47 -17t34 -17q28 -20 50.5 -49t21.5 -45q-3 -17 -23.5 -21.5t-46.5 6.5q-16 8 -36 8.5t-61 -3.5q-30 -4 -59.5 -9t-43.5 -9q-15 -4 -40 -9t-49 -9q-24 -3 -64.5 -9t-78.5 -13q-48 -8 -76 -10.5t-47.5 1t-43.5 13.5v0v0zM452 1266l16 100q7 43 14 81.5t11 54.5
q4 15 5 26.5t-1 13.5t-25.5 -2t-56.5 -12q-29 -7 -55 -13l-39 -9q-4 -1 -6 -1l-21 -3l48 -62q20 -26 42.5 -59.5t35.5 -57.5l32 -57v0v0zM567 2101v0q21 -19 53.5 -65t54.5 -86q9 -17 16 -36.5t9.5 -34.5t-0.5 -16q-1 0 -4 -1.5t-6 -2.5q-4 -2 -10.5 -0.5t-14.5 5.5
q-7 5 -24.5 25t-37.5 47q-24 35 -37 48.5t-18 12.5q-6 -2 -25 -22.5t-44 -51.5q-24 -31 -46.5 -56t-32.5 -33q-13 -11 -20 -13t-18 3q-11 4 -23.5 18.5t-20.5 30.5t-8 27q2 13 27 48.5t59 76t63.5 71t40.5 32.5q29 3 67 -27z" />
    <glyph glyph-name="Idieresis" unicode="&#xcf;" horiz-adv-x="941" 
d="M225 -557q-30 11 -50.5 31t-21.5 37q3 35 62 73t146 61q32 8 44 14t10 13q-6 25 -13.5 115t-13.5 206q-8 198 -1 490t26 485l9 82l-28 74q-28 74 -76.5 162t-95.5 149l-46 59l-44 3q-73 8 -102.5 45.5t9.5 71.5q26 18 72 14t80 -27l31 -22l83 21q212 56 306 72t169 8
q76 -5 117.5 -20.5t72.5 -50.5q15 -16 21 -24t5 -11.5t-8 -6.5q-14 -8 -47 3q-21 7 -71.5 13.5t-98.5 9.5t-65 0q-9 -2 -13 -5.5t-3.5 -16t3.5 -39.5q12 -92 -17 -386q-8 -89 -16.5 -185.5t-24.5 -282.5q-1 -24 2.5 -88t12.5 -149q22 -222 29.5 -348.5t6.5 -259.5v-180
l55 -18q24 -7 47 -17t34 -17q28 -20 50.5 -49t21.5 -45q-3 -17 -23.5 -21.5t-46.5 6.5q-16 8 -36 8.5t-61 -3.5q-30 -4 -59.5 -9t-43.5 -9q-15 -4 -40 -9t-49 -9q-24 -3 -64.5 -9t-78.5 -13q-48 -8 -76 -10.5t-47.5 1t-43.5 13.5v0v0zM452 1266l16 100q7 43 14 81.5t11 54.5
q4 15 5 26.5t-1 13.5t-25.5 -2t-56.5 -12q-29 -7 -55 -13l-39 -9q-4 -1 -6 -1l-21 -3l48 -62q20 -26 42.5 -59.5t35.5 -57.5l32 -57v0v0zM413 2035v0q27 -4 39.5 -14.5t23.5 -37.5q8 -20 8.5 -33.5t-6.5 -37.5q-17 -70 -69 -72q-14 -1 -23 2.5t-20 15.5q-8 9 -16.5 23.5
t-12.5 27.5q-6 19 -5 32.5t9 35.5q12 37 28 49.5t44 8.5zM612 2030v0q43 7 63 -55q11 -38 -4.5 -76.5t-46.5 -54.5q-46 -19 -76 20q-43 52 -24 115q5 21 11 31t15 17q10 7 15.5 8t12.5 -3q5 -2 14.5 -3t19.5 1z" />
    <glyph glyph-name="Eth" unicode="&#xd0;" horiz-adv-x="2009" 
d="M938 -351q31 26 76.5 72t81.5 86.5t38 48.5q-3 6 -42 -12t-88 -49q-69 -45 -130 -117.5t-63 -112.5q7 -15 127 84zM665 -555q-71 38 -50 122q17 65 83 146t154 144q128 91 387 148q9 4 37.5 50.5t62.5 112t61 125.5q85 197 113 384q11 93 3.5 241t-27.5 225
q-55 174 -146 263q-128 108 -354 80q-379 -54 -762 -403q-34 -31 -61 -53t-34 -27q-7 -3 -22.5 -4.5t-31.5 -1.5q-24 1 -35 6.5t-23 21.5q-12 15 -16 26.5t-2 28.5q15 111 142.5 229t339.5 216q260 117 525 127t477 -89q283 -134 359 -469q16 -74 17.5 -185.5t-11.5 -195.5
q-47 -285 -200 -537q-22 -38 -37 -64t-15 -27h2q1 1 2 1q2 1 7 2q10 2 25 5.5t30.5 7.5t25.5 6q28 8 50 5.5t18 -21.5v-1q0 -4 -5 -12.5t-17 -17.5t-35 -15l-159 -42l-49 -65q-156 -204 -315.5 -339t-290.5 -172q-51 -13 -117.5 -7.5t-105.5 25.5zM982 616q63 -5 97 -8
q43 -5 62 -10.5t38 -16.5q43 -24 68.5 -54.5t22.5 -55.5q-1 -16 -7 -19.5t-25 -1.5q-67 7 -215 8h-52l-6 -74q-10 -125 -17 -178q-5 -36 -12 -70t-12 -51q-5 -15 -10 -33t-8 -30q-2 -14 -5 -20t-11.5 -7t-26.5 0q-39 0 -62 18q-26 20 -55.5 74.5t-46.5 112.5q-13 50 -21 162
q-3 45 -5 93q-136 -3 -227 -10q-49 -3 -75 -3.5t-40 4t-26 15.5q-21 17 -35 40.5t-12 38.5q9 49 160 70q120 16 251 19q0 102 6 177q20 222 40.5 332.5t53.5 142.5t90 18q84 -16 112 -69q13 -31 20 -135t4 -218q-3 -92 -11 -230q-1 -15 -2 -31z" />
    <glyph glyph-name="Ntilde" unicode="&#xd1;" horiz-adv-x="1408" 
d="M1476 -562q-65 31 -116.5 67.5t-123.5 104.5q-227 204 -320 472q-143 385 -74 982q18 161 22 260.5t-8 102.5q-29 -2 -80.5 -44.5t-94.5 -99.5q-99 -139 -167.5 -419t-89.5 -629q-28 -459 -59 -526q-11 -13 -45 -7.5t-70 25.5q-85 47 -134 182q-85 237 -111 914
q-5 138 1.5 259.5t27.5 272.5q14 104 24.5 154t25.5 65.5t43 13.5q31 -1 66 -21.5t57 -50.5q7 -11 17.5 -38t18.5 -57q8 -24 12 -48.5t6 -76.5t2 -158.5v-293.5q-1 -216 1 -385t5 -212l6 -90l20 209q24 273 62 468.5t108 401.5q30 92 65 150.5t89 107.5q37 34 59.5 48
t52.5 21q85 26 176 -19q98 -44 145 -111.5t73 -201.5q25 -152 -10 -478q-15 -149 -14 -358.5t17 -300.5q26 -121 76.5 -241t109.5 -201q62 -81 131.5 -137t120.5 -64q57 -9 25 -31q-46 -29 -148 18v0v0zM1025 1996v0q15 -3 28.5 -30.5t20.5 -62.5t2 -59q-13 -47 -54.5 -74.5
t-93.5 -24.5q-60 2 -126 69q-16 15 -28.5 25t-15.5 11q-4 0 -18 -8t-32 -21q-36 -24 -64 -40.5t-34 -16.5q-2 0 -7.5 3.5t-11.5 9.5q-15 12 -23.5 33t-6.5 43q3 26 27.5 61.5t56 64t53.5 32.5q42 8 112 -74q19 -22 36.5 -38.5t24.5 -19.5q33 -12 68 4.5t50 50.5q14 35 22 49
t14 13z" />
    <glyph glyph-name="Ograve" unicode="&#xd2;" 
d="M972 -563q-101 9 -221 79q-60 33 -96 61t-72 67q-13 15 -22.5 26t-11.5 12q-1 1 -7 -4t-13 -14q-22 -26 -49 -25t-78 30q-192 110 -290 270q-97 176 -108 396q-4 189 55 414.5t162 414.5q37 65 99 148.5t112 138.5q107 110 249.5 162t275.5 30q54 -10 102.5 -28.5
t109.5 -51.5q185 -99 277.5 -257t123.5 -428q20 -152 18 -284.5t-25 -292.5q-73 -517 -321 -761q-120 -111 -270 -103v0v0zM971 -355q82 50 172.5 162.5t138.5 225.5q179 438 138 885q-11 101 -42.5 218t-64.5 178q-55 102 -147 156q-106 67 -193.5 63t-190.5 -83
q-35 -25 -58 -50t-53 -71q-170 -249 -267 -627q-72 -271 -87.5 -450t20.5 -321q13 -56 33 -94t58 -80q12 -13 19.5 -19t17.5 -7.5t29 -0.5h21l-28 49q-27 49 -58 157q-42 147 -47 284t26 311q17 95 52.5 227.5t60.5 196.5q93 213 210 232q54 3 106.5 -27t64.5 -71
q5 -14 -2.5 -39.5t-30.5 -79.5q-38 -85 -62.5 -165t-54.5 -219q-89 -389 -62 -625q18 -209 100 -304q34 -44 75.5 -46.5t105.5 34.5v0v0zM911 2015v0q85 -32 120.5 -55t43.5 -49q13 -34 -4 -44.5t-77 -6.5q-22 1 -49 4.5t-45 7.5q-76 18 -140 63.5t-84 96.5q-35 101 125 28
q20 -9 51 -22t59 -23z" />
    <glyph glyph-name="Oacute" unicode="&#xd3;" 
d="M972 -563q-101 9 -221 79q-60 33 -96 61t-72 67q-13 15 -22.5 26t-11.5 12q-1 1 -7 -4t-13 -14q-22 -26 -49 -25t-78 30q-192 110 -290 270q-97 176 -108 396q-4 189 55 414.5t162 414.5q37 65 99 148.5t112 138.5q107 110 249.5 162t275.5 30q54 -10 102.5 -28.5
t109.5 -51.5q185 -99 277.5 -257t123.5 -428q20 -152 18 -284.5t-25 -292.5q-73 -517 -321 -761q-120 -111 -270 -103v0v0zM971 -355q82 50 172.5 162.5t138.5 225.5q179 438 138 885q-11 101 -42.5 218t-64.5 178q-55 102 -147 156q-106 67 -193.5 63t-190.5 -83
q-35 -25 -58 -50t-53 -71q-170 -249 -267 -627q-72 -271 -87.5 -450t20.5 -321q13 -56 33 -94t58 -80q12 -13 19.5 -19t17.5 -7.5t29 -0.5h21l-28 49q-27 49 -58 157q-42 147 -47 284t26 311q17 95 52.5 227.5t60.5 196.5q93 213 210 232q54 3 106.5 -27t64.5 -71
q5 -14 -2.5 -39.5t-30.5 -79.5q-38 -85 -62.5 -165t-54.5 -219q-89 -389 -62 -625q18 -209 100 -304q34 -44 75.5 -46.5t105.5 34.5v0v0zM1017 2060v0q160 73 125 -28q-20 -51 -84 -96.5t-139 -63.5q-19 -4 -46 -7.5t-49 -4.5q-60 -4 -77 6.5t-4 44.5q8 26 44 49t120 55
q28 10 59 23t51 22z" />
    <glyph glyph-name="Ocircumflex" unicode="&#xd4;" 
d="M972 -563q-101 9 -221 79q-60 33 -96 61t-72 67q-13 15 -22.5 26t-11.5 12q-1 1 -7 -4t-13 -14q-22 -26 -49 -25t-78 30q-192 110 -290 270q-97 176 -108 396q-4 189 55 414.5t162 414.5q37 65 99 148.5t112 138.5q107 110 249.5 162t275.5 30q54 -10 102.5 -28.5
t109.5 -51.5q185 -99 277.5 -257t123.5 -428q20 -152 18 -284.5t-25 -292.5q-73 -517 -321 -761q-120 -111 -270 -103v0v0zM971 -355q82 50 172.5 162.5t138.5 225.5q179 438 138 885q-11 101 -42.5 218t-64.5 178q-55 102 -147 156q-106 67 -193.5 63t-190.5 -83
q-35 -25 -58 -50t-53 -71q-170 -249 -267 -627q-72 -271 -87.5 -450t20.5 -321q13 -56 33 -94t58 -80q12 -13 19.5 -19t17.5 -7.5t29 -0.5h21l-28 49q-27 49 -58 157q-42 147 -47 284t26 311q17 95 52.5 227.5t60.5 196.5q93 213 210 232q54 3 106.5 -27t64.5 -71
q5 -14 -2.5 -39.5t-30.5 -79.5q-38 -85 -62.5 -165t-54.5 -219q-89 -389 -62 -625q18 -209 100 -304q34 -44 75.5 -46.5t105.5 34.5v0v0zM935 2068v0q21 -19 53.5 -65t54.5 -86q9 -17 16 -36.5t9.5 -34.5t-0.5 -16q-1 0 -4 -1.5t-6 -2.5q-4 -2 -10.5 -0.5t-14.5 5.5
q-7 5 -24.5 25t-37.5 47q-24 35 -37 48.5t-18 12.5q-6 -2 -25 -22.5t-44 -51.5q-24 -31 -46.5 -56t-32.5 -33q-13 -11 -20 -13t-18 3q-11 4 -23.5 18.5t-20.5 30.5t-8 27q2 13 27 48.5t59 76t63.5 71t40.5 32.5q29 3 67 -27z" />
    <glyph glyph-name="Otilde" unicode="&#xd5;" 
d="M972 -563q-101 9 -221 79q-60 33 -96 61t-72 67q-13 15 -22.5 26t-11.5 12q-1 1 -7 -4t-13 -14q-22 -26 -49 -25t-78 30q-192 110 -290 270q-97 176 -108 396q-4 189 55 414.5t162 414.5q37 65 99 148.5t112 138.5q107 110 249.5 162t275.5 30q54 -10 102.5 -28.5
t109.5 -51.5q185 -99 277.5 -257t123.5 -428q20 -152 18 -284.5t-25 -292.5q-73 -517 -321 -761q-120 -111 -270 -103v0v0zM971 -355q82 50 172.5 162.5t138.5 225.5q179 438 138 885q-11 101 -42.5 218t-64.5 178q-55 102 -147 156q-106 67 -193.5 63t-190.5 -83
q-35 -25 -58 -50t-53 -71q-170 -249 -267 -627q-72 -271 -87.5 -450t20.5 -321q13 -56 33 -94t58 -80q12 -13 19.5 -19t17.5 -7.5t29 -0.5h21l-28 49q-27 49 -58 157q-42 147 -47 284t26 311q17 95 52.5 227.5t60.5 196.5q93 213 210 232q54 3 106.5 -27t64.5 -71
q5 -14 -2.5 -39.5t-30.5 -79.5q-38 -85 -62.5 -165t-54.5 -219q-89 -389 -62 -625q18 -209 100 -304q34 -44 75.5 -46.5t105.5 34.5v0v0zM1080 2057v0q15 -3 28.5 -30.5t20.5 -62.5t2 -59q-13 -47 -54.5 -74.5t-93.5 -24.5q-60 2 -126 69q-16 15 -28.5 25t-15.5 11
q-4 0 -18 -8t-32 -21q-36 -24 -64 -40.5t-34 -16.5q-2 0 -7.5 3.5t-11.5 9.5q-15 12 -23.5 33t-6.5 43q3 26 27.5 61.5t56 64t53.5 32.5q42 8 112 -74q19 -22 36.5 -38.5t24.5 -19.5q33 -12 68 4.5t50 50.5q14 35 22 49t14 13z" />
    <glyph glyph-name="Odieresis" unicode="&#xd6;" 
d="M972 -563q-101 9 -221 79q-60 33 -96 61t-72 67q-13 15 -22.5 26t-11.5 12q-1 1 -7 -4t-13 -14q-22 -26 -49 -25t-78 30q-192 110 -290 270q-97 176 -108 396q-4 189 55 414.5t162 414.5q37 65 99 148.5t112 138.5q107 110 249.5 162t275.5 30q54 -10 102.5 -28.5
t109.5 -51.5q185 -99 277.5 -257t123.5 -428q20 -152 18 -284.5t-25 -292.5q-73 -517 -321 -761q-120 -111 -270 -103v0v0zM971 -355q82 50 172.5 162.5t138.5 225.5q179 438 138 885q-11 101 -42.5 218t-64.5 178q-55 102 -147 156q-106 67 -193.5 63t-190.5 -83
q-35 -25 -58 -50t-53 -71q-170 -249 -267 -627q-72 -271 -87.5 -450t20.5 -321q13 -56 33 -94t58 -80q12 -13 19.5 -19t17.5 -7.5t29 -0.5h21l-28 49q-27 49 -58 157q-42 147 -47 284t26 311q17 95 52.5 227.5t60.5 196.5q93 213 210 232q54 3 106.5 -27t64.5 -71
q5 -14 -2.5 -39.5t-30.5 -79.5q-38 -85 -62.5 -165t-54.5 -219q-89 -389 -62 -625q18 -209 100 -304q34 -44 75.5 -46.5t105.5 34.5v0v0zM781 2002v0q27 -4 39.5 -14.5t23.5 -37.5q8 -20 8.5 -33.5t-6.5 -37.5q-17 -70 -69 -72q-14 -1 -23 2.5t-20 15.5q-8 9 -16.5 23.5
t-12.5 27.5q-6 19 -5 32.5t9 35.5q12 37 28 49.5t44 8.5zM980 1997v0q43 7 63 -55q11 -38 -4.5 -76.5t-46.5 -54.5q-46 -19 -76 20q-43 52 -24 115q5 21 11 31t15 17q10 7 15.5 8t12.5 -3q5 -2 14.5 -3t19.5 1z" />
    <glyph glyph-name="multiply" unicode="&#xd7;" horiz-adv-x="996" 
d="M821 400q10 -40 6 -76.5t-23 -54.5q-11 -12 -16.5 -11.5t-15.5 12.5q-25 27 -82 77t-128 110q-23 -24 -47 -48q-50 -48 -75 -70.5t-39.5 -30.5t-30.5 -12q-40 -11 -77 -6t-54 22q-12 12 -12 17.5t12 14.5q28 27 80 85.5t112 132.5q-80 64 -137 104q-32 21 -47.5 34
t-20.5 23.5t-6 24.5q-2 23 5 48t18 37q37 32 141 -28q81 -48 157 -108q57 74 93 124q21 32 34 48t24 21t24 6q24 1 49 -5.5t36 -17.5q33 -37 -27 -140q-46 -80 -103 -152q17 -17 36 -35q49 -51 71.5 -76t30 -39t12.5 -31z" />
    <glyph glyph-name="Oslash" unicode="&#xd8;" 
d="M987 1533h-14q-88 -4 -191 -83q-35 -25 -58 -50t-53 -71q-170 -249 -267 -627q-72 -271 -87.5 -450t20.5 -321q10 -41 23 -72q22 74 49 156q-23 105 -27 205q-5 137 26 311q17 95 52.5 227.5t60.5 196.5q93 213 210 232q49 3 97 -22q30 73 59 142q56 129 100 226z
M684 105q-2 -78 6 -144q18 -209 100 -304q34 -44 75.5 -46.5t105.5 34.5q82 50 172.5 162.5t138.5 225.5q179 438 138 885q-11 101 -42.5 218t-64.5 178q-41 77 -103 126q-23 -52 -48 -113q-61 -152 -113 -275q-80 -190 -136 -340q-26 -73 -68.5 -185t-80.5 -211
q-42 -110 -80 -211zM1244 1518q130 -88 203 -212q92 -158 123 -428q20 -152 18 -284.5t-25 -292.5q-73 -517 -321 -761q-120 -111 -270 -103q-101 9 -221 79q-60 33 -96 61t-72 67q-13 15 -22.5 26t-11.5 12q-1 1 -7 -4t-13 -14q-3 -3 -5 -6q-38 -111 -67 -205
q-22 -74 -40.5 -128t-23.5 -63q-9 -20 -29 -29.5t-44.5 9.5t-46.5 85q-26 107 12 263q15 60 35 132q-132 93 -208 217q-97 176 -108 396q-4 189 55 414.5t162 414.5q37 65 99 148.5t112 138.5q107 110 249.5 162t275.5 30q38 -7 72 -18q25 51 44 89q65 127 94 139
q11 6 24.5 3t35.5 -15q39 -20 71 -53.5t32 -68.5q-4 -28 -52 -127q-16 -33 -34 -74z" />
    <glyph glyph-name="Ugrave" unicode="&#xd9;" horiz-adv-x="1687" 
d="M1712 -804q-16 6 -45 23.5t-57 37.5q-203 156 -369 565q-82 204 -129 489l-25 152l-15 -60q-27 -114 -73.5 -275t-76.5 -246q-112 -305 -264 -367q-93 -30 -181 10q-176 91 -291.5 314.5t-150.5 541.5q-33 304 -22 531q3 123 16.5 207t42.5 174q66 211 149 249
q31 19 59.5 17.5t72.5 -22.5q124 -55 153 -194q11 -60 4.5 -254t-26.5 -377q-13 -121 -21 -314.5t-8.5 -366.5t7.5 -233q23 -139 41 -150q16 -6 56 16.5t72 56.5q150 164 290 684q17 61 42.5 148t47.5 158q48 161 63 263q21 157 42 257.5t51 183.5q35 102 56.5 143t50.5 59
q53 40 133 -13q54 -33 76.5 -84t18 -147t-32.5 -265q-18 -121 -28 -352q-29 -844 184 -1327q33 -68 71 -126t66 -82q13 -11 22 -20.5t9 -13.5q-1 -8 -24 -5.5t-57 14.5v0v0zM929 2000v0q85 -32 120.5 -55t43.5 -49q13 -34 -4 -44.5t-77 -6.5q-22 1 -49 4.5t-45 7.5
q-76 18 -140 63.5t-84 96.5q-35 101 125 28q20 -9 51 -22t59 -23z" />
    <glyph glyph-name="Uacute" unicode="&#xda;" horiz-adv-x="1687" 
d="M1712 -804q-16 6 -45 23.5t-57 37.5q-203 156 -369 565q-82 204 -129 489l-25 152l-15 -60q-27 -114 -73.5 -275t-76.5 -246q-112 -305 -264 -367q-93 -30 -181 10q-176 91 -291.5 314.5t-150.5 541.5q-33 304 -22 531q3 123 16.5 207t42.5 174q66 211 149 249
q31 19 59.5 17.5t72.5 -22.5q124 -55 153 -194q11 -60 4.5 -254t-26.5 -377q-13 -121 -21 -314.5t-8.5 -366.5t7.5 -233q23 -139 41 -150q16 -6 56 16.5t72 56.5q150 164 290 684q17 61 42.5 148t47.5 158q48 161 63 263q21 157 42 257.5t51 183.5q35 102 56.5 143t50.5 59
q53 40 133 -13q54 -33 76.5 -84t18 -147t-32.5 -265q-18 -121 -28 -352q-29 -844 184 -1327q33 -68 71 -126t66 -82q13 -11 22 -20.5t9 -13.5q-1 -8 -24 -5.5t-57 14.5v0v0zM1045 2045v0q160 73 125 -28q-20 -51 -84 -96.5t-139 -63.5q-19 -4 -46 -7.5t-49 -4.5
q-60 -4 -77 6.5t-4 44.5q8 26 44 49t120 55q28 10 59 23t51 22z" />
    <glyph glyph-name="Ucircumflex" unicode="&#xdb;" horiz-adv-x="1687" 
d="M1712 -804q-16 6 -45 23.5t-57 37.5q-203 156 -369 565q-82 204 -129 489l-25 152l-15 -60q-27 -114 -73.5 -275t-76.5 -246q-112 -305 -264 -367q-93 -30 -181 10q-176 91 -291.5 314.5t-150.5 541.5q-33 304 -22 531q3 123 16.5 207t42.5 174q66 211 149 249
q31 19 59.5 17.5t72.5 -22.5q124 -55 153 -194q11 -60 4.5 -254t-26.5 -377q-13 -121 -21 -314.5t-8.5 -366.5t7.5 -233q23 -139 41 -150q16 -6 56 16.5t72 56.5q150 164 290 684q17 61 42.5 148t47.5 158q48 161 63 263q21 157 42 257.5t51 183.5q35 102 56.5 143t50.5 59
q53 40 133 -13q54 -33 76.5 -84t18 -147t-32.5 -265q-18 -121 -28 -352q-29 -844 184 -1327q33 -68 71 -126t66 -82q13 -11 22 -20.5t9 -13.5q-1 -8 -24 -5.5t-57 14.5v0v0zM963 2053v0q21 -19 53.5 -65t54.5 -86q9 -17 16 -36.5t9.5 -34.5t-0.5 -16q-1 0 -4 -1.5t-6 -2.5
q-4 -2 -10.5 -0.5t-14.5 5.5q-7 5 -24.5 25t-37.5 47q-24 35 -37 48.5t-18 12.5q-6 -2 -25 -22.5t-44 -51.5q-24 -31 -46.5 -56t-32.5 -33q-13 -11 -20 -13t-18 3q-11 4 -23.5 18.5t-20.5 30.5t-8 27q2 13 27 48.5t59 76t63.5 71t40.5 32.5q29 3 67 -27z" />
    <glyph glyph-name="Udieresis" unicode="&#xdc;" horiz-adv-x="1687" 
d="M1712 -804q-16 6 -45 23.5t-57 37.5q-203 156 -369 565q-82 204 -129 489l-25 152l-15 -60q-27 -114 -73.5 -275t-76.5 -246q-112 -305 -264 -367q-93 -30 -181 10q-176 91 -291.5 314.5t-150.5 541.5q-33 304 -22 531q3 123 16.5 207t42.5 174q66 211 149 249
q31 19 59.5 17.5t72.5 -22.5q124 -55 153 -194q11 -60 4.5 -254t-26.5 -377q-13 -121 -21 -314.5t-8.5 -366.5t7.5 -233q23 -139 41 -150q16 -6 56 16.5t72 56.5q150 164 290 684q17 61 42.5 148t47.5 158q48 161 63 263q21 157 42 257.5t51 183.5q35 102 56.5 143t50.5 59
q53 40 133 -13q54 -33 76.5 -84t18 -147t-32.5 -265q-18 -121 -28 -352q-29 -844 184 -1327q33 -68 71 -126t66 -82q13 -11 22 -20.5t9 -13.5q-1 -8 -24 -5.5t-57 14.5v0v0zM809 1987v0q27 -4 39.5 -14.5t23.5 -37.5q8 -20 8.5 -33.5t-6.5 -37.5q-17 -70 -69 -72
q-14 -1 -23 2.5t-20 15.5q-8 9 -16.5 23.5t-12.5 27.5q-6 19 -5 32.5t9 35.5q12 37 28 49.5t44 8.5zM1008 1982v0q43 7 63 -55q11 -38 -4.5 -76.5t-46.5 -54.5q-46 -19 -76 20q-43 52 -24 115q5 21 11 31t15 17q10 7 15.5 8t12.5 -3q5 -2 14.5 -3t19.5 1z" />
    <glyph glyph-name="Yacute" unicode="&#xdd;" horiz-adv-x="1558" 
d="M660 -598q-148 25 -257 101q-184 130 -143 308q12 46 29 69t50 34q57 24 84 -20q5 -7 7 -17.5t1 -32t-5 -60.5q-7 -72 -1.5 -112.5t27.5 -75.5q9 -18 30 -28t73 -20q118 -22 232 37t174 172q77 145 85 618q7 335 10.5 470t3.5 149l2 16l-13 -28q-4 -8 -35.5 -76
t-72.5 -157t-76 -163.5t-46 -96.5q-62 -124 -125 -217t-148 -123q-93 -23 -193 23.5t-165 114.5q-59 58 -91.5 125.5t-55.5 168.5q-41 189 -8.5 444.5t127.5 495.5q98 237 217 230q46 -4 98.5 -38t70.5 -71q16 -42 -7 -125q-5 -18 -19.5 -82t-33.5 -151q-20 -91 -40 -180
t-35 -149q-24 -106 -29.5 -254.5t8.5 -245.5q15 -69 35.5 -92.5t48.5 -21.5q37 -1 71.5 30.5t62.5 67.5q5 6 10 11q138 165 360 563q45 80 68 126t37 85.5t30 100.5q16 58 42 122.5t51.5 114t41.5 61.5q24 19 85 -23q34 -21 51 -58t25 -106q4 -31 4 -77t-5.5 -142.5
t-18.5 -278.5q-56 -848 -84 -961q-26 -126 -63 -214.5t-97 -170.5q-125 -164 -342 -195q-43 -5 -71 -4t-72 9v0v0zM889 2162v0q160 73 125 -28q-20 -51 -84 -96.5t-139 -63.5q-19 -4 -46 -7.5t-49 -4.5q-60 -4 -77 6.5t-4 44.5q8 26 44 49t120 55q28 10 59 23t51 22z" />
    <glyph glyph-name="Thorn" unicode="&#xde;" horiz-adv-x="1194" 
d="M848 982v0q52 -32 108 -94.5t85 -121.5q98 -218 26 -364q-53 -96 -193 -176.5t-311 -113.5l-81 -15l-5 -335q-6 -161 -43 -178.5t-76.5 54t-50.5 177.5q-3 22 -6.5 69t-7.5 98q-3 43 -5.5 73.5t-3.5 33.5q-3 3 -17 8t-32 8q-78 18 -77 77q0 10 3.5 15.5t16 10.5t39.5 12
t39.5 11.5t15 10t0.5 15.5q-5 42 -6.5 149.5t2.5 194.5l5 110l-39 -4q-77 -7 -115.5 -5.5t-56.5 12.5q-25 16 -43.5 55t-17.5 76q1 31 15.5 55.5t49.5 52.5q66 58 177 89q36 11 51 19t17 17q1 3 2.5 22t4.5 48q4 54 9.5 113t10.5 89q30 175 53 235t57 54q36 -4 71.5 -58.5
t53.5 -132.5q4 -22 7 -60t4 -76l-3 -240l41 -8q52 -10 118 -34t108 -48zM572 327v0q64 27 135 83t122 114.5t55 94.5q2 10 -8 18.5t-37 19.5q-97 41 -229 53l-69 6l-9 -49q-6 -41 -12 -101t-10.5 -120t-5.5 -100t3 -42q5 0 23 6.5t42 16.5z" />
    <glyph glyph-name="germandbls" unicode="&#xdf;" horiz-adv-x="978" 
d="M687 635v0q143 -131 189.5 -279t-29.5 -275q-54 -83 -136.5 -132t-162.5 -35q-47 12 -88 50.5t-56 84.5q-6 15 -8 37.5t11 43.5q15 18 35.5 24.5t39.5 8.5q150 30 182 173v2q4 16 1 29.5t-22.5 37.5t-66.5 71q-76 76 -114.5 138.5t-41.5 124.5q-3 44 11.5 84t58.5 114
q37 68 51.5 122t14.5 84v16l-6 -2q-18 -9 -42 -26.5t-46 -40.5q-116 -129 -172 -390q-62 -282 -58 -730q2 -111 -4 -168.5t-31 -83.5q-19 -20 -36 -22.5t-29.5 3.5t-18.5 12q-2 1 -3 1q-40 28 -55 86.5t-24 174.5q-31 342 25 711q24 166 49.5 267t68.5 193q41 91 97 164.5
t115 108.5q38 21 90 22t93 -17q94 -49 155 -160t57 -222q-3 -57 -26.5 -113t-75.5 -140q-29 -46 -45 -77l-7 -15l7 -8q19 -21 53 -52z" />
    <glyph glyph-name="agrave" unicode="&#xe0;" horiz-adv-x="917" 
d="M871 356v0q38 155 67 260.5t43 106.5q6 -4 5 -38t-8 -82q-3 -13 -10 -54.5t-15.5 -89t-13.5 -79.5q-18 -91 -39.5 -171t-36.5 -127q-27 -87 -68.5 -125.5t-112.5 -43.5q-27 -2 -43 0.5t-32 11.5q-86 43 -129 167t-44 369q0 42 -0.5 64t-2.5 30t-4.5 6.5t-6.5 -7.5
q-10 -13 -36 -62.5t-55.5 -111.5t-50.5 -113q-53 -136 -102 -185t-126 -46q-120 7 -163 192q-32 158 27.5 302t193.5 234q82 52 178 69t176 -5q9 -4 14 1t10 23q4 13 13.5 31.5t19.5 34.5q43 67 136 69q35 1 53 -13t26 -49q7 -43 -2.5 -146t-31.5 -204q-11 -53 -16.5 -86.5
t-6.5 -77.5t-1 -133q1 -127 11 -192q10 -48 22 -60.5t25 -2t25 31.5q26 40 45.5 93.5t44.5 136.5q10 32 22 71zM316 445v0l110 189l-17 24q-14 18 -41.5 35t-42.5 17q-9 0 -30.5 -22t-45 -53t-39.5 -61q-26 -50 -52.5 -127.5t-39.5 -143.5q-7 -33 -10 -75t-2 -74.5t6 -32.5
q3 0 10.5 7.5t15.5 17.5q7 10 15.5 22.5t25 40.5t49 84t88.5 152zM612 1324v0q85 -32 120.5 -55t43.5 -49q13 -34 -4 -44.5t-77 -6.5q-22 1 -49 4.5t-45 7.5q-76 18 -140 63.5t-84 96.5q-35 101 125 28q20 -9 51 -22t59 -23z" />
    <glyph glyph-name="aacute" unicode="&#xe1;" horiz-adv-x="917" 
d="M871 356v0q38 155 67 260.5t43 106.5q6 -4 5 -38t-8 -82q-3 -13 -10 -54.5t-15.5 -89t-13.5 -79.5q-18 -91 -39.5 -171t-36.5 -127q-27 -87 -68.5 -125.5t-112.5 -43.5q-27 -2 -43 0.5t-32 11.5q-86 43 -129 167t-44 369q0 42 -0.5 64t-2.5 30t-4.5 6.5t-6.5 -7.5
q-10 -13 -36 -62.5t-55.5 -111.5t-50.5 -113q-53 -136 -102 -185t-126 -46q-120 7 -163 192q-32 158 27.5 302t193.5 234q82 52 178 69t176 -5q9 -4 14 1t10 23q4 13 13.5 31.5t19.5 34.5q43 67 136 69q35 1 53 -13t26 -49q7 -43 -2.5 -146t-31.5 -204q-11 -53 -16.5 -86.5
t-6.5 -77.5t-1 -133q1 -127 11 -192q10 -48 22 -60.5t25 -2t25 31.5q26 40 45.5 93.5t44.5 136.5q10 32 22 71zM316 445v0l110 189l-17 24q-14 18 -41.5 35t-42.5 17q-9 0 -30.5 -22t-45 -53t-39.5 -61q-26 -50 -52.5 -127.5t-39.5 -143.5q-7 -33 -10 -75t-2 -74.5t6 -32.5
q3 0 10.5 7.5t15.5 17.5q7 10 15.5 22.5t25 40.5t49 84t88.5 152zM758 1369v0q160 73 125 -28q-20 -51 -84 -96.5t-139 -63.5q-19 -4 -46 -7.5t-49 -4.5q-60 -4 -77 6.5t-4 44.5q8 26 44 49t120 55q28 10 59 23t51 22z" />
    <glyph glyph-name="acircumflex" unicode="&#xe2;" horiz-adv-x="917" 
d="M871 356v0q38 155 67 260.5t43 106.5q6 -4 5 -38t-8 -82q-3 -13 -10 -54.5t-15.5 -89t-13.5 -79.5q-18 -91 -39.5 -171t-36.5 -127q-27 -87 -68.5 -125.5t-112.5 -43.5q-27 -2 -43 0.5t-32 11.5q-86 43 -129 167t-44 369q0 42 -0.5 64t-2.5 30t-4.5 6.5t-6.5 -7.5
q-10 -13 -36 -62.5t-55.5 -111.5t-50.5 -113q-53 -136 -102 -185t-126 -46q-120 7 -163 192q-32 158 27.5 302t193.5 234q82 52 178 69t176 -5q9 -4 14 1t10 23q4 13 13.5 31.5t19.5 34.5q43 67 136 69q35 1 53 -13t26 -49q7 -43 -2.5 -146t-31.5 -204q-11 -53 -16.5 -86.5
t-6.5 -77.5t-1 -133q1 -127 11 -192q10 -48 22 -60.5t25 -2t25 31.5q26 40 45.5 93.5t44.5 136.5q10 32 22 71zM316 445v0l110 189l-17 24q-14 18 -41.5 35t-42.5 17q-9 0 -30.5 -22t-45 -53t-39.5 -61q-26 -50 -52.5 -127.5t-39.5 -143.5q-7 -33 -10 -75t-2 -74.5t6 -32.5
q3 0 10.5 7.5t15.5 17.5q7 10 15.5 22.5t25 40.5t49 84t88.5 152zM706 1377v0q21 -19 53.5 -65t54.5 -86q9 -17 16 -36.5t9.5 -34.5t-0.5 -16q-1 0 -4 -1.5t-6 -2.5q-4 -2 -10.5 -0.5t-14.5 5.5q-7 5 -24.5 25t-37.5 47q-24 35 -37 48.5t-18 12.5q-6 -2 -25 -22.5t-44 -51.5
q-24 -31 -46.5 -56t-32.5 -33q-13 -11 -20 -13t-18 3q-11 4 -23.5 18.5t-20.5 30.5t-8 27q2 13 27 48.5t59 76t63.5 71t40.5 32.5q29 3 67 -27z" />
    <glyph glyph-name="atilde" unicode="&#xe3;" horiz-adv-x="917" 
d="M871 356v0q38 155 67 260.5t43 106.5q6 -4 5 -38t-8 -82q-3 -13 -10 -54.5t-15.5 -89t-13.5 -79.5q-18 -91 -39.5 -171t-36.5 -127q-27 -87 -68.5 -125.5t-112.5 -43.5q-27 -2 -43 0.5t-32 11.5q-86 43 -129 167t-44 369q0 42 -0.5 64t-2.5 30t-4.5 6.5t-6.5 -7.5
q-10 -13 -36 -62.5t-55.5 -111.5t-50.5 -113q-53 -136 -102 -185t-126 -46q-120 7 -163 192q-32 158 27.5 302t193.5 234q82 52 178 69t176 -5q9 -4 14 1t10 23q4 13 13.5 31.5t19.5 34.5q43 67 136 69q35 1 53 -13t26 -49q7 -43 -2.5 -146t-31.5 -204q-11 -53 -16.5 -86.5
t-6.5 -77.5t-1 -133q1 -127 11 -192q10 -48 22 -60.5t25 -2t25 31.5q26 40 45.5 93.5t44.5 136.5q10 32 22 71zM316 445v0l110 189l-17 24q-14 18 -41.5 35t-42.5 17q-9 0 -30.5 -22t-45 -53t-39.5 -61q-26 -50 -52.5 -127.5t-39.5 -143.5q-7 -33 -10 -75t-2 -74.5t6 -32.5
q3 0 10.5 7.5t15.5 17.5q7 10 15.5 22.5t25 40.5t49 84t88.5 152zM851 1366v0q15 -3 28.5 -30.5t20.5 -62.5t2 -59q-13 -47 -54.5 -74.5t-93.5 -24.5q-60 2 -126 69q-16 15 -28.5 25t-15.5 11q-4 0 -18 -8t-32 -21q-36 -24 -64 -40.5t-34 -16.5q-2 0 -7.5 3.5t-11.5 9.5
q-15 12 -23.5 33t-6.5 43q3 26 27.5 61.5t56 64t53.5 32.5q42 8 112 -74q19 -22 36.5 -38.5t24.5 -19.5q33 -12 68 4.5t50 50.5q14 35 22 49t14 13z" />
    <glyph glyph-name="adieresis" unicode="&#xe4;" horiz-adv-x="917" 
d="M871 356v0q38 155 67 260.5t43 106.5q6 -4 5 -38t-8 -82q-3 -13 -10 -54.5t-15.5 -89t-13.5 -79.5q-18 -91 -39.5 -171t-36.5 -127q-27 -87 -68.5 -125.5t-112.5 -43.5q-27 -2 -43 0.5t-32 11.5q-86 43 -129 167t-44 369q0 42 -0.5 64t-2.5 30t-4.5 6.5t-6.5 -7.5
q-10 -13 -36 -62.5t-55.5 -111.5t-50.5 -113q-53 -136 -102 -185t-126 -46q-120 7 -163 192q-32 158 27.5 302t193.5 234q82 52 178 69t176 -5q9 -4 14 1t10 23q4 13 13.5 31.5t19.5 34.5q43 67 136 69q35 1 53 -13t26 -49q7 -43 -2.5 -146t-31.5 -204q-11 -53 -16.5 -86.5
t-6.5 -77.5t-1 -133q1 -127 11 -192q10 -48 22 -60.5t25 -2t25 31.5q26 40 45.5 93.5t44.5 136.5q10 32 22 71zM316 445v0l110 189l-17 24q-14 18 -41.5 35t-42.5 17q-9 0 -30.5 -22t-45 -53t-39.5 -61q-26 -50 -52.5 -127.5t-39.5 -143.5q-7 -33 -10 -75t-2 -74.5t6 -32.5
q3 0 10.5 7.5t15.5 17.5q7 10 15.5 22.5t25 40.5t49 84t88.5 152zM552 1311v0q27 -4 39.5 -14.5t23.5 -37.5q8 -20 8.5 -33.5t-6.5 -37.5q-17 -70 -69 -72q-14 -1 -23 2.5t-20 15.5q-8 9 -16.5 23.5t-12.5 27.5q-6 19 -5 32.5t9 35.5q12 37 28 49.5t44 8.5zM751 1306v0
q43 7 63 -55q11 -38 -4.5 -76.5t-46.5 -54.5q-46 -19 -76 20q-43 52 -24 115q5 21 11 31t15 17q10 7 15.5 8t12.5 -3q5 -2 14.5 -3t19.5 1z" />
    <glyph glyph-name="aring" unicode="&#xe5;" horiz-adv-x="917" 
d="M871 356v0q38 155 67 260.5t43 106.5q6 -4 5 -38t-8 -82q-3 -13 -10 -54.5t-15.5 -89t-13.5 -79.5q-18 -91 -39.5 -171t-36.5 -127q-27 -87 -68.5 -125.5t-112.5 -43.5q-27 -2 -43 0.5t-32 11.5q-86 43 -129 167t-44 369q0 42 -0.5 64t-2.5 30t-4.5 6.5t-6.5 -7.5
q-10 -13 -36 -62.5t-55.5 -111.5t-50.5 -113q-53 -136 -102 -185t-126 -46q-120 7 -163 192q-32 158 27.5 302t193.5 234q82 52 178 69t176 -5q9 -4 14 1t10 23q4 13 13.5 31.5t19.5 34.5q43 67 136 69q35 1 53 -13t26 -49q7 -43 -2.5 -146t-31.5 -204q-11 -53 -16.5 -86.5
t-6.5 -77.5t-1 -133q1 -127 11 -192q10 -48 22 -60.5t25 -2t25 31.5q26 40 45.5 93.5t44.5 136.5q10 32 22 71zM316 445v0l110 189l-17 24q-14 18 -41.5 35t-42.5 17q-9 0 -30.5 -22t-45 -53t-39.5 -61q-26 -50 -52.5 -127.5t-39.5 -143.5q-7 -33 -10 -75t-2 -74.5t6 -32.5
q3 0 10.5 7.5t15.5 17.5q7 10 15.5 22.5t25 40.5t49 84t88.5 152zM680 1335v0q21 15 57 -39q15 -20 19 -34.5t5 -44.5q5 -80 -43 -124q-12 -12 -22.5 -16t-35.5 -5q-22 -1 -34 1t-23 9q-26 17 -47 52.5t-26 72.5q-5 48 17.5 88t55 55.5t59.5 -11.5q6 -6 10 -7t8 3zM693 1249
v0v18l-20 -19q-35 -34 -46 -67q-3 -9 -1 -11t11 1q6 2 13.5 6.5t12.5 9.5q30 29 30 62z" />
    <glyph glyph-name="ae" unicode="&#xe6;" horiz-adv-x="1694" 
d="M316 445l110 189l-17 24q-14 18 -41.5 35t-42.5 17q-9 0 -30.5 -22t-45 -53t-39.5 -61q-26 -50 -52.5 -127.5t-39.5 -143.5q-7 -33 -10 -75t-2 -74.5t6 -32.5q3 0 10.5 7.5t15.5 17.5q7 10 15.5 22.5t25 40.5t49 84t88.5 152zM1055 422l-9 -56l31 43q13 19 32 52.5
t34 64.5q78 158 85 256q11 110 -37 35q-43 -64 -80 -172t-56 -223zM837 16q-19 -38 -42 -59q-42 -39 -113 -44q-27 -2 -43 0.5t-32 11.5q-86 43 -129 167t-44 369q0 42 -0.5 64t-2.5 30t-4.5 6.5t-6.5 -7.5q-10 -13 -36 -62.5t-55.5 -111.5t-50.5 -113q-53 -136 -102 -185
t-126 -46q-120 7 -163 192q-32 158 27.5 302t193.5 234q82 52 178 69t176 -5q9 -4 14 1t10 23q4 13 13.5 31.5t19.5 34.5q43 67 136 69q35 1 53 -13t26 -49q7 -43 -2.5 -146t-31.5 -204q-11 -53 -16.5 -86.5t-6.5 -77.5t-1 -133q1 -127 11 -192q10 -48 22 -60.5t25 -2
t25 31.5q24 38 43 87q-15 107 8 235q39 220 179 423q58 84 113.5 117.5t127.5 29.5q53 -2 83 -13t53 -36q30 -30 38 -72t-1 -113q-16 -109 -71.5 -217t-127.5 -182t-139 -82q-20 0 -25 -6t-6 -27q-4 -75 20.5 -165.5t56.5 -123.5q12 -11 21 -12.5t26 2.5q95 21 227.5 184.5
t242.5 433.5q24 66 38.5 104.5t23.5 57t16 24t14 4.5q44 -6 -18 -222q-23 -79 -55.5 -156t-87.5 -161q-76 -131 -155.5 -223.5t-150.5 -110.5q-28 -12 -53 -14.5t-78 0.5q-48 3 -74 7.5t-48 14.5q-101 42 -155 155z" />
    <glyph glyph-name="ccedilla" unicode="&#xe7;" horiz-adv-x="636" 
d="M288 85q12 10 30 27q24 24 51.5 57t46.5 61q44 66 104 176.5t92 192.5q21 44 32 70q10 22 16 33.5t11 15t14 3.5q21 0 19 -17q0 -10 -20.5 -75t-49 -147.5t-54 -152.5t-37.5 -95q-30 -62 -68 -117.5t-72 -85.5q-46 -40 -102 -53q3 -20 18 -36l31 -32q106 -116 44 -221
q-65 -94 -176 -34q-31 18 -49 39.5t-18 34t26 4.5q35 -7 73.5 -1.5t62 23.5t13.5 50q-5 13 -23 32t-47 22q-61 3 -74 36q-12 29 -9 85q-3 1 -7 2q-105 31 -168.5 135t-63.5 246q0 161 76 317.5t179 206.5q63 26 133.5 21t119.5 -39q47 -34 60.5 -86.5t-9.5 -106.5
q-30 -64 -89 -64q-29 0 -42.5 15t-24.5 58q-23 91 -37 85q-13 -7 -38 -57t-44 -107q-46 -153 -46 -269q0 -71 25 -155q9 -32 20 -56q4 2 9 2q15 0 33 -11q16 -11 29 -32z" />
    <glyph glyph-name="egrave" unicode="&#xe8;" horiz-adv-x="777" 
d="M803 708v0q44 -6 -18 -222q-23 -79 -55.5 -156t-87.5 -161q-76 -131 -155.5 -223.5t-150.5 -110.5q-28 -12 -53 -14.5t-78 0.5q-48 3 -74 7.5t-48 14.5q-101 42 -155 155q-75 159 -35.5 379t179.5 423q58 84 113.5 117.5t127.5 29.5q53 -2 83 -13t53 -36q30 -30 38 -72
t-1 -113q-16 -109 -71.5 -217t-127.5 -182t-139 -82q-20 0 -25 -6t-6 -27q-4 -75 20.5 -165.5t56.5 -123.5q12 -11 21 -12.5t26 2.5q95 21 227.5 184.5t242.5 433.5q24 66 38.5 104.5t23.5 57t16 24t14 4.5zM138 422v0l-9 -56l31 43q13 19 32 52.5t34 64.5q78 158 85 256
q11 110 -37 35q-43 -64 -80 -172t-56 -223zM374 1324v0q85 -32 120.5 -55t43.5 -49q13 -34 -4 -44.5t-77 -6.5q-22 1 -49 4.5t-45 7.5q-76 18 -140 63.5t-84 96.5q-35 101 125 28q20 -9 51 -22t59 -23z" />
    <glyph glyph-name="eacute" unicode="&#xe9;" horiz-adv-x="777" 
d="M803 708v0q44 -6 -18 -222q-23 -79 -55.5 -156t-87.5 -161q-76 -131 -155.5 -223.5t-150.5 -110.5q-28 -12 -53 -14.5t-78 0.5q-48 3 -74 7.5t-48 14.5q-101 42 -155 155q-75 159 -35.5 379t179.5 423q58 84 113.5 117.5t127.5 29.5q53 -2 83 -13t53 -36q30 -30 38 -72
t-1 -113q-16 -109 -71.5 -217t-127.5 -182t-139 -82q-20 0 -25 -6t-6 -27q-4 -75 20.5 -165.5t56.5 -123.5q12 -11 21 -12.5t26 2.5q95 21 227.5 184.5t242.5 433.5q24 66 38.5 104.5t23.5 57t16 24t14 4.5zM138 422v0l-9 -56l31 43q13 19 32 52.5t34 64.5q78 158 85 256
q11 110 -37 35q-43 -64 -80 -172t-56 -223zM450 1369v0q160 73 125 -28q-20 -51 -84 -96.5t-139 -63.5q-19 -4 -46 -7.5t-49 -4.5q-60 -4 -77 6.5t-4 44.5q8 26 44 49t120 55q28 10 59 23t51 22z" />
    <glyph glyph-name="ecircumflex" unicode="&#xea;" horiz-adv-x="777" 
d="M803 708v0q44 -6 -18 -222q-23 -79 -55.5 -156t-87.5 -161q-76 -131 -155.5 -223.5t-150.5 -110.5q-28 -12 -53 -14.5t-78 0.5q-48 3 -74 7.5t-48 14.5q-101 42 -155 155q-75 159 -35.5 379t179.5 423q58 84 113.5 117.5t127.5 29.5q53 -2 83 -13t53 -36q30 -30 38 -72
t-1 -113q-16 -109 -71.5 -217t-127.5 -182t-139 -82q-20 0 -25 -6t-6 -27q-4 -75 20.5 -165.5t56.5 -123.5q12 -11 21 -12.5t26 2.5q95 21 227.5 184.5t242.5 433.5q24 66 38.5 104.5t23.5 57t16 24t14 4.5zM138 422v0l-9 -56l31 43q13 19 32 52.5t34 64.5q78 158 85 256
q11 110 -37 35q-43 -64 -80 -172t-56 -223zM368 1377v0q21 -19 53.5 -65t54.5 -86q9 -17 16 -36.5t9.5 -34.5t-0.5 -16q-1 0 -4 -1.5t-6 -2.5q-4 -2 -10.5 -0.5t-14.5 5.5q-7 5 -24.5 25t-37.5 47q-24 35 -37 48.5t-18 12.5q-6 -2 -25 -22.5t-44 -51.5q-24 -31 -46.5 -56
t-32.5 -33q-13 -11 -20 -13t-18 3q-11 4 -23.5 18.5t-20.5 30.5t-8 27q2 13 27 48.5t59 76t63.5 71t40.5 32.5q29 3 67 -27z" />
    <glyph glyph-name="edieresis" unicode="&#xeb;" horiz-adv-x="777" 
d="M803 708v0q44 -6 -18 -222q-23 -79 -55.5 -156t-87.5 -161q-76 -131 -155.5 -223.5t-150.5 -110.5q-28 -12 -53 -14.5t-78 0.5q-48 3 -74 7.5t-48 14.5q-101 42 -155 155q-75 159 -35.5 379t179.5 423q58 84 113.5 117.5t127.5 29.5q53 -2 83 -13t53 -36q30 -30 38 -72
t-1 -113q-16 -109 -71.5 -217t-127.5 -182t-139 -82q-20 0 -25 -6t-6 -27q-4 -75 20.5 -165.5t56.5 -123.5q12 -11 21 -12.5t26 2.5q95 21 227.5 184.5t242.5 433.5q24 66 38.5 104.5t23.5 57t16 24t14 4.5zM138 422v0l-9 -56l31 43q13 19 32 52.5t34 64.5q78 158 85 256
q11 110 -37 35q-43 -64 -80 -172t-56 -223zM214 1311v0q27 -4 39.5 -14.5t23.5 -37.5q8 -20 8.5 -33.5t-6.5 -37.5q-17 -70 -69 -72q-14 -1 -23 2.5t-20 15.5q-8 9 -16.5 23.5t-12.5 27.5q-6 19 -5 32.5t9 35.5q12 37 28 49.5t44 8.5zM413 1306v0q43 7 63 -55
q11 -38 -4.5 -76.5t-46.5 -54.5q-46 -19 -76 20q-43 52 -24 115q5 21 11 31t15 17q10 7 15.5 8t12.5 -3q5 -2 14.5 -3t19.5 1z" />
    <glyph glyph-name="igrave" unicode="&#xec;" horiz-adv-x="642" 
d="M709 716v0q34 -29 -13 -223q-44 -173 -117 -311.5t-151 -193.5q-25 -18 -47.5 -26t-70.5 -15q-76 -13 -100 -6q-49 16 -103 69.5t-90 123.5q-43 91 -51 234t15 275t74 189q26 26 56.5 39.5t79.5 20.5q30 4 50 3t40 -8q24 -7 31.5 -14.5t11.5 -28.5q7 -31 -11 -148
q-19 -126 -37 -261.5t-24 -193.5q-9 -129 31 -190q9 -13 17.5 -21t11.5 -8q33 8 88 78.5t101 166.5q12 25 24 49q25 47 51.5 110t55.5 168q12 45 25.5 80t25.5 43q6 3 13 2.5t13 -3.5zM284 1324v0q85 -32 120.5 -55t43.5 -49q13 -34 -4 -44.5t-77 -6.5q-22 1 -49 4.5
t-45 7.5q-76 18 -140 63.5t-84 96.5q-35 101 125 28q20 -9 51 -22t59 -23z" />
    <glyph glyph-name="iacute" unicode="&#xed;" horiz-adv-x="642" 
d="M709 716v0q34 -29 -13 -223q-44 -173 -117 -311.5t-151 -193.5q-25 -18 -47.5 -26t-70.5 -15q-76 -13 -100 -6q-49 16 -103 69.5t-90 123.5q-43 91 -51 234t15 275t74 189q26 26 56.5 39.5t79.5 20.5q30 4 50 3t40 -8q24 -7 31.5 -14.5t11.5 -28.5q7 -31 -11 -148
q-19 -126 -37 -261.5t-24 -193.5q-9 -129 31 -190q9 -13 17.5 -21t11.5 -8q33 8 88 78.5t101 166.5q12 25 24 49q25 47 51.5 110t55.5 168q12 45 25.5 80t25.5 43q6 3 13 2.5t13 -3.5zM360 1369v0q160 73 125 -28q-20 -51 -84 -96.5t-139 -63.5q-19 -4 -46 -7.5t-49 -4.5
q-60 -4 -77 6.5t-4 44.5q8 26 44 49t120 55q28 10 59 23t51 22z" />
    <glyph glyph-name="icircumflex" unicode="&#xee;" horiz-adv-x="642" 
d="M709 716v0q34 -29 -13 -223q-44 -173 -117 -311.5t-151 -193.5q-25 -18 -47.5 -26t-70.5 -15q-76 -13 -100 -6q-49 16 -103 69.5t-90 123.5q-43 91 -51 234t15 275t74 189q26 26 56.5 39.5t79.5 20.5q30 4 50 3t40 -8q24 -7 31.5 -14.5t11.5 -28.5q7 -31 -11 -148
q-19 -126 -37 -261.5t-24 -193.5q-9 -129 31 -190q9 -13 17.5 -21t11.5 -8q33 8 88 78.5t101 166.5q12 25 24 49q25 47 51.5 110t55.5 168q12 45 25.5 80t25.5 43q6 3 13 2.5t13 -3.5zM278 1377v0q21 -19 53.5 -65t54.5 -86q9 -17 16 -36.5t9.5 -34.5t-0.5 -16q-1 0 -4 -1.5
t-6 -2.5q-4 -2 -10.5 -0.5t-14.5 5.5q-7 5 -24.5 25t-37.5 47q-24 35 -37 48.5t-18 12.5q-6 -2 -25 -22.5t-44 -51.5q-24 -31 -46.5 -56t-32.5 -33q-13 -11 -20 -13t-18 3q-11 4 -23.5 18.5t-20.5 30.5t-8 27q2 13 27 48.5t59 76t63.5 71t40.5 32.5q29 3 67 -27z" />
    <glyph glyph-name="idieresis" unicode="&#xef;" horiz-adv-x="642" 
d="M709 716v0q34 -29 -13 -223q-44 -173 -117 -311.5t-151 -193.5q-25 -18 -47.5 -26t-70.5 -15q-76 -13 -100 -6q-49 16 -103 69.5t-90 123.5q-43 91 -51 234t15 275t74 189q26 26 56.5 39.5t79.5 20.5q30 4 50 3t40 -8q24 -7 31.5 -14.5t11.5 -28.5q7 -31 -11 -148
q-19 -126 -37 -261.5t-24 -193.5q-9 -129 31 -190q9 -13 17.5 -21t11.5 -8q33 8 88 78.5t101 166.5q12 25 24 49q25 47 51.5 110t55.5 168q12 45 25.5 80t25.5 43q6 3 13 2.5t13 -3.5zM124 1311v0q27 -4 39.5 -14.5t23.5 -37.5q8 -20 8.5 -33.5t-6.5 -37.5q-17 -70 -69 -72
q-14 -1 -23 2.5t-20 15.5q-8 9 -16.5 23.5t-12.5 27.5q-6 19 -5 32.5t9 35.5q12 37 28 49.5t44 8.5zM323 1306v0q43 7 63 -55q11 -38 -4.5 -76.5t-46.5 -54.5q-46 -19 -76 20q-43 52 -24 115q5 21 11 31t15 17q10 7 15.5 8t12.5 -3q5 -2 14.5 -3t19.5 1z" />
    <glyph glyph-name="eth" unicode="&#xf0;" horiz-adv-x="746" 
d="M511 1087v0l20 -34q79 -135 119.5 -293t28.5 -287q-34 -281 -246 -484q-142 -135 -263 -83q-13 7 -30 22.5t-31 31.5q-109 149 -55 327q50 131 172.5 233.5t237.5 104.5l13 -1v20q1 92 -48 199q-20 42 -34 63l-11 17l-8 -10q-7 -10 -16 -23q-9 -11 -18 -23
q-36 -50 -64.5 -73t-62.5 -17q-35 6 -48 38.5t-14 85.5q-2 39 2.5 61.5t24.5 59.5q11 21 18 35l1 3h-1q-12 5 -31 12q-23 9 -44.5 20.5t-31.5 21.5q-21 22 -36.5 59t-14.5 67q6 76 87 86.5t186 -43.5l37 -20l9 11q64 75 109 99q47 21 91 -16q25 -22 30 -61t-5 -76
q-3 -16 -16 -41.5t-28 -48.5zM383 341v0l10 15l-12 -8q-41 -28 -70 -57q-20 -21 -39.5 -48.5t-33.5 -51.5l-5 -8l8 4q14 9 36.5 29t42.5 42q33 38 63 83z" />
    <glyph glyph-name="ntilde" unicode="&#xf1;" horiz-adv-x="1109" 
d="M1158 720v0q21 -4 -9 -88.5t-91.5 -196.5t-134 -198t-135.5 -92q-65 2 -110 76q-9 12 -27 50.5t-36.5 80t-26.5 63.5l-29 72l-22 -13q-40 -24 -100 -114t-115 -208q-47 -101 -77 -122q-14 -7 -43.5 -2t-57.5 18q-35 20 -67.5 54t-44.5 66q-32 84 -30 339q2 220 35 314
t101 78q37 -9 82 -38t66 -57q25 -31 30 -85.5t-5 -175.5q-5 -62 -6.5 -101.5t0.5 -39.5q3 3 18.5 20t36.5 40q3 3 5 7q70 81 130.5 136t98.5 37q22 -14 39 -58t33 -102q8 -28 16 -57q10 -27 18 -53q17 -60 36.5 -97t53.5 -30q89 43 154 140t112 193q31 61 56 101.5t46 42.5z
M791 1366v0q15 -3 28.5 -30.5t20.5 -62.5t2 -59q-13 -47 -54.5 -74.5t-93.5 -24.5q-60 2 -126 69q-16 15 -28.5 25t-15.5 11q-4 0 -18 -8t-32 -21q-36 -24 -64 -40.5t-34 -16.5q-2 0 -7.5 3.5t-11.5 9.5q-15 12 -23.5 33t-6.5 43q3 26 27.5 61.5t56 64t53.5 32.5
q42 8 112 -74q19 -22 36.5 -38.5t24.5 -19.5q33 -12 68 4.5t50 50.5q14 35 22 49t14 13z" />
    <glyph glyph-name="ograve" unicode="&#xf2;" horiz-adv-x="968" 
d="M1008 719v0q30 8 15.5 -46t-81.5 -144.5t-195 -189.5q-16 -13 -24 -23t-12 -24t-8 -41q-28 -154 -98.5 -275t-153.5 -159q-25 -10 -60.5 -9t-65.5 13q-36 15 -85.5 55t-79.5 79q-88 121 -88 281q0 32 -1 46.5t-7 23t-18 19.5q-26 24 -49 63.5t-32 74.5q-31 120 39 234
q68 108 173.5 146t219.5 -4q51 -21 109.5 -64.5t96.5 -89.5q44 -55 75.5 -131t31.5 -126v-32q148 112 207.5 188t74.5 110q10 21 16 25zM518 100v0q11 18 23.5 46t21 51.5t5.5 26.5q-3 1 -20 -2.5t-41 -10.5q-24 -8 -53.5 -14t-48.5 -8q-21 -2 -31 -4t-14.5 -6.5t-7.5 -13.5
q-4 -12 -7.5 -45t-5 -72t-1 -67.5t4.5 -28.5q3 0 16 5.5t29 13.5q30 16 67 52.5t63 76.5zM597 366v0q13 86 -20.5 185t-95.5 156q-95 81 -215 38q-90 -37 -144.5 -125.5t-44.5 -180.5q5 -24 12.5 -29.5t7.5 15.5q0 6 8.5 30t20.5 53q49 118 97 168t112 50q63 -4 128 -53
t65 -93q0 -6 -12 -29t-30 -52q-28 -47 -59 -113t-44 -108q-3 -9 -2.5 -12.5t7 -3.5t22.5 2q13 2 33.5 7t39.5 10q17 6 38 13.5t36 13.5q15 7 22.5 12.5t11 15.5t6.5 30zM559 1324v0q85 -32 120.5 -55t43.5 -49q13 -34 -4 -44.5t-77 -6.5q-22 1 -49 4.5t-45 7.5
q-76 18 -140 63.5t-84 96.5q-35 101 125 28q20 -9 51 -22t59 -23z" />
    <glyph glyph-name="oacute" unicode="&#xf3;" horiz-adv-x="968" 
d="M1008 719v0q30 8 15.5 -46t-81.5 -144.5t-195 -189.5q-16 -13 -24 -23t-12 -24t-8 -41q-28 -154 -98.5 -275t-153.5 -159q-25 -10 -60.5 -9t-65.5 13q-36 15 -85.5 55t-79.5 79q-88 121 -88 281q0 32 -1 46.5t-7 23t-18 19.5q-26 24 -49 63.5t-32 74.5q-31 120 39 234
q68 108 173.5 146t219.5 -4q51 -21 109.5 -64.5t96.5 -89.5q44 -55 75.5 -131t31.5 -126v-32q148 112 207.5 188t74.5 110q10 21 16 25zM518 100v0q11 18 23.5 46t21 51.5t5.5 26.5q-3 1 -20 -2.5t-41 -10.5q-24 -8 -53.5 -14t-48.5 -8q-21 -2 -31 -4t-14.5 -6.5t-7.5 -13.5
q-4 -12 -7.5 -45t-5 -72t-1 -67.5t4.5 -28.5q3 0 16 5.5t29 13.5q30 16 67 52.5t63 76.5zM597 366v0q13 86 -20.5 185t-95.5 156q-95 81 -215 38q-90 -37 -144.5 -125.5t-44.5 -180.5q5 -24 12.5 -29.5t7.5 15.5q0 6 8.5 30t20.5 53q49 118 97 168t112 50q63 -4 128 -53
t65 -93q0 -6 -12 -29t-30 -52q-28 -47 -59 -113t-44 -108q-3 -9 -2.5 -12.5t7 -3.5t22.5 2q13 2 33.5 7t39.5 10q17 6 38 13.5t36 13.5q15 7 22.5 12.5t11 15.5t6.5 30zM635 1369v0q160 73 125 -28q-20 -51 -84 -96.5t-139 -63.5q-19 -4 -46 -7.5t-49 -4.5q-60 -4 -77 6.5
t-4 44.5q8 26 44 49t120 55q28 10 59 23t51 22z" />
    <glyph glyph-name="ocircumflex" unicode="&#xf4;" horiz-adv-x="968" 
d="M1008 719v0q30 8 15.5 -46t-81.5 -144.5t-195 -189.5q-16 -13 -24 -23t-12 -24t-8 -41q-28 -154 -98.5 -275t-153.5 -159q-25 -10 -60.5 -9t-65.5 13q-36 15 -85.5 55t-79.5 79q-88 121 -88 281q0 32 -1 46.5t-7 23t-18 19.5q-26 24 -49 63.5t-32 74.5q-31 120 39 234
q68 108 173.5 146t219.5 -4q51 -21 109.5 -64.5t96.5 -89.5q44 -55 75.5 -131t31.5 -126v-32q148 112 207.5 188t74.5 110q10 21 16 25zM518 100v0q11 18 23.5 46t21 51.5t5.5 26.5q-3 1 -20 -2.5t-41 -10.5q-24 -8 -53.5 -14t-48.5 -8q-21 -2 -31 -4t-14.5 -6.5t-7.5 -13.5
q-4 -12 -7.5 -45t-5 -72t-1 -67.5t4.5 -28.5q3 0 16 5.5t29 13.5q30 16 67 52.5t63 76.5zM597 366v0q13 86 -20.5 185t-95.5 156q-95 81 -215 38q-90 -37 -144.5 -125.5t-44.5 -180.5q5 -24 12.5 -29.5t7.5 15.5q0 6 8.5 30t20.5 53q49 118 97 168t112 50q63 -4 128 -53
t65 -93q0 -6 -12 -29t-30 -52q-28 -47 -59 -113t-44 -108q-3 -9 -2.5 -12.5t7 -3.5t22.5 2q13 2 33.5 7t39.5 10q17 6 38 13.5t36 13.5q15 7 22.5 12.5t11 15.5t6.5 30zM553 1377v0q21 -19 53.5 -65t54.5 -86q9 -17 16 -36.5t9.5 -34.5t-0.5 -16q-1 0 -4 -1.5t-6 -2.5
q-4 -2 -10.5 -0.5t-14.5 5.5q-7 5 -24.5 25t-37.5 47q-24 35 -37 48.5t-18 12.5q-6 -2 -25 -22.5t-44 -51.5q-24 -31 -46.5 -56t-32.5 -33q-13 -11 -20 -13t-18 3q-11 4 -23.5 18.5t-20.5 30.5t-8 27q2 13 27 48.5t59 76t63.5 71t40.5 32.5q29 3 67 -27z" />
    <glyph glyph-name="otilde" unicode="&#xf5;" horiz-adv-x="968" 
d="M1008 719v0q30 8 15.5 -46t-81.5 -144.5t-195 -189.5q-16 -13 -24 -23t-12 -24t-8 -41q-28 -154 -98.5 -275t-153.5 -159q-25 -10 -60.5 -9t-65.5 13q-36 15 -85.5 55t-79.5 79q-88 121 -88 281q0 32 -1 46.5t-7 23t-18 19.5q-26 24 -49 63.5t-32 74.5q-31 120 39 234
q68 108 173.5 146t219.5 -4q51 -21 109.5 -64.5t96.5 -89.5q44 -55 75.5 -131t31.5 -126v-32q148 112 207.5 188t74.5 110q10 21 16 25zM518 100v0q11 18 23.5 46t21 51.5t5.5 26.5q-3 1 -20 -2.5t-41 -10.5q-24 -8 -53.5 -14t-48.5 -8q-21 -2 -31 -4t-14.5 -6.5t-7.5 -13.5
q-4 -12 -7.5 -45t-5 -72t-1 -67.5t4.5 -28.5q3 0 16 5.5t29 13.5q30 16 67 52.5t63 76.5zM597 366v0q13 86 -20.5 185t-95.5 156q-95 81 -215 38q-90 -37 -144.5 -125.5t-44.5 -180.5q5 -24 12.5 -29.5t7.5 15.5q0 6 8.5 30t20.5 53q49 118 97 168t112 50q63 -4 128 -53
t65 -93q0 -6 -12 -29t-30 -52q-28 -47 -59 -113t-44 -108q-3 -9 -2.5 -12.5t7 -3.5t22.5 2q13 2 33.5 7t39.5 10q17 6 38 13.5t36 13.5q15 7 22.5 12.5t11 15.5t6.5 30zM698 1366v0q15 -3 28.5 -30.5t20.5 -62.5t2 -59q-13 -47 -54.5 -74.5t-93.5 -24.5q-60 2 -126 69
q-16 15 -28.5 25t-15.5 11q-4 0 -18 -8t-32 -21q-36 -24 -64 -40.5t-34 -16.5q-2 0 -7.5 3.5t-11.5 9.5q-15 12 -23.5 33t-6.5 43q3 26 27.5 61.5t56 64t53.5 32.5q42 8 112 -74q19 -22 36.5 -38.5t24.5 -19.5q33 -12 68 4.5t50 50.5q14 35 22 49t14 13z" />
    <glyph glyph-name="odieresis" unicode="&#xf6;" horiz-adv-x="968" 
d="M1008 719v0q30 8 15.5 -46t-81.5 -144.5t-195 -189.5q-16 -13 -24 -23t-12 -24t-8 -41q-28 -154 -98.5 -275t-153.5 -159q-25 -10 -60.5 -9t-65.5 13q-36 15 -85.5 55t-79.5 79q-88 121 -88 281q0 32 -1 46.5t-7 23t-18 19.5q-26 24 -49 63.5t-32 74.5q-31 120 39 234
q68 108 173.5 146t219.5 -4q51 -21 109.5 -64.5t96.5 -89.5q44 -55 75.5 -131t31.5 -126v-32q148 112 207.5 188t74.5 110q10 21 16 25zM518 100v0q11 18 23.5 46t21 51.5t5.5 26.5q-3 1 -20 -2.5t-41 -10.5q-24 -8 -53.5 -14t-48.5 -8q-21 -2 -31 -4t-14.5 -6.5t-7.5 -13.5
q-4 -12 -7.5 -45t-5 -72t-1 -67.5t4.5 -28.5q3 0 16 5.5t29 13.5q30 16 67 52.5t63 76.5zM597 366v0q13 86 -20.5 185t-95.5 156q-95 81 -215 38q-90 -37 -144.5 -125.5t-44.5 -180.5q5 -24 12.5 -29.5t7.5 15.5q0 6 8.5 30t20.5 53q49 118 97 168t112 50q63 -4 128 -53
t65 -93q0 -6 -12 -29t-30 -52q-28 -47 -59 -113t-44 -108q-3 -9 -2.5 -12.5t7 -3.5t22.5 2q13 2 33.5 7t39.5 10q17 6 38 13.5t36 13.5q15 7 22.5 12.5t11 15.5t6.5 30zM399 1311v0q27 -4 39.5 -14.5t23.5 -37.5q8 -20 8.5 -33.5t-6.5 -37.5q-17 -70 -69 -72q-14 -1 -23 2.5
t-20 15.5q-8 9 -16.5 23.5t-12.5 27.5q-6 19 -5 32.5t9 35.5q12 37 28 49.5t44 8.5zM598 1306v0q43 7 63 -55q11 -38 -4.5 -76.5t-46.5 -54.5q-46 -19 -76 20q-43 52 -24 115q5 21 11 31t15 17q10 7 15.5 8t12.5 -3q5 -2 14.5 -3t19.5 1z" />
    <glyph glyph-name="divide" unicode="&#xf7;" horiz-adv-x="995" 
d="M866 490q35 -24 54.5 -54.5t17.5 -56.5q-1 -16 -5.5 -19.5t-19.5 -0.5q-52 6 -168.5 7.5t-243 -2t-208.5 -10.5q-38 -4 -58.5 -4t-31.5 4.5t-21 14.5q-16 17 -26.5 40.5t-9.5 39.5q7 49 125 69q190 34 414 10q70 -7 103.5 -11.5t48.5 -10.5t29 -16zM509 286
q28 -1 60.5 -16.5t58.5 -40.5q13 -13 17 -22.5t2 -22.5q-5 -27 -27 -60.5t-44 -48.5q-23 -14 -43 -12.5t-44 20.5q-34 25 -45 46t-7 52q2 17 9 37.5t15 34.5q8 16 13.5 23t13 8.5t21.5 1.5zM489 642q-34 25 -45 46t-7 52q2 17 9 37.5t15 34.5q8 16 13.5 23t13 8.5t21.5 1.5
q28 -1 60.5 -16.5t57.5 -40.5q14 -13 18 -22.5t2 -22.5q-5 -27 -27 -60.5t-44 -48.5q-23 -14 -43 -12.5t-44 20.5z" />
    <glyph glyph-name="oslash" unicode="&#xf8;" horiz-adv-x="968" 
d="M414 -12q19 14 41 36q37 36 63 76q11 18 23.5 46t21 51.5t5.5 26.5q-3 1 -20 -2.5t-41 -10.5l-9 -3q-19 -51 -38 -100q-24 -61 -46 -120zM421 700q8 19 15 38q-78 40 -170 7q-90 -37 -144.5 -125.5t-44.5 -180.5q5 -24 12.5 -29.5t7.5 15.5q0 6 8.5 30t20.5 53
q49 118 97 168t112 50q43 -3 86 -26zM533 299q13 5 24 9q15 7 22.5 12.5t11 15.5t6.5 30q7 49 0 103q-23 -63 -56 -150zM651 612q15 -27 28 -58q31 -76 31 -126v-32q148 112 207.5 188t74.5 110q10 21 16 25q30 8 15.5 -46t-81.5 -144.5t-195 -189.5q-16 -13 -24 -23
t-12 -24t-8 -41q-28 -154 -98.5 -275t-153.5 -159q-25 -10 -60 -9q-22 1 -42 5q-125 -337 -196 -568q-22 -74 -40.5 -128t-23.5 -63q-9 -20 -29 -30t-45 9t-46 85q-26 108 12 264q53 219 174 580q-83 119 -83 274q0 32 -1 46.5t-7 23t-18 19.5q-26 24 -49 63.5t-32 74.5
q-31 120 39 234q68 108 173.5 146t219.5 -4q31 -13 65 -34q61 154 121 294q120 280 185.5 407t93.5 138q12 6 25.5 3.5t35.5 -14.5q39 -21 71 -54t31 -69q-3 -27 -51 -127q-47 -97 -116 -265q-61 -152 -113 -275t-94 -231z" />
    <glyph glyph-name="ugrave" unicode="&#xf9;" horiz-adv-x="1008" 
d="M1075 697v0q20 44 49 9q6 -8 8 -15.5t-1 -21.5t-10 -41q-4 -15 -16 -66.5t-27 -117.5q-15 -63 -27.5 -117.5t-18.5 -79.5q-25 -103 -53 -188t-51 -126q-22 -38 -53.5 -72t-51.5 -41q-9 -2 -23 -1t-27 5q-35 11 -78 45t-73 74q-84 110 -108 310l-10 74l-44 -109
q-63 -158 -103.5 -216t-87.5 -57q-76 -2 -151 76t-116 201q-12 41 -20.5 124t-10 167t6.5 128q45 245 162 216q34 -8 76 -38.5t64 -62.5q17 -24 23.5 -50.5t3.5 -70.5t-15 -123q-46 -327 -38 -378l5 -34l56 63q168 195 217 427q43 235 97 258q31 9 74.5 -23t67.5 -82
q37 -74 18 -317q-11 -149 -13.5 -218.5t1.5 -130.5q6 -126 23 -119q4 1 16.5 12t27.5 27q37 38 67 109l8 18q11 26 21.5 54.5t24 75t33.5 128.5q5 19 16 66q12 48 25 103.5t23.5 97.5t12.5 48zM569 1324v0q85 -32 120.5 -55t43.5 -49q13 -34 -4 -44.5t-77 -6.5
q-22 1 -49 4.5t-45 7.5q-76 18 -140 63.5t-84 96.5q-35 101 125 28q20 -9 51 -22t59 -23z" />
    <glyph glyph-name="uacute" unicode="&#xfa;" horiz-adv-x="1008" 
d="M1075 697v0q20 44 49 9q6 -8 8 -15.5t-1 -21.5t-10 -41q-4 -15 -16 -66.5t-27 -117.5q-15 -63 -27.5 -117.5t-18.5 -79.5q-25 -103 -53 -188t-51 -126q-22 -38 -53.5 -72t-51.5 -41q-9 -2 -23 -1t-27 5q-35 11 -78 45t-73 74q-84 110 -108 310l-10 74l-44 -109
q-63 -158 -103.5 -216t-87.5 -57q-76 -2 -151 76t-116 201q-12 41 -20.5 124t-10 167t6.5 128q45 245 162 216q34 -8 76 -38.5t64 -62.5q17 -24 23.5 -50.5t3.5 -70.5t-15 -123q-46 -327 -38 -378l5 -34l56 63q168 195 217 427q43 235 97 258q31 9 74.5 -23t67.5 -82
q37 -74 18 -317q-11 -149 -13.5 -218.5t1.5 -130.5q6 -126 23 -119q4 1 16.5 12t27.5 27q37 38 67 109l8 18q11 26 21.5 54.5t24 75t33.5 128.5q5 19 16 66q12 48 25 103.5t23.5 97.5t12.5 48zM695 1369v0q160 73 125 -28q-20 -51 -84 -96.5t-139 -63.5q-19 -4 -46 -7.5
t-49 -4.5q-60 -4 -77 6.5t-4 44.5q8 26 44 49t120 55q28 10 59 23t51 22z" />
    <glyph glyph-name="ucircumflex" unicode="&#xfb;" horiz-adv-x="1008" 
d="M1075 697v0q20 44 49 9q6 -8 8 -15.5t-1 -21.5t-10 -41q-4 -15 -16 -66.5t-27 -117.5q-15 -63 -27.5 -117.5t-18.5 -79.5q-25 -103 -53 -188t-51 -126q-22 -38 -53.5 -72t-51.5 -41q-9 -2 -23 -1t-27 5q-35 11 -78 45t-73 74q-84 110 -108 310l-10 74l-44 -109
q-63 -158 -103.5 -216t-87.5 -57q-76 -2 -151 76t-116 201q-12 41 -20.5 124t-10 167t6.5 128q45 245 162 216q34 -8 76 -38.5t64 -62.5q17 -24 23.5 -50.5t3.5 -70.5t-15 -123q-46 -327 -38 -378l5 -34l56 63q168 195 217 427q43 235 97 258q31 9 74.5 -23t67.5 -82
q37 -74 18 -317q-11 -149 -13.5 -218.5t1.5 -130.5q6 -126 23 -119q4 1 16.5 12t27.5 27q37 38 67 109l8 18q11 26 21.5 54.5t24 75t33.5 128.5q5 19 16 66q12 48 25 103.5t23.5 97.5t12.5 48zM613 1377v0q21 -19 53.5 -65t54.5 -86q9 -17 16 -36.5t9.5 -34.5t-0.5 -16
q-1 0 -4 -1.5t-6 -2.5q-4 -2 -10.5 -0.5t-14.5 5.5q-7 5 -24.5 25t-37.5 47q-24 35 -37 48.5t-18 12.5q-6 -2 -25 -22.5t-44 -51.5q-24 -31 -46.5 -56t-32.5 -33q-13 -11 -20 -13t-18 3q-11 4 -23.5 18.5t-20.5 30.5t-8 27q2 13 27 48.5t59 76t63.5 71t40.5 32.5
q29 3 67 -27z" />
    <glyph glyph-name="udieresis" unicode="&#xfc;" horiz-adv-x="1008" 
d="M1075 697v0q20 44 49 9q6 -8 8 -15.5t-1 -21.5t-10 -41q-4 -15 -16 -66.5t-27 -117.5q-15 -63 -27.5 -117.5t-18.5 -79.5q-25 -103 -53 -188t-51 -126q-22 -38 -53.5 -72t-51.5 -41q-9 -2 -23 -1t-27 5q-35 11 -78 45t-73 74q-84 110 -108 310l-10 74l-44 -109
q-63 -158 -103.5 -216t-87.5 -57q-76 -2 -151 76t-116 201q-12 41 -20.5 124t-10 167t6.5 128q45 245 162 216q34 -8 76 -38.5t64 -62.5q17 -24 23.5 -50.5t3.5 -70.5t-15 -123q-46 -327 -38 -378l5 -34l56 63q168 195 217 427q43 235 97 258q31 9 74.5 -23t67.5 -82
q37 -74 18 -317q-11 -149 -13.5 -218.5t1.5 -130.5q6 -126 23 -119q4 1 16.5 12t27.5 27q37 38 67 109l8 18q11 26 21.5 54.5t24 75t33.5 128.5q5 19 16 66q12 48 25 103.5t23.5 97.5t12.5 48zM459 1311v0q27 -4 39.5 -14.5t23.5 -37.5q8 -20 8.5 -33.5t-6.5 -37.5
q-17 -70 -69 -72q-14 -1 -23 2.5t-20 15.5q-8 9 -16.5 23.5t-12.5 27.5q-6 19 -5 32.5t9 35.5q12 37 28 49.5t44 8.5zM658 1306v0q43 7 63 -55q11 -38 -4.5 -76.5t-46.5 -54.5q-46 -19 -76 20q-43 52 -24 115q5 21 11 31t15 17q10 7 15.5 8t12.5 -3q5 -2 14.5 -3t19.5 1z
" />
    <glyph glyph-name="yacute" unicode="&#xfd;" horiz-adv-x="1257" 
d="M1290 715v0q37 23 23.5 -37t-74 -172t-166 -245t-251.5 -256l-23 -129q-26 -150 -59 -251.5t-92 -211.5q-107 -205 -256 -261q-41 -15 -85.5 -17.5t-72.5 8.5q-55 25 -104.5 75.5t-69.5 102.5q-32 89 -14 185.5t79 168.5q23 25 91 76.5t145 104t127 79.5l73 39l23 270
q8 87 12 139.5t5 77.5t-1 28.5t-6 -6.5q-5 -13 -22 -53t-38 -92q-5 -12 -10 -25q-103 -250 -186 -317q-18 -16 -29 -23t-22 -8.5t-27 0.5q-67 4 -148 81q-101 92 -132.5 241.5t-2.5 387.5q24 215 77 327q33 78 63.5 108.5t69.5 25.5q40 -6 89 -43.5t72 -79.5q13 -22 8 -60
t-32 -124q-49 -155 -71 -465l-14 -186l29 25q128 117 282 407l45 88l10 104q7 86 20 116t43 25q19 -3 51 -24.5t50 -44.5q34 -49 60 -201q18 -106 21.5 -201t-5.5 -215l-9 -107q149 136 248.5 268.5t153.5 220.5q34 53 52 76zM535 -184v0l9 38l-32 -23q-42 -30 -104 -81.5
t-114.5 -98t-65.5 -63.5q-38 -58 -53 -145t4 -140q9 -23 25 -27.5t48 8.5q49 19 105 87t96 157q19 44 41.5 123t40.5 165zM683 1548v0q160 73 125 -28q-20 -51 -84 -96.5t-139 -63.5q-19 -4 -46 -7.5t-49 -4.5q-60 -4 -77 6.5t-4 44.5q8 26 44 49t120 55q28 10 59 23t51 22z
" />
    <glyph glyph-name="thorn" unicode="&#xfe;" horiz-adv-x="821" 
d="M528 931v0q190 -110 231 -344q7 -53 -2 -128t-28 -122q-30 -68 -98.5 -126.5t-141.5 -79.5l-47 -13l-10 -124q-7 -161 -40 -254t-90 -101q-53 14 -70 59.5t-25 118.5q-3 22 -7 46l-2 28q-7 86 -10.5 193.5t1.5 343.5l8 339l-71 5q-32 1 -48.5 4t-25.5 10t-19 21
q-18 24 -25.5 56.5t-1.5 57.5q12 42 125 63l69 13l32 253q13 108 25.5 189t18.5 99q22 60 59.5 46t71.5 -82.5t47 -169.5q4 -34 6 -96t2 -124l-2 -143zM550 484v0q78 95 70 157q-6 22 -44.5 54t-81.5 51l-39 16l-5 -81q-2 -36 -3 -88t-1 -97v-104l28 18q13 8 34.5 29
t41.5 45z" />
    <glyph glyph-name="ydieresis" unicode="&#xff;" horiz-adv-x="1257" 
d="M1290 715v0q37 23 23.5 -37t-74 -172t-166 -245t-251.5 -256l-23 -129q-26 -150 -59 -251.5t-92 -211.5q-107 -205 -256 -261q-41 -15 -85.5 -17.5t-72.5 8.5q-55 25 -104.5 75.5t-69.5 102.5q-32 89 -14 185.5t79 168.5q23 25 91 76.5t145 104t127 79.5l73 39l23 270
q8 87 12 139.5t5 77.5t-1 28.5t-6 -6.5q-5 -13 -22 -53t-38 -92q-5 -12 -10 -25q-103 -250 -186 -317q-18 -16 -29 -23t-22 -8.5t-27 0.5q-67 4 -148 81q-101 92 -132.5 241.5t-2.5 387.5q24 215 77 327q33 78 63.5 108.5t69.5 25.5q40 -6 89 -43.5t72 -79.5q13 -22 8 -60
t-32 -124q-49 -155 -71 -465l-14 -186l29 25q128 117 282 407l45 88l10 104q7 86 20 116t43 25q19 -3 51 -24.5t50 -44.5q34 -49 60 -201q18 -106 21.5 -201t-5.5 -215l-9 -107q149 136 248.5 268.5t153.5 220.5q34 53 52 76zM535 -184v0l9 38l-32 -23q-42 -30 -104 -81.5
t-114.5 -98t-65.5 -63.5q-38 -58 -53 -145t4 -140q9 -23 25 -27.5t48 8.5q49 19 105 87t96 157q19 44 41.5 123t40.5 165zM547 1490v0q27 -4 39.5 -14.5t23.5 -37.5q8 -20 8.5 -33.5t-6.5 -37.5q-17 -70 -69 -72q-14 -1 -23 2.5t-20 15.5q-8 9 -16.5 23.5t-12.5 27.5
q-6 19 -5 32.5t9 35.5q12 37 28 49.5t44 8.5zM746 1485v0q43 7 63 -55q11 -38 -4.5 -76.5t-46.5 -54.5q-46 -19 -76 20q-43 52 -24 115q5 21 11 31t15 17q10 7 15.5 8t12.5 -3q5 -2 14.5 -3t19.5 1z" />
    <glyph glyph-name="dotlessi" unicode="&#x131;" horiz-adv-x="642" 
d="M709 716v0q34 -29 -13 -223q-44 -173 -117 -311.5t-151 -193.5q-25 -18 -47.5 -26t-70.5 -15q-76 -13 -100 -6q-49 16 -103 69.5t-90 123.5q-43 91 -51 234t15 275t74 189q26 26 56.5 39.5t79.5 20.5q30 4 50 3t40 -8q24 -7 31.5 -14.5t11.5 -28.5q7 -31 -11 -148
q-19 -126 -37 -261.5t-24 -193.5q-9 -129 31 -190q9 -13 17.5 -21t11.5 -8q33 8 88 78.5t101 166.5q12 25 24 49q25 47 51.5 110t55.5 168q12 45 25.5 80t25.5 43q6 3 13 2.5t13 -3.5z" />
    <glyph glyph-name="OE" unicode="&#x152;" horiz-adv-x="2616" 
d="M1383 1113q-2 12 -5 23q-32 117 -65 178q-55 102 -147 156q-106 67 -193.5 63t-190.5 -83q-35 -25 -58 -50t-53 -71q-170 -249 -267 -627q-72 -271 -87.5 -450t20.5 -321q13 -56 33 -94t58 -80q12 -13 19.5 -19t17.5 -7.5t29 -0.5h21l-28 49q-27 49 -58 157
q-42 147 -47 284t26 311q17 95 52.5 227.5t60.5 196.5q93 213 210 232q54 3 106.5 -27t64.5 -71q5 -14 -2.5 -39.5t-30.5 -79.5q-38 -85 -62.5 -165t-54.5 -219q-89 -389 -62 -625q18 -209 100 -304q34 -44 75.5 -46.5t105.5 34.5q82 50 172.5 162.5t138.5 225.5
q140 344 145 693q-23 22 -41 49q-19 28 -26 48.5t-11 59.5q-7 57 -0.5 105.5t28.5 108.5zM1588 645v-51q0 -20 -1 -40q28 32 47 54q20 23 20 24q-1 0 -23 5q-11 2 -24 4q-10 2 -19 4zM1357 -318q-52 -80 -115 -142q-120 -111 -270 -103q-101 9 -221 79q-60 33 -96 61t-72 67
q-13 15 -22.5 26t-11.5 12q-1 1 -7 -4t-13 -14q-22 -26 -49 -25t-78 30q-192 110 -290 270q-97 176 -108 396q-4 189 55 414.5t162 414.5q37 65 99 148.5t112 138.5q107 110 249.5 162t275.5 30q54 -10 102.5 -28.5t109.5 -51.5q185 -99 278 -257q9 -16 18 -33q20 31 42 63
q83 114 174 180q123 86 268.5 121t268 17.5t178.5 -90.5q42 -56 36 -145q-7 -117 -63 -219.5t-136 -145.5q-22 -12 -42 -16.5t-48 -4.5q-64 1 -81.5 17t19.5 41q61 45 99 150t29 209q-6 57 -22 81t-49 26q-28 0 -90 -21t-106 -47q-106 -64 -188 -192.5t-119 -285.5
q-9 -40 -1 -107q5 -41 11 -60t20 -38q21 -29 45.5 -40.5t64.5 -11.5q18 0 34 3.5t40 14t64 31.5q98 50 167.5 69.5t152.5 20.5q54 1 80 -1.5t45 -10.5q26 -10 35 -22t10 -37q2 -23 -16 -31q-72 -37 -221 -86q-83 -26 -125.5 -52.5t-103.5 -88.5q-86 -88 -167 -234t-115 -273
q-22 -92 -16.5 -189.5t35.5 -169.5q31 -67 81.5 -107.5t103.5 -41.5q55 1 125 29.5t134 76.5q49 37 109 94.5t95 99.5q228 300 318 606q20 79 36 105t43 24q9 0 18 -3t14 -8q4 -4 6 -9t-0.5 -17.5t-11 -39t-23.5 -73.5q-13 -39 -27 -84.5t-23 -77.5q-73 -239 -209.5 -457
t-264.5 -299q-101 -59 -218 -81q-51 -9 -125.5 -10t-125.5 6q-105 17 -196 69q-120 70 -176 182z" />
    <glyph glyph-name="oe" unicode="&#x153;" horiz-adv-x="1751" 
d="M518 100q11 18 23.5 46t21 51.5t5.5 26.5q-3 1 -20 -2.5t-41 -10.5q-24 -8 -53.5 -14t-48.5 -8q-21 -2 -31 -4t-14.5 -6.5t-7.5 -13.5q-4 -12 -7.5 -45t-5 -72t-1 -67.5t4.5 -28.5q3 0 16 5.5t29 13.5q30 16 67 52.5t63 76.5zM1111 422l-9 -56l31 43q13 19 32 52.5
t34 64.5q78 158 85 256q11 110 -37 35q-43 -64 -80 -172t-56 -223zM597 366q13 86 -20.5 185t-95.5 156q-95 81 -215 38q-90 -37 -144.5 -125.5t-44.5 -180.5q5 -24 12.5 -29.5t7.5 15.5q0 6 8.5 30t20.5 53q49 118 97 168t112 50q63 -4 128 -53t65 -93q0 -6 -12 -29
t-30 -52q-28 -47 -59 -113t-44 -108q-3 -9 -2.5 -12.5t7 -3.5t22.5 2q13 2 33.5 7t39.5 10q17 6 38 13.5t36 13.5q15 7 22.5 12.5t11 15.5t6.5 30zM884 461q-56 -59 -137 -122q-16 -13 -24 -23t-12 -24t-8 -41q-28 -154 -98.5 -275t-153.5 -159q-25 -10 -60.5 -9t-65.5 13
q-36 15 -85.5 55t-79.5 79q-88 121 -88 281q0 32 -1 46.5t-7 23t-18 19.5q-26 24 -49 63.5t-32 74.5q-31 120 39 234q68 108 173.5 146t219.5 -4q51 -21 109.5 -64.5t96.5 -89.5q44 -55 75.5 -131t31.5 -126v-32q148 112 208 188q10 14 20 26q43 97 107 190
q58 84 113.5 117.5t127.5 29.5q53 -2 83 -13t53 -36q30 -30 38 -72t-1 -113q-16 -109 -71.5 -217t-127.5 -182t-139 -82q-20 0 -25 -6t-6 -27q-4 -75 20.5 -165.5t56.5 -123.5q12 -11 21 -12.5t26 2.5q95 21 227.5 184.5t242.5 433.5q24 66 38.5 104.5t23.5 57t16 24t14 4.5
q44 -6 -18 -222q-23 -79 -55.5 -156t-87.5 -161q-76 -131 -155.5 -223.5t-150.5 -110.5q-28 -12 -53 -14.5t-78 0.5q-48 3 -74 7.5t-48 14.5q-101 42 -155 155q-75 159 -35 379q7 42 18 84z" />
    <glyph glyph-name="Scaron" unicode="&#x160;" horiz-adv-x="1595" 
d="M405 -525q-98 55 -161 153q-62 99 -82 191t13 126q10 9 24 25.5t26 34.5q16 23 25.5 32.5t17.5 9.5t20 -8q50 -30 22 -126q-6 -23 -10.5 -46.5t-5.5 -35.5l-1 -28l51 -13q93 -27 231 34q68 31 161 94t167 128q31 28 75.5 75.5t87.5 98t71 87t27 42.5q-10 10 -90.5 36
t-183.5 55t-183 47q-219 46 -326 84.5t-169 92.5q-94 83 -153 225.5t-45 253.5q27 154 185 303q111 102 283.5 170t351.5 82q180 9 321 -55q113 -57 202 -177.5t124 -264.5q21 -96 1.5 -174t-72.5 -109q-94 -47 -147 59q-14 31 -14 65.5t15 85.5q6 22 12 46.5t9 40.5
q3 15 3 23.5t-3.5 11.5t-13.5 6q-28 8 -99 8.5t-125 -6.5q-143 -24 -308 -99t-280 -168q-66 -56 -105 -98t-34 -52q11 -19 116.5 -61.5t368.5 -134.5q394 -138 417 -157q78 -55 126.5 -175t38.5 -232q-15 -110 -94.5 -239.5t-192.5 -230.5q-75 -63 -194 -115t-226 -69
q-84 -13 -145.5 -2t-129.5 50v0v0zM896 2077v0q11 -4 23 -18.5t20.5 -30.5t8.5 -27q-2 -13 -27 -48.5t-59 -76.5t-63.5 -71t-40.5 -33q-29 -2 -67 28q-21 19 -54 64.5t-54 86.5q-9 17 -16 36.5t-9.5 34.5t0.5 16q1 0 4 1.5t6 2.5q3 2 10 0.5t14 -5.5q8 -5 25.5 -25.5
t37.5 -46.5q24 -35 37 -48.5t18 -12.5q5 2 24.5 22.5t43.5 51.5q25 31 47 56t32 33q14 11 21 13t18 -3z" />
    <glyph glyph-name="scaron" unicode="&#x161;" horiz-adv-x="955" 
d="M989 720v0q36 6 7.5 -46t-101 -136.5t-170 -178.5t-201.5 -173l16 -34q40 -86 23 -170q-23 -90 -111.5 -176t-197.5 -125q-37 -12 -73 -10.5t-52 15.5q-21 21 -32.5 52.5t-8.5 61.5q14 111 258 313q25 20 35 29.5t9 13.5t-9 7q-9 3 -49.5 11t-93.5 16q-53 9 -83 15
t-46.5 12.5t-31.5 15.5q-78 52 -122 165q-63 163 61 354q23 38 50.5 66t89.5 77q78 63 127.5 87.5t108.5 28.5q48 5 80.5 -11t67.5 -62q79 -103 78 -210q-4 -69 -31.5 -131.5t-64.5 -85.5q-14 -8 -22.5 -8.5t-19.5 6.5q-44 25 -27 135l10 65l-32 -14q-35 -16 -95 -63.5
t-107 -96.5q-23 -24 -46.5 -56t-38.5 -58t-12 -32q3 -2 39 -15t88 -30q125 -43 179 -76l42 -26q180 144 284 247.5t154 162.5q53 62 71 68zM433 95v0l7 22l-24 -20q-33 -29 -87.5 -82.5t-82.5 -85.5q-34 -40 -64 -86.5t-33 -64.5t7.5 -18t42.5 17q154 86 234 318zM615 1336
v0q11 -4 23 -18.5t20.5 -30.5t8.5 -27q-2 -13 -27 -48.5t-59 -76.5t-63.5 -71t-40.5 -33q-29 -2 -67 28q-21 19 -54 64.5t-54 86.5q-9 17 -16 36.5t-9.5 34.5t0.5 16q1 0 4 1.5t6 2.5q3 2 10 0.5t14 -5.5q8 -5 25.5 -25.5t37.5 -46.5q24 -35 37 -48.5t18 -12.5
q5 2 24.5 22.5t43.5 51.5q25 31 47 56t32 33q14 11 21 13t18 -3z" />
    <glyph glyph-name="Ydieresis" unicode="&#x178;" horiz-adv-x="1558" 
d="M660 -598q-148 25 -257 101q-184 130 -143 308q12 46 29 69t50 34q57 24 84 -20q5 -7 7 -17.5t1 -32t-5 -60.5q-7 -72 -1.5 -112.5t27.5 -75.5q9 -18 30 -28t73 -20q118 -22 232 37t174 172q77 145 85 618q7 335 10.5 470t3.5 149l2 16l-13 -28q-4 -8 -35.5 -76
t-72.5 -157t-76 -163.5t-46 -96.5q-62 -124 -125 -217t-148 -123q-93 -23 -193 23.5t-165 114.5q-59 58 -91.5 125.5t-55.5 168.5q-41 189 -8.5 444.5t127.5 495.5q98 237 217 230q46 -4 98.5 -38t70.5 -71q16 -42 -7 -125q-5 -18 -19.5 -82t-33.5 -151q-20 -91 -40 -180
t-35 -149q-24 -106 -29.5 -254.5t8.5 -245.5q15 -69 35.5 -92.5t48.5 -21.5q37 -1 71.5 30.5t62.5 67.5q5 6 10 11q138 165 360 563q45 80 68 126t37 85.5t30 100.5q16 58 42 122.5t51.5 114t41.5 61.5q24 19 85 -23q34 -21 51 -58t25 -106q4 -31 4 -77t-5.5 -142.5
t-18.5 -278.5q-56 -848 -84 -961q-26 -126 -63 -214.5t-97 -170.5q-125 -164 -342 -195q-43 -5 -71 -4t-72 9v0v0zM623 2104v0q27 -4 39.5 -14.5t23.5 -37.5q8 -20 8.5 -33.5t-6.5 -37.5q-17 -70 -69 -72q-14 -1 -23 2.5t-20 15.5q-8 9 -16.5 23.5t-12.5 27.5q-6 19 -5 32.5
t9 35.5q12 37 28 49.5t44 8.5zM822 2099v0q43 7 63 -55q11 -38 -4.5 -76.5t-46.5 -54.5q-46 -19 -76 20q-43 52 -24 115q5 21 11 31t15 17q10 7 15.5 8t12.5 -3q5 -2 14.5 -3t19.5 1z" />
    <glyph glyph-name="zcaron" unicode="&#x17e;" horiz-adv-x="1103" 
d="M1128 703v0q24 32 34.5 11t-9 -76t-85 -125.5t-193.5 -137.5q-16 -8 -20.5 -18.5t-6.5 -32.5q-1 -10 -3 -23q-21 -120 -121 -276t-224 -260q-216 -170 -378 -112q-37 16 -74 52t-51 70q-20 57 10.5 129.5t101.5 134.5q81 69 217 156.5t263 151.5q46 24 77.5 41.5
t32.5 21.5q2 13 -105 -2q-90 -14 -169 -52q-43 -21 -95.5 -30.5t-84.5 -3.5q-30 9 -58.5 34.5t-42.5 53.5t-3 44q5 6 24 18t43 25q50 28 144.5 102t162.5 138q24 24 60 58q31 30 60.5 58t48.5 47.5t19 21.5q-22 9 -90.5 -6.5t-157.5 -40.5q-99 -28 -191 -49.5t-145 -16.5
q-182 21 -177 237q4 45 32 44.5t75 -20.5q51 -21 117 -33q48 -1 151.5 7t203 18t136.5 13q49 6 76 7.5t42.5 -0.5t29.5 -8q55 -24 93 -75.5t34 -99.5q-21 -137 -256 -362l-32 -31l41 1q60 2 114 -48q123 38 206 106.5t123 137.5zM330 -110v0q32 31 75.5 80.5t86.5 101
t70.5 88t26.5 41.5q-4 1 -40.5 -23t-89 -61.5t-104 -75.5t-84.5 -65q-117 -94 -143 -177q-8 -20 0 -23.5t39 6.5q77 23 163 108zM698 1468v0q11 -4 23 -18.5t20.5 -30.5t8.5 -27q-2 -13 -27 -48.5t-59 -76.5t-63.5 -71t-40.5 -33q-29 -2 -67 28q-21 19 -54 64.5t-54 86.5
q-9 17 -16 36.5t-9.5 34.5t0.5 16q1 0 4 1.5t6 2.5q3 2 10 0.5t14 -5.5q8 -5 25.5 -25.5t37.5 -46.5q24 -35 37 -48.5t18 -12.5q5 2 24.5 22.5t43.5 51.5q25 31 47 56t32 33q14 11 21 13t18 -3z" />
    <glyph glyph-name="gravecomb" unicode="&#x300;" horiz-adv-x="647" 
d="M415 1324v0q85 -32 120.5 -55t43.5 -49q13 -34 -4 -44.5t-77 -6.5q-22 1 -49 4.5t-45 7.5q-76 18 -140 63.5t-84 96.5q-35 101 125 28q20 -9 51 -22t59 -23z" />
    <glyph glyph-name="acutecomb" unicode="&#x301;" horiz-adv-x="647" 
d="M432 1369v0q160 73 125 -28q-20 -51 -84 -96.5t-139 -63.5q-19 -4 -46 -7.5t-49 -4.5q-60 -4 -77 6.5t-4 44.5q8 26 44 49t120 55q28 10 59 23t51 22z" />
    <glyph glyph-name="uni0302" unicode="&#x302;" horiz-adv-x="593" 
d="M402 1377v0q21 -19 53.5 -65t54.5 -86q9 -17 16 -36.5t9.5 -34.5t-0.5 -16q-1 0 -4 -1.5t-6 -2.5q-4 -2 -10.5 -0.5t-14.5 5.5q-7 5 -24.5 25t-37.5 47q-24 35 -37 48.5t-18 12.5q-6 -2 -25 -22.5t-44 -51.5q-24 -31 -46.5 -56t-32.5 -33q-13 -11 -20 -13t-18 3
q-11 4 -23.5 18.5t-20.5 30.5t-8 27q2 13 27 48.5t59 76t63.5 71t40.5 32.5q29 3 67 -27z" />
    <glyph glyph-name="tildecomb" unicode="&#x303;" horiz-adv-x="722" 
d="M611 1366v0q15 -3 28.5 -30.5t20.5 -62.5t2 -59q-13 -47 -54.5 -74.5t-93.5 -24.5q-60 2 -126 69q-16 15 -28.5 25t-15.5 11q-4 0 -18 -8t-32 -21q-36 -24 -64 -40.5t-34 -16.5q-2 0 -7.5 3.5t-11.5 9.5q-15 12 -23.5 33t-6.5 43q3 26 27.5 61.5t56 64t53.5 32.5
q42 8 112 -74q19 -22 36.5 -38.5t24.5 -19.5q33 -12 68 4.5t50 50.5q14 35 22 49t14 13z" />
    <glyph glyph-name="uni0304" unicode="&#x304;" horiz-adv-x="654" 
d="M258 1291v0q112 9 203.5 -4.5t114.5 -42.5q23 -30 -4.5 -44.5t-133.5 -28.5q-190 -27 -228 -15q-20 8 -40.5 33.5t-22.5 46.5q-2 19 17 34q7 6 16 9.5t27 6t51 5.5z" />
    <glyph glyph-name="uni0307" unicode="&#x307;" horiz-adv-x="354" 
d="M226 1311v0q27 -4 40 -14.5t23 -37.5q9 -20 9.5 -33.5t-7.5 -37.5q-17 -70 -69 -72q-14 -1 -23 2.5t-20 15.5q-8 9 -16 23.5t-12 27.5q-6 20 -5.5 33t8.5 35q12 37 28 49.5t44 8.5z" />
    <glyph glyph-name="uni0308" unicode="&#x308;" horiz-adv-x="555" 
d="M227 1311v0q27 -4 39.5 -14.5t23.5 -37.5q8 -20 8.5 -33.5t-6.5 -37.5q-17 -70 -69 -72q-14 -1 -23 2.5t-20 15.5q-8 9 -16.5 23.5t-12.5 27.5q-6 19 -5 32.5t9 35.5q12 37 28 49.5t44 8.5zM426 1306v0q43 7 63 -55q11 -38 -4.5 -76.5t-46.5 -54.5q-46 -19 -76 20
q-43 52 -24 115q5 21 11 31t15 17q10 7 15.5 8t12.5 -3q5 -2 14.5 -3t19.5 1z" />
    <glyph glyph-name="uni030A" unicode="&#x30a;" horiz-adv-x="441" 
d="M300 1335v0q21 15 57 -39q15 -20 19 -34.5t5 -44.5q5 -80 -43 -124q-12 -12 -22.5 -16t-35.5 -5q-22 -1 -34 1t-23 9q-26 17 -47 52.5t-26 72.5q-5 48 17.5 88t55 55.5t59.5 -11.5q6 -6 10 -7t8 3zM313 1249v0v18l-20 -19q-35 -34 -46 -67q-3 -9 -1 -11t11 1
q6 2 13.5 6.5t12.5 9.5q30 29 30 62z" />
    <glyph glyph-name="uni030C" unicode="&#x30c;" horiz-adv-x="593" 
d="M486 1336v0q11 -4 23 -18.5t20.5 -30.5t8.5 -27q-2 -13 -27 -48.5t-59 -76.5t-63.5 -71t-40.5 -33q-29 -2 -67 28q-21 19 -54 64.5t-54 86.5q-9 17 -16 36.5t-9.5 34.5t0.5 16q1 0 4 1.5t6 2.5q3 2 10 0.5t14 -5.5q8 -5 25.5 -25.5t37.5 -46.5q24 -35 37 -48.5t18 -12.5
q5 2 24.5 22.5t43.5 51.5q25 31 47 56t32 33q14 11 21 13t18 -3z" />
    <glyph glyph-name="uni0327" unicode="&#x327;" horiz-adv-x="505" 
d="M344 -90v0q106 -116 44 -221q-65 -94 -176 -34q-31 18 -49 39.5t-18 34t26 4.5q35 -7 73.5 -1.5t62 23.5t13.5 50q-5 13 -23 32t-47 22q-61 3 -74 35.5t-8 97.5q2 52 12.5 93.5t39.5 42.5q15 0 33 -11.5t32 -36.5q9 -16 11.5 -33.5t-1.5 -52.5q-3 -29 18 -52z" />
    <glyph glyph-name="endash" unicode="&#x2013;" horiz-adv-x="1368" 
d="M1239 620v0q35 -24 54.5 -54.5t17.5 -56.5q-1 -16 -5.5 -19.5t-19.5 -0.5q-52 6 -168.5 7.5t-429.5 -2t-395 -10.5q-38 -4 -58.5 -4t-31.5 4.5t-21 14.5q-16 17 -26.5 40.5t-9.5 39.5q7 49 125 69q190 34 787 10q70 -7 103.5 -11.5t48.5 -10.5t29 -16z" />
    <glyph glyph-name="emdash" unicode="&#x2014;" horiz-adv-x="1851" 
d="M1722 620v0q35 -24 54.5 -54.5t17.5 -56.5q-1 -16 -5.5 -19.5t-19.5 -0.5q-52 6 -168.5 7.5t-671 -2t-636.5 -10.5q-38 -4 -58.5 -4t-31.5 4.5t-21 14.5q-16 17 -26.5 40.5t-9.5 39.5q7 49 125 69q190 34 1270 10q70 -7 103.5 -11.5t48.5 -10.5t29 -16z" />
    <glyph glyph-name="quoteleft" unicode="&#x2018;" horiz-adv-x="491" 
d="M264 1638v0q87 102 145 98.5t73 -111.5q19 -136 -72 -230q-20 -22 -51 -59.5t-59 -74.5q-27 -37 -41 -58.5t-19.5 -37t-6.5 -34.5q-3 -27 -8 -38t-17 -16q-13 -6 -19 -3t-14 21q-12 28 -21 99t-9 134q3 68 38.5 161.5t80.5 148.5z" />
    <glyph glyph-name="quoteright" unicode="&#x2019;" horiz-adv-x="491" 
d="M264 1638v0q87 102 145 98.5t73 -111.5q19 -136 -72 -230q-20 -22 -51 -59.5t-59 -74.5q-27 -37 -41 -58.5t-19.5 -37t-6.5 -34.5q-3 -27 -8 -38t-17 -16q-13 -6 -19 -3t-14 21q-12 28 -21 99t-9 134q3 68 38.5 161.5t80.5 148.5z" />
    <glyph glyph-name="quotesinglbase" unicode="&#x201a;" horiz-adv-x="491" 
d="M264 170v0q87 102 145 98.5t73 -111.5q19 -136 -72 -230q-20 -22 -51 -59.5t-59 -74.5q-27 -37 -41 -58.5t-19.5 -37t-6.5 -34.5q-3 -27 -8 -38t-17 -16q-13 -6 -19 -3t-14 21q-12 28 -21 99t-9 134q3 68 38.5 161.5t80.5 148.5z" />
    <glyph glyph-name="quotedblleft" unicode="&#x201c;" horiz-adv-x="709" 
d="M458 1689v0q30 -134 -52 -236q-18 -23 -45.5 -63t-51.5 -79q-25 -40 -37 -62.5t-16 -38.5t-4 -35q0 -27 -4 -38t-16 -17q-12 -8 -18.5 -5.5t-15.5 19.5q-14 27 -29.5 97t-20.5 133q-3 68 24.5 164.5t66.5 154.5q79 109 136.5 110.5t82.5 -104.5zM576 1638v0
q87 102 145 98.5t73 -111.5q19 -136 -72 -230q-20 -22 -51 -59.5t-59 -74.5q-27 -37 -41 -58.5t-19.5 -37t-6.5 -34.5q-3 -27 -8 -38t-17 -16q-13 -6 -19 -3t-14 21q-12 28 -21 99t-9 134q3 68 38.5 161.5t80.5 148.5z" />
    <glyph glyph-name="quotedblright" unicode="&#x201d;" horiz-adv-x="709" 
d="M458 1689v0q30 -134 -52 -236q-18 -23 -45.5 -63t-51.5 -79q-25 -40 -37 -62.5t-16 -38.5t-4 -35q0 -27 -4 -38t-16 -17q-12 -8 -18.5 -5.5t-15.5 19.5q-14 27 -29.5 97t-20.5 133q-3 68 24.5 164.5t66.5 154.5q79 109 136.5 110.5t82.5 -104.5zM576 1638v0
q87 102 145 98.5t73 -111.5q19 -136 -72 -230q-20 -22 -51 -59.5t-59 -74.5q-27 -37 -41 -58.5t-19.5 -37t-6.5 -34.5q-3 -27 -8 -38t-17 -16q-13 -6 -19 -3t-14 21q-12 28 -21 99t-9 134q3 68 38.5 161.5t80.5 148.5z" />
    <glyph glyph-name="quotedblbase" unicode="&#x201e;" horiz-adv-x="709" 
d="M458 141v0q30 -134 -52 -236q-18 -23 -45.5 -63t-51.5 -79q-25 -40 -37 -62.5t-16 -38.5t-4 -35q0 -27 -4 -38t-16 -17q-12 -8 -18.5 -5.5t-15.5 19.5q-14 27 -29.5 97t-20.5 133q-3 68 24.5 164.5t66.5 154.5q79 109 136.5 110.5t82.5 -104.5zM576 90v0q87 102 145 98.5
t73 -111.5q19 -136 -72 -230q-20 -22 -51 -59.5t-59 -74.5q-27 -37 -41 -58.5t-19.5 -37t-6.5 -34.5q-3 -27 -8 -38t-17 -16q-13 -6 -19 -3t-14 21q-12 28 -21 99t-9 134q3 68 38.5 161.5t80.5 148.5z" />
    <glyph glyph-name="dagger" unicode="&#x2020;" horiz-adv-x="1297" 
d="M1141 887v0q47 -20 74 -45t25 -46q-2 -14 -8 -17t-27 0q-54 4 -166 5.5t-247 0.5q-5 -51 -12 -119v-2q-34 -343 -44 -509t-4 -296q2 -64 1 -93.5t-6 -40.5q-16 -37 -46 -9q-25 23 -49 82.5t-37 133.5q-14 82 -27 204t-16 203q-4 175 15 443q-131 -3 -218 -7
q-52 -4 -80.5 -4t-43.5 4t-28 12q-22 15 -37 34t-14 32q10 41 173 58q128 13 259 15q24 286 53 420q28 116 76 120q11 -1 31.5 -18.5t33.5 -37.5q31 -49 41 -122.5t3 -204.5q-2 -41 -4.5 -76.5t-6.5 -83.5q42 -2 86 -5q96 -5 142 -9t67 -8.5t41 -13.5z" />
    <glyph glyph-name="daggerdbl" unicode="&#x2021;" horiz-adv-x="1297" 
d="M1140 387v0q47 -20 74.5 -45.5t24.5 -46.5q-1 -13 -7.5 -16t-27.5 -1q-59 5 -185 6.5t-275 -0.5q-11 -142 -13.5 -238t0.5 -187q3 -64 2 -93.5t-7 -40.5q-15 -37 -46 -9q-25 23 -48.5 82.5t-37.5 133.5q-11 67 -22 166t-17 183q-123 -2 -206 -7q-53 -3 -81 -3t-43 3.5
t-28 12.5q-22 14 -37 33.5t-14 32.5q10 40 173 57q115 12 232 15q2 157 15 357q-130 -3 -217 -7q-53 -4 -81 -4t-43 4t-28 12q-22 15 -37 34t-14 32q10 41 173 58q127 13 258 15q24 286 53 420q29 116 77 120q11 -1 31 -18.5t34 -37.5q31 -49 41 -122.5t3 -204.5
q-3 -41 -5.5 -76.5t-6.5 -83.5q42 -2 87 -5q96 -5 142 -9t66.5 -8.5t40.5 -13.5q47 -20 74.5 -45t24.5 -46q-1 -14 -7.5 -17t-27.5 0q-53 4 -165 5.5t-248 0.5q-5 -50 -11 -117q-1 -2 -1 -4q-13 -136 -23 -240q65 -2 135 -6q96 -6 142 -9.5t66.5 -8.5t40.5 -13z" />
    <glyph glyph-name="bullet" unicode="&#x2022;" horiz-adv-x="583" 
d="M336 302q-79 0 -135 54.5t-56 131.5t56 131t135 54q80 0 136 -54t56 -131t-56 -131.5t-136 -54.5z" />
    <glyph glyph-name="ellipsis" unicode="&#x2026;" horiz-adv-x="1251" 
d="M221 218v0q28 -1 61 -16.5t58 -40.5q14 -13 18 -22.5t1 -23.5q-5 -26 -27 -59.5t-44 -48.5q-23 -15 -42.5 -13t-43.5 21q-35 24 -46 45.5t-7 52.5q3 17 9.5 37t14.5 35q8 16 13.5 23t13 8.5t21.5 1.5zM641 218v0q28 -1 61 -16.5t58 -40.5q14 -13 18 -22.5t1 -23.5
q-5 -26 -27 -59.5t-44 -48.5q-23 -15 -42.5 -13t-43.5 21q-35 24 -46 45.5t-7 52.5q3 17 9.5 37t14.5 35q8 16 13.5 23t13 8.5t21.5 1.5zM1055 218v0q28 -1 61 -16.5t58 -40.5q14 -13 18 -22.5t1 -23.5q-5 -26 -27 -59.5t-44 -48.5q-23 -15 -42.5 -13t-43.5 21
q-35 24 -46 45.5t-7 52.5q3 17 9.5 37t14.5 35q8 16 13.5 23t13 8.5t21.5 1.5z" />
    <glyph glyph-name="guilsinglleft" unicode="&#x2039;" horiz-adv-x="695" 
d="M576 877v0q22 -13 44 -56q13 -27 16.5 -45t1.5 -47q-2 -27 -12 -50.5t-42 -61.5t-98 -110q-40 -44 -67 -75t-28 -35q1 -3 12.5 -14t29.5 -25q137 -111 125 -195q-7 -39 -35 -44.5t-91 18.5q-119 43 -178 94t-87 134q-15 41 -18.5 65.5t-0.5 65.5q2 30 5 46.5t10 30
t23 34.5q27 35 86.5 88t122.5 100.5t101 66.5q26 12 39.5 17t22 4t18.5 -6z" />
    <glyph glyph-name="guilsinglright" unicode="&#x203a;" horiz-adv-x="655" 
d="M377 824v0q195 -128 214 -334q9 -78 -22.5 -135.5t-124.5 -135.5q-64 -54 -101 -72.5t-80 -16.5q-27 0 -39 3.5t-18 13.5q-36 44 -7 136q16 57 36 92t67 87q23 26 40.5 45.5t21.5 24.5q4 9 -53 40q-114 61 -138 159q-28 124 45 148q49 19 159 -55z" />
    <glyph glyph-name="fraction" unicode="&#x2044;" horiz-adv-x="1282" 
d="M1125 1889v0q38 -20 70 -53.5t32 -68.5q-4 -28 -51 -127q-47 -98 -116 -265q-62 -152 -113 -275q-80 -190 -136 -340q-27 -73 -69 -184.5t-80 -211.5q-207 -538 -307 -862q-23 -75 -41 -129t-24 -63q-8 -20 -28.5 -29.5t-45 9.5t-46.5 85q-25 107 12 263
q69 282 250 797.5t353 920.5q120 279 185 406t94 139q12 6 25.5 3.5t35.5 -15.5z" />
    <glyph glyph-name="fraction" unicode="&#x2215;" horiz-adv-x="1282" 
d="M1125 1889v0q38 -20 70 -53.5t32 -68.5q-4 -28 -51 -127q-47 -98 -116 -265q-62 -152 -113 -275q-80 -190 -136 -340q-27 -73 -69 -184.5t-80 -211.5q-207 -538 -307 -862q-23 -75 -41 -129t-24 -63q-8 -20 -28.5 -29.5t-45 9.5t-46.5 85q-25 107 12 263
q69 282 250 797.5t353 920.5q120 279 185 406t94 139q12 6 25.5 3.5t35.5 -15.5z" />
    <glyph glyph-name="franc" unicode="&#x20a3;" horiz-adv-x="2086" 
d="M1775 1522v0q139 -55 209 -140q20 -23 33.5 -42t13.5 -24q-6 -25 -73 1q-39 16 -160 31q-73 10 -125 11.5t-140 -4.5q-249 -15 -422 -44l-97 -15l-10 -79q-5 -40 -14 -128.5t-18.5 -187t-15.5 -169.5t-6 -76q3 -1 27 -1.5t59 -0.5q80 1 289 -30q154 -22 211.5 -37.5
t58.5 -33.5q10 -34 -72 -27q-83 5 -240.5 3.5t-248.5 -7.5l-100 -8l-6 -80q-5 -73 -8.5 -165.5t-6.5 -176.5l158 9l51 -7q65 -9 130.5 -38t103.5 -67t18 -73q-13 -21 -54 -26t-136 -6h-141l-118 -12q3 -4 6 -10q7 -15 17.5 -35.5t19.5 -40.5q56 -114 72.5 -217t-12.5 -149
q-21 -28 -74.5 -31t-107.5 21q-61 34 -105 169q-16 51 -33.5 126t-29.5 144l-97 -9q-1 2 -5 3.5t-13 2.5t-25.5 1.5t-42.5 0.5q-61 1 -99 7t-68 22q-48 25 -73 61.5t7 66.5q15 11 62.5 23.5t105 23.5t103.5 16q-52 34 -140 83q-107 59 -161 95.5t-70.5 64t-11.5 59.5
q5 44 57 82.5t170 85.5q61 24 129 44.5t96 23.5l21 2l6 88q2 39 12 125t22 178l29 216l-25 -9q-43 -15 -108 -41t-120 -49q-30 -14 -58.5 -23.5t-41.5 -10.5q-29 -1 -64 16.5t-58 44.5q-15 18 -18.5 30t-0.5 33q14 90 141.5 169t342.5 132q24 6 42.5 11t22.5 7q4 3 10 16
t10 31q18 74 50 98t97 13q99 -13 109 -84q7 -33 17 -33q16 3 83 7t143 7t119 3q91 -2 212.5 -21t177.5 -40zM596 162v0q24 -16 31 -15.5t4 19.5q-2 30 -4 90t-3.5 114.5t-0.5 65.5q1 8 -1 14t-6 7q-5 0 -33 -8t-66 -19q-156 -51 -171 -100q-1 -8 2.5 -15t17 -17t41 -26
t73.5 -42q38 -22 71 -41t45 -27z" />
    <glyph glyph-name="lira" unicode="&#x20a4;" horiz-adv-x="1143" 
d="M995 161v0q45 23 69 2t19 -71q-19 -122 -119.5 -184t-236.5 -38q-26 5 -62 16t-65 22q-84 34 -139.5 42.5t-111.5 -3.5q-44 -9 -66 -9t-41 10q-19 9 -41 28.5t-38.5 40.5t-17.5 36q0 11 16.5 39.5t38.5 59.5q128 179 164 360l-41 -5q-38 -2 -62.5 2t-43.5 15
q-31 18 -47.5 45.5t2.5 52.5q12 10 50.5 24t80.5 25t64 12l15 2q2 30 4 75l-67 -9q-38 -1 -62 2.5t-44 14.5q-31 18 -47.5 46t3.5 52q11 11 49.5 24.5t80.5 24.5t64 12l23 3q-2 60 -6 130q-8 127 -8 184t8 101q51 287 294 300q131 9 246 -105q112 -102 114 -208
q2 -33 -3.5 -50t-24.5 -33q-51 -49 -112 13q-19 16 -27.5 36.5t-13.5 57.5q-10 58 -24.5 82t-29.5 23q-27 -2 -64 -27.5t-54 -52.5q-45 -75 -16 -367l1 -50l12 2l32 -4q41 -5 83.5 -26t67.5 -49t13 -56q-8 -17 -33.5 -22.5t-85.5 -8.5l-87 -5l1 -75l12 1l33 -3
q41 -5 83.5 -26t67.5 -49.5t13 -56.5q-8 -16 -34 -21.5t-85 -8.5l-90 -5l-18 -2q-45 -232 -149 -400l-17 -27l92 -31q113 -42 192.5 -29t225.5 99z" />
    <glyph glyph-name="peseta" unicode="&#x20a7;" horiz-adv-x="3800" 
d="M1686 1399v0q126 -166 146 -360q4 -60 -8.5 -147.5t-34.5 -153.5q-77 -211 -251 -400q-64 -63 -192 -159t-207 -139q-66 -33 -137.5 -58t-117.5 -30q-26 -3 -34.5 -8t-9.5 -19q-2 -21 -1 -96.5t5 -156.5t8 -120q14 -114 11 -158q-2 -23 -22.5 -20.5t-47.5 28.5
q-254 256 -240 877q4 140 16.5 254t42.5 273q37 199 69.5 298.5t71.5 129.5q15 13 27 14.5t37 -4.5q137 -37 139 -231q-2 -31 -16.5 -159t-35.5 -293q-21 -164 -33.5 -274t-10.5 -115q11 0 63 29t115.5 70t111.5 77q173 128 291 295q286 410 135 697q-69 133 -280 160
q-393 58 -701 -255q-62 -63 -132 -168.5t-129 -221.5q-50 -99 -63.5 -149.5t-5.5 -107.5q5 -43 14.5 -65.5t29.5 -34.5q8 -6 14 -14.5t6 -16.5q-1 -23 -22.5 -19t-49 27.5t-48.5 58.5q-20 35 -32 83t-22 129q-10 82 2.5 173.5t42.5 163.5q110 266 347 445q197 157 431 173
q36 4 81 0.5t126 -15.5q64 -9 98.5 -15.5t57.5 -14.5t52 -22q170 -77 293 -235zM3699 718v0q46 5 -15.5 -84t-185 -215.5t-263.5 -233.5l16 -34q39 -86 23 -170q-23 -90 -111.5 -175.5t-197.5 -124.5q-37 -12 -73 -10.5t-52 15.5q-21 21 -32.5 52.5t-8.5 61.5
q14 110 258 312q25 20 35 29.5t9 13.5t-10 7q-8 4 -48.5 11.5t-93.5 15.5q-53 9 -82.5 15t-46.5 12.5t-32 15.5q-39 25 -72 71q-10 -29 -20 -55q-37 -113 -91.5 -225.5t-97.5 -164.5q-94 -97 -207 -47q-68 36 -128.5 119.5t-93.5 188.5q-31 102 -50.5 267.5t-19.5 311.5
q2 61 11 159t20 169q5 12 -52 14q-58 3 -103.5 29.5t-61.5 64.5q-9 20 1 33.5t49 28.5t119 38l100 29l15 49q29 99 73 179t86 109q28 18 52.5 17t57.5 -23q51 -31 70.5 -77.5t17.5 -134.5l-1 -84l53 -10q78 -17 138.5 -54t63.5 -70q-10 -33 -175 -54q-43 -6 -72.5 -10
t-31.5 -5q-2 -3 -12.5 -60.5t-25.5 -142.5q-16 -87 -35 -186t-33 -164q-14 -68 -21 -109.5t-9.5 -86.5t-3.5 -123q-3 -257 26 -285q37 -16 118 74t154 225q37 77 70 164q-61 161 61 349q23 38 51 65.5t90 76.5q77 63 126.5 87.5t108.5 28.5q48 6 80.5 -10t67.5 -62
q78 -103 77 -210q-3 -69 -30.5 -131.5t-64.5 -85.5q-14 -8 -22.5 -8t-19.5 7q-45 25 -27 134l10 65l-32 -14q-35 -16 -95 -63.5t-107 -96.5q-23 -23 -46 -55.5t-38.5 -58.5t-12.5 -31q3 -2 39 -15t88 -30q125 -43 179 -76l41 -26q180 143 284 247t154 162q53 62 71 68z
M3144 94v0l7 22l-24 -20q-33 -29 -87.5 -82.5t-82.5 -84.5q-34 -40 -64 -86.5t-33 -64.5t7.5 -18t42.5 17q154 86 234 317z" />
    <glyph glyph-name="Euro" unicode="&#x20ac;" horiz-adv-x="1314" 
d="M958 1199v0q-93 -38 -183 -120t-123 -159l-4 -12l108 -3q94 -3 169 -16t108 -32q22 -14 33 -33t5 -33t-35 -12q-8 0 -19 -1.5t-21 -4.5q-12 -2 -67 -4t-128 -2q-74 1 -127.5 0t-62.5 -2q-23 0 -30 -84l-2 -29l125 -10q75 -5 113.5 -11t65.5 -17q28 -11 52.5 -30.5
t32.5 -36.5t-14 -23q-7 -1 -28 -6q-11 -2 -25 -5q-19 -4 -62 -7.5t-89 -3.5q-46 -1 -87 -2t-57 -1l-33 -3l1 -50q4 -101 25 -193.5t51 -141.5q86 -123 340 16q157 88 183 138q33 54 41.5 22.5t-20.5 -138.5q-24 -87 -64 -139.5t-113 -91.5q-157 -85 -302 -29
q-46 18 -77 39.5t-76 66.5q-45 42 -73 77.5t-55 83.5q-28 49 -57 126.5t-42 138.5l-13 62l-31 8q-64 17 -61 49t66 66q5 2 7.5 7.5t3.5 20.5t1 46l-2 66l-43 5q-50 6 -84 34.5t-22 60.5q8 13 48.5 26t81.5 18q16 1 25 6.5t16 23.5t17 57q72 259 335 408q226 121 392 -3
q107 -86 147 -186.5t-15 -154.5q-7 -7 -17.5 -11.5t-19.5 -3.5q-24 3 -49 34t-35 69q-15 72 -38 84.5t-87 -14.5z" />
    </font>
</defs>
</svg>
